<svg xmlns="http://www.w3.org/2000/svg" xmlns:xlink="http://www.w3.org/1999/xlink" viewBox="0 0 290.5 371.87"><defs><style>.cls-1{fill:none;}.cls-2{fill:#1d1542;}.cls-3{fill:#99a2fc;}.cls-4{fill:#280c96;}.cls-5{fill:#000102;}.cls-6{fill:#fc2d65;}.cls-7{fill:#fff;}.cls-8{fill:#38d6d6;}.cls-9{fill:#e6e4ff;}.cls-10{fill:#3a18cd;}.cls-11{fill:#ff7f24;}.cls-12{clip-path:url(#clip-path);}.cls-13{fill:#c2ff75;}</style><clipPath id="clip-path"><path class="cls-1" d="M193.73,151.56a19.62,19.62,0,0,0,13.75,4.92s-2.06.23-3.27,4.09c0,0,29.32,14,47-12.24,0,0,16.62,9.25,18.16,28.22,0,0-18.07,23.39-64.22,18.75l-3.8,89.83s-34.95-4.41-50.53-10.24-58.9-46.3-58.9-46.3l64.26-48.72s-19.33-33.22-20-64.14c0,0,12.31-4.39,29.85-2.1,0,0,8.35,30.15,14.7,37.16S193.59,157.5,193.73,151.56Z"/></clipPath></defs><g id="Layer_2" data-name="Layer 2"><g id="Layer_1-2" data-name="Layer 1"><path class="cls-2" d="M67.76,370.94c.07,0,3.8,0,8.29,0,5.2.05,8.19,0,8.24,0s.36-.07.89,0a3.56,3.56,0,0,0,1.17,0,3.75,3.75,0,0,1,1.11,0c.91.11,16.32.24,26,.21l1.16,0c3,.08,18,.17,18.2.11s.29,0,.29,0a8.94,8.94,0,0,0,1.79.09l12.09.07c14.74.1,18.68.12,26.5.15l13,.07,6,0s4.83,0,5.09,0c2.16.08,6.62.14,7.09.09a1.82,1.82,0,0,1,.79,0,1.16,1.16,0,0,0,.71-.06,2.45,2.45,0,0,1,1-.07,25.41,25.41,0,0,0,3.25.19c.45,0,2.23,0,4,0,2.8,0,12.19,0,14.41,0a3.69,3.69,0,0,0,.86-.05,8.71,8.71,0,0,1,1.56-.05,21.68,21.68,0,0,0,4-.13c0-.05.17,0,.39.06s.32.09.23,0,.18-.13.82-.16,1,0,1,0a2.48,2.48,0,0,0,.61-.19,2.15,2.15,0,0,1,1.18-.14c.62.07.86-.08.31-.19-.15,0,0,0,.31,0a4.66,4.66,0,0,0,1.18-.07,7,7,0,0,1,1.33-.08,9.73,9.73,0,0,0,1.58-.09c1-.16,1.08-.16.9,0s.18,0,.57-.05c.91-.18.87-.25-.12-.18-1.19.08-1-.05.22-.16,1-.09,1.44-.27.71-.28-.19,0-.35.05-.35.11s-.11.08-.29,0a6,6,0,0,0-1.94,0,10,10,0,0,1-1.1.1c-.62,0-.84,0-.84-.1s.18-.15.4-.15c1.31,0,1.82-.06,1.89-.21a.38.38,0,0,1,.61,0c.1.12.23.13.63,0s.41-.13.21-.19c-.53-.15.59-.48,1.58-.47a27.45,27.45,0,0,0,3.49-.2c.07,0,0-.1-.21-.16s-.25-.09.12-.09.45,0,0-.15a4.75,4.75,0,0,0-.69-.18c-.27,0,.39-.51,1-.73.2-.06.24-.1.08-.06s-.3,0-.29-.09.14-.13.41-.1.14,0-.17-.09-.59-.13-.69,0-.17.1-.42,0-.22-.14.13-.15l.6,0c.11,0,.16-.18.12-.4s0-.43.26-.46.25,0,.17.06.05.08.38.05.39-.07.23-.1-.28-.1-.28-.18-.41-.19-1.1-.16c-.17,0-.22-.05-.13-.15s.07-.16-.26-.11-.36,0-.16-.06.15-.15-.18-.25c-.67-.18-.57-.29.22-.23s1.65,0,1.24-.15a.63.63,0,0,1-.36-.34c-.08-.2,0-.27.38-.28s.51-.08.54-.15,0-.08-.06,0a.43.43,0,0,1-.34,0c-.13,0-.1-.12.07-.2s.21-.16,0-.24a.73.73,0,0,0-.57,0c-.21.11-.3.1-.59,0s-.31-.19-.28-.23-.14-.06-.4,0-.47,0-.47-.06.22-.09.46-.09a1.34,1.34,0,0,0,.58-.08c.08-.06-.11-.08-.47-.06s-.57,0-.47-.1-.07-.27-.5-.14c-.21.06.15-.11.79-.39.83-.35,1.09-.52.89-.57s-.06-.19.53-.45a3.35,3.35,0,0,0,.81-.45c0-.05.12-.09.25-.08s.16.05.07.12,0,.05.28,0a6.28,6.28,0,0,1,1.37-.21,5.47,5.47,0,0,0,1.15-.14,2.74,2.74,0,0,1,.75-.08c.29,0,.53,0,.53-.1s-.1-.07-.22,0c-.31.07-.19-.36.17-.58.18-.11.32-.17.32-.12s.19,0,.46,0c.57-.12.4-.29-.3-.3-.4,0-.43,0-.17.09s.24.1-.16.08-.44-.06-.31-.17a.37.37,0,0,0,.15-.3c0-.18.8-.57,1.19-.57a1,1,0,0,0,.44-.09c.1-.07-.06-.07-.48,0-.72.11-1.33-.06-1.44-.39s.12-.26.93-.21a1.22,1.22,0,0,0,.54-.08c.09-.06,0-.11-.24-.11s-.35,0,0-.24.32-.25.07-.34a.69.69,0,0,0-.51,0,1.06,1.06,0,0,1-.68-.06c-.32-.11-.37-.18-.18-.26s.18-.61-.09-.54a1.1,1.1,0,0,1-.49-.12c-.3-.14-.3-.15,0-.1a.6.6,0,0,0,.51-.08c.08-.08,0-.12-.1-.09s-.23,0-.23,0,.15-.12.31-.15.1-.07-.21-.12-.46-.12-.38-.2,0-.14-.26-.14-.33,0-.24.12,0,0-.23-.08a1.37,1.37,0,0,0-.55-.18c-.1,0-.18,0-.18-.12s.13-.11.29-.08.28,0,.26-.21-.07-.27-.66-.3a1.35,1.35,0,0,1-.46-.11c-.1-.06-.18-.05-.18,0s-.27.12-.64.11-.48,0-.23-.07.41-.08.41-.12-.17-.06-.37,0a1,1,0,0,1-.6-.09c-.17-.11-.24-.12-.34,0a.55.55,0,0,1-.34.13c-.13,0-.16-.05-.08-.1s0-.1-.1-.1-.26,0-.26.08a3.58,3.58,0,0,1-1.05-.08,6.29,6.29,0,0,0-1.79-.08,9.42,9.42,0,0,1-1.6,0,2.37,2.37,0,0,0-.87,0,1.29,1.29,0,0,1-.61-.07c-.66-.15-1.11-.12-.86.06.1.07,0,.08-.18,0a6.16,6.16,0,0,0-2,0c0,.06-.12.05-.27,0a1.73,1.73,0,0,0-.52-.13c-.14,0-.1,0,.1.1s.28.11-.05.1a.87.87,0,0,1-.51-.13c-.11-.1-.16-.1-.28,0s-.23.07-.48-.08a.61.61,0,0,0-.74-.06,1.1,1.1,0,0,1-.59.07c-.11,0-.12,0,0,.05s-.24.15-.44,0a13.24,13.24,0,0,0-3.61,0c-.21.1-.32.1-.44,0a3.13,3.13,0,0,0-1-.12c-.69,0-.82,0-.72-.17s.1-.14-.28,0c-.56.2-1.46.31-1.46.17s-.34-.1-.78-.1c-.59,0-.76,0-.68.16s.05.11-.15,0-.35-.16-.73-.07a1.7,1.7,0,0,1-.6,0c-.08,0,0-.06.14-.05s.22-.05.14-.11-.29-.06-.55,0c-.41.15-1.18.11-1.17-.06s-.57-.07-1,.08-.36.11-.23,0-.28-.21-.76,0a1.25,1.25,0,0,1-.89.09,2.14,2.14,0,0,0-.69,0,.71.71,0,0,1-.49-.13c-.19-.11-.32-.14-.33-.06s-.21.11-.67.06a2.43,2.43,0,0,0-.77,0s-.06,0,0-.06-.15-.12-.62-.11-.69.06-.69.12-.1,0-.22-.05-.22-.12-.23,0-.17.13-.37.12-.29,0-.22.09c.25.18-.27.1-.68-.1s-1.18-.18-.91,0c.07.05-.1,0-.36,0a1,1,0,0,0-.66-.05,1.76,1.76,0,0,1-.68.1c-.45,0-.48,0-.23-.15s.23-.13,0-.08a8,8,0,0,1-2.24,0c.07,0-.27-.09-.75-.11l-1.35-.05c-.79,0-1.06.05-.91.27s.08.18-.09.07-.89-.24-1-.07-.61.17-.6,0,0-.14.22,0,.22.1.23,0c0-.24-.53-.26-.92-.05s-.43.19-.67.06-.21-.21-.12-.27.08-.09-.07-.05-.91.07-1.7.09a13.63,13.63,0,0,0-1.57.07,1.06,1.06,0,0,1-.44-.07c-.26-.09-.37-.09-.54,0s-.22.08-.23-.11-.06-.18-.13-.09-.35.16-1.26.13a4.67,4.67,0,0,0-1.14,0s-.2.09-.47.12-.46,0-.46-.05-.08-.08-.21,0a.51.51,0,0,1-.35-.05.5.5,0,0,0-.41,0c-.51.12-1.1.09-1.1-.07s0-.14-.18,0-.77.22-.58,0,.1-.15-.37,0-.55.16-.72,0-.13-.19-.06-.24,0,0-.18,0a3.24,3.24,0,0,1-1,.11,4.14,4.14,0,0,0-1.15.16c-.34.12-.48.13-.56,0s-.77-.16-1.12,0-.34.15-1.13,0c-1-.22-2.07-.25-1.9-.06s-.12.14-.69.14a6.94,6.94,0,0,0-1,.05.44.44,0,0,1-.34-.05.57.57,0,0,0-.42,0c-.15,0-.13,0,.05-.1s.25-.17-.35-.17-.59,0-.33.09.2.11-.29.15a4.52,4.52,0,0,1-1,0c-.2,0-.3,0-.22,0s0,.1-.1.09-.25-.06-.24-.12-.37-.18-.81-.24c-.66-.1-.82-.09-.82,0s-.11.13-.24.13-.17.05-.08.12.08.09-.16,0-.26-.14,0-.22.24-.09-.18-.06-.51,0-.51-.06-.18-.07-.4,0a21.84,21.84,0,0,1-3.43,0,1.55,1.55,0,0,0-.76.06c-.44.18-.75.15-.56-.05s.11-.16-.25,0-.4.09-.4.05-.12,0-.28,0a1.52,1.52,0,0,1-1.25-.07c-.31-.17-.32-.17-.21,0s0,.17-.15.13-.27-.09-.24-.14-.1-.1-.3-.1-.34,0-.34.08.13.09.28.09.23,0,0,.11-.53.07-.61-.18a.46.46,0,0,0-.36-.22c-.23,0-.24,0,0,.16s.11.27-.79,0-1.22-.26-.73,0c.34.16.33.18-.09.19s-.46-.05-.46-.15-.06-.13-.3,0a.82.82,0,0,1-.48,0c-.1,0-.15,0-.12,0,.08.2,0,.35-.27.34s-.18,0-.08-.11,0-.09-.44-.05-.66,0-.84-.15-.46-.2-1.27-.2a4.06,4.06,0,0,0-1,.08,2.14,2.14,0,0,0,.82.05c.47,0,.77,0,.7.05a23.08,23.08,0,0,1-3.79-.08c-.09,0,0,0,.28,0s.39,0,.31,0a6.29,6.29,0,0,0-2.21,0c-.06.07-.25.05-.6,0a1.58,1.58,0,0,0-.69-.08c-.1,0-.11,0,0-.12s.09-.16-.34,0-.57.2-.76.11c-.37-.16-.64-.15-.64,0s0,.15-.31,0-1-.15-.73,0-.6.07-1.08-.14-.47-.19-.35,0,.06.16-.19.12a.83.83,0,0,0-.57.1c-.21.15-.25.14-.38-.05a.47.47,0,0,0-.36-.23c-.13,0-.17.07-.1.16s.08.14-.2,0a3.68,3.68,0,0,0-1-.1,4.7,4.7,0,0,1-.87,0,8.47,8.47,0,0,0-2.36,0c-.25.08-.28.07-.18-.05s0-.14-.58-.07c-.44.05-.67,0-.58,0s0-.1-.24-.1-.32-.05-.21-.12.09-.09,0-.05-.21.13-.22.19-.19.13-.43.15-.37,0-.27-.08,0-.1-.26-.1-.36,0,.12.19.53.2.09.2c-.64,0-1.21-.12-1.21-.23s-.15-.16-.35-.25-.35-.13-.35,0-.18.13-.4.11a1.75,1.75,0,0,0-.7.09c-.35.15-.84.18-.63,0s-1-.26-1.47-.15a1.52,1.52,0,0,1-.79,0c-.31-.08-.46-.08-.58,0a.6.6,0,0,1-.52,0c-.46-.13-.92-.13-.93,0s.15.08.35.06.36,0,.36,0-.69.1-1.08-.07-1.14-.16-1.06,0-.05.09-.18.06-.18-.11-.11-.16-.1-.07-.39-.06a5.32,5.32,0,0,1-1,0c-.61-.11-1,0-.89.14s-.2.17-.61,0c-.24-.1-.27-.1-.15,0s.07.13,0,.13a1.86,1.86,0,0,1-.52-.13c-.17-.07-.25-.09-.18,0s-1.5.16-1.71,0a17.1,17.1,0,0,0-3.73-.11c-.22.05-.4.05-.4,0a6.3,6.3,0,0,0-1.51-.11,7.71,7.71,0,0,0-1.42,0s-.11.15-.38.26-.41.14-.32.08-.08-.2-.35-.3-.41-.13-.28,0c.38.27.34.49-.09.48s-.32,0-.11-.08.18-.12-.17-.26-.46-.16-.46-.12a1.53,1.53,0,0,1-.64-.08,3.55,3.55,0,0,0-2,.09c-.43.15-.44.15-.3,0s0-.19-.17-.22-.35,0-.4,0-1.24.13-1.18,0-.1-.14-.28-.17-.45.06-.36.27-.1,0-.27,0a1,1,0,0,0-.78,0,1,1,0,0,1-.87,0c-.43-.18-1.65-.31-1.44-.16s0,.09-.22.08-.34,0-.34-.09-.64-.1-.78,0-.2.08-.43,0-.35-.15-.84,0c-.31.1-.46.23-.37.3s.07.09-.11,0-.22-.14-.15-.22,0-.13-.33-.14-.47,0-.47-.08-.14-.08-.33-.09-.35,0-.35.09-.25.06-.58,0a3.3,3.3,0,0,0-.83,0,11.39,11.39,0,0,1-1.32.08l-1.33,0a8,8,0,0,1-.92-.06l-.68-.07.57.14.57.15-.77,0a2.76,2.76,0,0,1-1-.18c-.17-.11-.21-.11-.21,0s-.18.17-.38.17-.32-.06-.25-.13-.06-.14-.41-.14-.49,0-.43.07a.41.41,0,0,0,.32,0c.14,0,.23,0,.23,0a2.94,2.94,0,0,1-1.24.17c-.1,0,0-.12.12-.2s.25-.14-.15,0a2.8,2.8,0,0,1-1,0c-.37-.07-.54-.05-.65.07a.31.31,0,0,1-.29.09,1.47,1.47,0,0,0-.61,0q-.47.11-.3,0c.08-.05,0-.13-.09-.16s-.24,0-.24.06,0,.11-.21,0-.76-.06-.57.12,0,0-.18-.05c-.66-.35-2.5-.31-2.51.06,0,.07-.1.1-.23.06a11.67,11.67,0,0,0-1.55-.11,5.42,5.42,0,0,1-1.4-.16c-.06-.08-.2-.08-.47,0s-.34.1-.18,0,0-.12-.48-.1a2.53,2.53,0,0,0-.83.12c-.1.05-.17,0-.17-.05s-.17-.06-.48.08l-.46.23-.51-.21c-.52-.21-1.21-.22-.93,0,.12.09.07.09-.17,0a2.28,2.28,0,0,0-1.36,0c-.42.06-.63.05-.76-.05s-.19-.1-.19,0-.11.1-.48,0c-.53-.13-1.25-.07-1,.09s0,.1-.09.1-.24-.08-.24-.16-.09-.13-.44-.06a.87.87,0,0,1-.8-.12c-.25-.16-.32-.17-.23-.05s0,.17-.46.16a1.34,1.34,0,0,0-.69.12c-.09.08-.18.08-.35,0s-.22-.15-1.75.15c-.12,0-.15,0-.06-.14s.11-.17-.14,0-1.18.12-.92-.05c.08-.06,0-.05-.25,0s-.4.11-.35,0-.07-.15-.24-.18-.26,0-.14.08.09.12-.22.06-.38,0-.26.1.1.15-.14,0a2.32,2.32,0,0,0-.77-.13c-.35,0-.39,0-.15.08s.2.12-.22.21-.52.09-.41-.09,0-.2-.8-.21a2.92,2.92,0,0,0-1.24.15c-.22.12-.31.12-.31,0s-.35-.13-1.63-.09c-1.12,0-1.62,0-1.62-.06s-.61-.12-.87.1-.26.16-.27.09-.11-.1-.27-.06-.2,0-.11,0,0-.13-.06-.16a.65.65,0,0,0-.5.15c-.4.32-.4.32-.79.16-.81-.33-1.05-.4-1.05-.32s-.22.09-.49.09c-.68,0-.79.08-.43.28s.26.16,0,.06a2.62,2.62,0,0,0-.8-.13c-.46,0-.46,0,0,.15s.45.15,0,.14a.82.82,0,0,1-.59-.18c-.1-.18-1.09-.29-1.1-.13s-.31.09-.7.09-.65,0-.58.08a1.44,1.44,0,0,0,.65,0c.4,0,.46,0,.26.06a1.77,1.77,0,0,1-.57.14,4,4,0,0,0-.62.09c-.18,0-.3,0-.3,0s.11-.1.27-.09.2-.07.12-.15,0-.18.21-.21.34-.09.34-.15-.13-.06-.33,0a1.06,1.06,0,0,1-.57,0c-.14,0-.25,0-.25.05s-.07.09-.18.06-.75.18-.58.26,0,.06-.23.06a.78.78,0,0,1-.48-.15c-.09-.11-.29-.12-.8-.07-.73.08-1.53-.05-.92-.14.17,0-.08-.05-.54,0-.66,0-.8,0-.61.13s.14.12-.15.07-.38,0-.38,0,.14.12.29.14,0,.05-.34.05-.59,0-.53-.08,0-.1-.23-.14-.34,0-.34,0a5.73,5.73,0,0,1-1.26.05,3,3,0,0,0-1.13.06,1.33,1.33,0,0,0,.59,0c.35,0,.41,0,.22.06a1.41,1.41,0,0,1-.85,0c-.77-.16-.89-.15-.74,0s0,.12-.33.08a2.2,2.2,0,0,1-.57-.14.79.79,0,0,0-.46,0c-.2,0-.34,0-.34,0a3.92,3.92,0,0,0-1.81.13c-.29.07-.52.1-.49.05.09-.2,0-.25-.35-.15s-.35.09-.35.05-.14,0-.34,0-.31.15-.26.19-.11.06-.36.06c-.55,0-.55-.05,0-.23.3-.1.21-.1-.34,0a4.88,4.88,0,0,0-.89.24c-.1.07-.29.07-.6,0s-.43-.08-.39,0-.23.12-.82.11-.8,0-.52.09.08.11-.86.12c-1.81,0-1.81,0-2,.26a.42.42,0,0,1-.46.16c-.22,0-.3,0-.28.19a.42.42,0,0,0,.33.31c.42.07.34.26-.12.26s-.34,0,0,.09.26.1.14.1-.08.06.09.15.22.14-.13.08-.37-.05,0,.13a1.55,1.55,0,0,0,.57.18.69.69,0,0,1,.38.15c.22.16.17.17-.31.13-.31,0-.56,0-.56.05s.67.24,1,.16c.14,0,.17,0,.08,0a1.53,1.53,0,0,1-.62.11c-.24,0-.45,0-.45.08a2.87,2.87,0,0,0,1,.06c1,0,1,0,.22.07a1.73,1.73,0,0,0-.76.19c0,.06-.16.08-.33,0a1.24,1.24,0,0,0-.68.08,2.4,2.4,0,0,1-.69.13.7.7,0,0,0-.51.19.32.32,0,0,1-.31.15,1.4,1.4,0,0,0-.51,0c-.26.07-.27.09,0,.1s.25,0,0,.13A3.28,3.28,0,0,1,30,357a4,4,0,0,0-1.09.16c-.36.13-.47.14-.47,0s-.12-.07-.39.07a10.93,10.93,0,0,1-2.86.42c-.19,0-.37.1-.39.2-.05.26-.24.31-1.54.43a8.1,8.1,0,0,0-1.62.28,1,1,0,0,1-.79.07c-.18-.06-.31-.06-.31,0s-.28.07-.61,0-.58,0-.46.11,0,.16-.15.16-.06.05.23.1.52.15.52.22.08.08.23,0,.26-.13.52,0,.21.12,0,.07-.3,0-.3,0-.15.08-.32.05a.54.54,0,0,0-.43.07c-.15.16.18.4.45.33a1.14,1.14,0,0,1,.51,0c.2.06,0,.1-.66.14a2.62,2.62,0,0,0-1,.15c0,.06.08.08.21.05a.77.77,0,0,1,.49.1,1.47,1.47,0,0,0,.72.1c.3,0,.42,0,.42.11s.1.13.22.1a.53.53,0,0,1,.36.05,2.77,2.77,0,0,0,.92.12,2.64,2.64,0,0,1,1,.13,1.13,1.13,0,0,0,.47.14c1,0,1,.05.87.24s-.06.2.26.21l.88.07c.26,0,1.82.09,3.47.14l3.29.1c.71,0-.34.26-1.28.28-.16,0-.29.05-.29.09s-.08.07-.2,0a.38.38,0,0,0-.33.07c-.13.15-.71.15-1.39,0a1.57,1.57,0,0,0-.75,0,1,1,0,0,1-.5.06,1.72,1.72,0,0,0-.73.09c-.42.11-.62.12-.68,0s-.18-.09-.42,0-.32.07-.32,0-.15,0-.35,0a1.64,1.64,0,0,1-.7.06c-.2,0-.3,0-.22,0s-.08.1-.37.09a15.43,15.43,0,0,0-2.76.3c-.25.08-.29.07-.16,0s.07-.12-.07-.12-.26.07-.27.17-.06.12-.13,0-1-.18-1,0-.06.09-.13.06a10.61,10.61,0,0,0-1.56.07l-1.74.13c-.15,0-.29.08-.3.16s-.07.12-.33,0-.33-.18-.79,0a3.21,3.21,0,0,1-1.36.18c-1.17,0-1.56.06-1.1.26s.35.35,0,.34c-.12,0-.22-.07-.22-.14s-1.13-.32-1.23-.2a2.06,2.06,0,0,1-.74,0c-.42,0-.69,0-.69.07s.06.13,1,.17a1.91,1.91,0,0,0,.64,0s.15-.06.35-.06c.47,0,.41.24-.07.29-.23,0-.12.05.28.06s.61,0,.42.12a1.12,1.12,0,0,1-.8,0,2.5,2.5,0,0,0-1-.09c-.59.07-.23.18.89.25s1.11.08.69.31-.35.19-.35,0-.12-.21-.29-.19-.26.09-.23.15-.15.12-.41.11-.47.05-.48.11-.08.08-.32,0-.34-.09-.44,0,0,.17.26.2.22.05-.15.05-.51,0-.41-.14-.06-.19-.55-.05c-.26.07-.28.11-.07.15.53.1.31.24-.27.18a1.94,1.94,0,0,0-1,.12l-.48.19.12-.38c.06-.2,0-.4-.08-.43s-.27.07-.31.45c0,.1-.17.18-.33.18a1.85,1.85,0,0,0-.72.16,2.86,2.86,0,0,1-.6.17l-.43,0c-.13,0-.24.07-.24.14s-.37.12-.85.13A5.79,5.79,0,0,0,2,366.5a2.82,2.82,0,0,1-1.73.27c-.18-.08-.26-.08-.26,0s.11.12.26.12.21.09.14.2,0,.2.3.2a1.23,1.23,0,0,1,.57.11c.08.05,0,.09-.23.09-.66,0-.16.17.7.25.44.05.75.12.68.16s.3.12.85.16c1.29.11,1.14.09,5.3.5,2,.2,4.13.36,4.78.37a15.82,15.82,0,0,1,2.09.18,5.63,5.63,0,0,0,1.21.13,5.79,5.79,0,0,1,1,.06c.72.1,5,.43,5.72.44.26,0,.35,0,.24-.11s-.11-.11.18,0c.64.23,2.7.35,12.91.76,5.61.22,19.1.47,21,.38a10,10,0,0,1,2.12.05,2.59,2.59,0,0,0,.94,0,21.15,21.15,0,0,1,2.27-.06c1.08,0,2.33,0,2.79-.05a2.34,2.34,0,0,1,1.19.1c.4.17.5.19.71.1Zm150.36.56a1.12,1.12,0,0,1,.45,0c.18,0,.12.05-.14.06s-.39,0-.31-.06Zm19.22-.25a1.07,1.07,0,0,1,.44,0c.18,0,.12.05-.14.06s-.38,0-.3-.06Zm5.09-1.94c-.26-.07-.16-.1.41-.09s.7,0,.62.1a1.38,1.38,0,0,1-1,0ZM12.19,365.37a1,1,0,0,1,.42-.09c.17,0,.14,0-.08.1-.44.11-.52.11-.34,0Zm3.12-.19s.1-.07.24-.11.23,0,.23.05-.12.11-.24.11-.23,0-.23-.05Zm-.87-.3c-.33-.18,0-.31.58-.21.22,0,.29,0,.19-.06s-.06-.08.1,0,.26,0,.27-.1.05-.14.19,0a1.11,1.11,0,0,0,.41.14c.11,0,.34,0,.49.05a3.46,3.46,0,0,0,.73,0c.31,0,.4,0,.31.09a1.78,1.78,0,0,1-1.41,0c-.18-.15-.26-.14-.74.09-.63.29-.75.3-1.12.11Zm-1.8,0c-.1-.07,0-.09.24,0a.69.69,0,0,0,.53-.07.32.32,0,0,1,.33-.09c.34.09.24.22-.2.26-.67.07-.72.07-.9-.06Zm6.39-.08s.14-.08.34-.08.29,0,.22.09a.7.7,0,0,1-.35.08c-.13,0-.22,0-.21-.09Zm-5.93-.44c.14-.18.33-.29.4-.23a1.29,1.29,0,0,0,.6,0c.24,0,.37,0,.27,0s-.06.14.11.22.21.14-.23,0c-.72-.17-1-.15-1,.08a.2.2,0,0,1-.21.19c-.12,0-.1-.15,0-.35Zm5.47.23c0-.05.12-.1.26-.1s.18,0,.1.1a.5.5,0,0,1-.25.1.1.1,0,0,1-.11-.1Zm1.17,0s.1-.07.23-.1.23,0,.23,0-.11.1-.23.1-.23,0-.23,0Zm-3-.1c-.3-.09-.29-.1,0-.1a1.24,1.24,0,0,1,.53.11c.17.13-.13.12-.57,0Zm-1.15-.36c0-.15.22-.17.79-.07s.44.21-.23.2c-.33,0-.57-.06-.56-.13Zm13.87.17c0-.08.46-.12.56,0s0,.08-.22.08a1,1,0,0,1-.34,0ZM14.66,364s.11-.09.25-.09.17,0,.09.1a.6.6,0,0,1-.24.09.09.09,0,0,1-.1-.1Zm13.39,0s.11-.1.24-.12.26,0,.25.07.19.12.41.15.11,0-.24,0-.66-.08-.66-.13Zm-11.52-.12.56-.17c.42-.12.44-.12.14,0a1.36,1.36,0,0,1-.56.17c-.13,0-.2,0-.14,0Zm18.17,0c-.19-.23-.18-.24.31-.23s.45.11.26.37c-.07.09-.45,0-.57-.14ZM34,364c.1-.06,0-.07-.3,0-1,.15-1.26.16-1.13,0a4,4,0,0,1,1.91,0c0,.06-.07.11-.27.1s-.29,0-.21-.1Zm-15.77-.16a.85.85,0,0,1,.47,0c.47.09.42.15-.13.14-.27,0-.42-.05-.34-.1Zm21,0c0-.07.08-.13.18-.13a.38.38,0,0,1,.28.14c.06.07,0,.13-.18.13s-.28-.06-.28-.14Zm.9-.2a1.41,1.41,0,0,1,.62.13c.34.15.32.15-.25,0-.35-.07-.52-.14-.37-.16Zm-17.4-.1c0-.09.11-.13.25-.09s.17.11.1.16-.35.1-.35-.07Zm-.8.05c-.08-.06,0-.1.09-.1a.81.81,0,0,1,.37.1c.08.06,0,.1-.09.1a.81.81,0,0,1-.37-.1Zm19.11,0c-.09,0-.17,0-.17-.09s.11-.11.42,0,.41.18.41.27,0,.16-.24,0a.64.64,0,0,0-.42-.14Zm-8.23.05c-.18-.13.13-.12.56,0s.3.1,0,.1a1.12,1.12,0,0,1-.53-.1Zm15.15,0c0-.12.15-.2.35-.2s.34.08.34.16-.11.13-.24.09-.23,0-.23,0a.1.1,0,0,1-.11.1c-.07,0-.11-.08-.11-.19Zm-3.16-.16c.08-.08.13-.05.13.06s-.05.16-.12.13a.12.12,0,0,1,0-.19Zm205.83,2.7a.93.93,0,0,1,.45,0c.18,0,.12.06-.14.06s-.39,0-.31-.05ZM44.07,363.38a.64.64,0,0,1,.43-.09c.07,0,0,.1-.23.15-.49.12-.55.1-.2-.06ZM249.22,366s.1-.07.23-.11.23,0,.23,0-.11.11-.23.11-.23,0-.23-.05Zm-199.6-2.66a.57.57,0,0,1,.46,0c.15.07.07.1-.23.1s-.39,0-.23-.1Zm2.65,0c-.44-.08-.44-.09,0-.09a1.48,1.48,0,0,1,.65.11c.17.12-.06.11-.7,0Zm-5.2,0a1.1,1.1,0,0,1,.37-.09c.2,0,.3,0,.22,0s-.59.14-.59.06Zm-1-.16c-.07-.06.07-.07.33,0,.55.07.62.14.13.14a1.17,1.17,0,0,1-.46-.1ZM31.28,363a2.34,2.34,0,0,1,.59,0c.16,0,0,.05-.29.05s-.46,0-.3-.06Zm1.42-.23c.17-.08.26-.08.26,0s-.27.24-.42.17,0-.1.16-.16Zm16.84.25c-.18-.12.59-.19,1.14-.1s.4.08-.13.12l-.74.06a.38.38,0,0,1-.27-.08Zm-11.25-.14c0-.13.27-.21.49-.15s0,.24-.27.24c-.13,0-.22,0-.22-.09Zm-3.85-.11a.16.16,0,0,1,.18-.15c.26,0,.46.16.28.24s-.47.06-.46-.09Zm41.79.28a.1.1,0,0,1,.1-.09.47.47,0,0,1,.24.1c.08.05,0,.1-.1.1s-.24-.05-.24-.11Zm-35.86-.57s-.17-.08-.39-.09-.29,0,.11-.1,1.46,0,1.45.13-.42.15-.88.14c-.16,0-.29,0-.29-.08Zm29.79.33a2.25,2.25,0,0,1,.58,0c.17,0,0,.05-.29,0s-.46,0-.29-.05Zm-26.61-.41c-.16-.19.47-.28,1-.15.34.09.34.1,0,.1s-.41,0-.41.1-.4.11-.53-.05Zm-1.41.06c-.34-.06-.33-.08,0-.2s1-.16,1,0-.1.08-.22,0-.17,0-.09.1-.1.19-.71.08Zm-4.46-.06a1.06,1.06,0,0,1,.44,0c.18,0,.12.05-.15.06s-.37,0-.29-.06Zm-4.7-.2c0-.19.72-.41,1-.29s.16.09.07.06-.78.15-.64.26,0,.08-.13.08-.25-.05-.25-.11Zm216,2.68c.29-.08.29-.09,0-.1s-.27,0-.2-.06.68.07.53.17a.89.89,0,0,1-.41.09c-.16,0-.13-.05.07-.1Zm1.16-.29c0-.12.08-.18.16-.15.24.11.27.36,0,.36a.21.21,0,0,1-.2-.21Zm-.8-.19a.72.72,0,0,1,.36-.1c.12,0,.21.05.21.11s-.16.09-.36.09-.29-.05-.21-.1ZM21.07,360.13c.22-.09.67.06.5.17a.43.43,0,0,1-.4,0c-.13-.05-.17-.13-.1-.16Zm226.61,2.53s.1-.07.23-.11.23,0,.23.05-.11.11-.23.11-.23,0-.23,0Zm-221.77-4.9c.23-.09.26-.08.12.06s-.22.15-.29.12,0-.11.17-.18Zm227.92,2.8a1.07,1.07,0,0,1,.44,0c.18,0,.12.06-.15.06s-.37,0-.29-.06Zm.1-.2a2,2,0,0,1,.59,0c.16,0,0,.05-.29,0s-.46,0-.3-.05ZM32.35,356.48c.08-.05.16-.08.19-.06l.38.23c.32.18.31.18-.19.06-.29-.07-.46-.17-.38-.23Zm13.52-.2s.1-.09.23-.09a.69.69,0,0,1,.36.1c.07.06,0,.1-.23.1s-.36-.05-.36-.11Zm209.28,2.33a1.82,1.82,0,0,1,.57,0c.15,0,0,.05-.29.05s-.44,0-.28-.05Zm-212.23-3.2c-.21-.1.78,0,1.12.06s.19.09-.32,0a5.12,5.12,0,0,1-.8-.11Zm-.85,0a.77.77,0,0,1,.38-.1c.13,0,.17,0,.09.1a.77.77,0,0,1-.38.1c-.13,0-.17-.05-.09-.1ZM34.56,355c0-.05.1-.08.23-.08s.23.05.23.1.12.08.28,0,.21,0,.1,0-.84,0-.84-.1Zm7.19-.33a.92.92,0,0,1,.35-.09c.19,0,.34,0,.34.05s-.15.09-.35.09-.34,0-.34-.05ZM34,354.56c-.08-.06,0-.1.1-.1s.24.05.24.1a.09.09,0,0,1-.1.1.47.47,0,0,1-.24-.1Zm7,0c-.14-.1,1-.24,1.2-.15s0,0-.26,0-.38,0-.39.1-.38.12-.55,0Zm-6.77-.39c0-.11.17-.16.35-.13s.38.16.13.26-.52.06-.48-.13Zm21.67.27c0-.1.62-.19.8-.12s.15.19-.34.2c-.26,0-.46,0-.46-.08Zm-18.14-.23c-.08,0,0-.1.1-.09s.24,0,.24.1a.09.09,0,0,1-.1.09.47.47,0,0,1-.24-.1Zm-2.43-.07s.1-.07.23-.1.23,0,.23,0-.1.1-.23.1-.23,0-.23,0ZM199.18,356a.47.47,0,0,1,.36,0c.13,0,.16.1.08.15a.41.41,0,0,1-.35,0c-.13,0-.17-.09-.09-.15ZM184,355.89c-.11,0-.21-.05-.2-.11s.1-.07.23,0,.23,0,.23,0-.09-.11-.22-.13c-.28-.05,0-.57.3-.56.13,0,.16.1.08.23s-.09.24.33.21.44,0,.21.1-.22.22-.14.3,0,.15-.24.1a3.74,3.74,0,0,0-.58-.07Zm40.73.43c-.19-.06-.24-.11-.1-.1a2.36,2.36,0,0,1,.57.1c.19.06.24.1.1.1a3,3,0,0,1-.57-.1Zm-.93,0s.1-.07.23-.1.23,0,.23,0-.11.11-.23.1-.23,0-.23,0Zm-19.06-.31a.81.81,0,0,1,.41-.08c.18,0,.15,0-.08.09-.44.12-.52.11-.33,0ZM202,356a.92.92,0,0,1,.51-.13c.32,0,.31,0-.07.14-.58.17-.62.17-.44,0Zm-4,0c-.08-.06.08-.1.39-.1s.48,0,.19.1-.42.11-.58,0Zm-3.58-.1c0-.08-.12-.15-.28-.15s-.2,0-.12-.07.86.16.86.29-.11.08-.24.08-.23-.07-.22-.15Zm43.27.42c-.32-.26-.31-.27.2-.26a1,1,0,0,1,.58.13c.06.07,0,.13-.17.13s-.16,0,.06.09.29.1,0,.1a1.18,1.18,0,0,1-.63-.19Zm-5.34-.09s.15-.09.35-.09.28.06.2.16-.55.09-.55-.07Zm-5.4,0c-.07-.09,0-.15.07-.15a.51.51,0,0,1,.33.15c.07.09,0,.15-.07.15a.53.53,0,0,1-.33-.15ZM201,355.81c.16-.11.8-.11.8,0s-.27.2-.6.14c-.17,0-.27-.1-.2-.14Zm-24.95-.27c.08-.09.18-.13.24-.1s0,.09,0,.15-.36.12-.2,0Zm63.56.79a9.21,9.21,0,0,1,1-.1c.68,0,.89,0,.8.06a2.54,2.54,0,0,1-1,.1,3,3,0,0,1-.8-.06Zm-4.28-.14s.15,0,.35,0,.35,0,.36,0,.12-.07.25,0,.16.09,0,.14-.92,0-.92-.08ZM224.19,356c-.36-.16.53-.11,1.37.08l.68.15-.91-.06a5.09,5.09,0,0,1-1.14-.17Zm-2,0a1.38,1.38,0,0,1,.31-.07c.17,0,.3,0,.3.09s-.13.1-.31.07a.71.71,0,0,1-.3-.09Zm-8.79-.1c0-.08.19-.14.41-.14s.28,0,.11.06-.24.09-.17.14,0,.09-.11.08-.25-.06-.24-.14Zm-107.79-1.28s.1-.07.24-.1.23,0,.23,0-.11.1-.24.1-.23,0-.23,0ZM231,356.16a2.39,2.39,0,0,1,.58-.08c.31,0,.57,0,.57.05s-.27.08-.57.08a2.06,2.06,0,0,1-.58,0Zm-1.28-.12c.08-.24.34-.27.72-.11s.3.16-.18.19l-.57.05s0-.05,0-.13Zm-4.17-.1c-.6,0-.93-.29-.43-.37a3.21,3.21,0,0,1,.62,0c.19,0,.14.06-.12.06-.54,0-.25.2.3.21a.94.94,0,0,1,.57.18c.12.14.1.15-.14.05a2.52,2.52,0,0,0-.8-.13Zm-11.14,0a1,1,0,0,1,.45,0c.18,0,.12.05-.15.06s-.38,0-.3-.06Zm-2.37-.08c.8-.09,1.41-.08.82,0a7.41,7.41,0,0,1-.93.07c-.38,0-.35,0,.11-.09Zm-16.6-.16a.93.93,0,0,1,.45,0c.18,0,.12.06-.14.06s-.39,0-.31-.05Zm-20.23-.27a1.82,1.82,0,0,1,.57,0c.16,0,0,.06-.29.05s-.44,0-.28-.05ZM35.06,353.59a.1.1,0,0,1,.11-.1.57.57,0,0,1,.25.1c.08.06,0,.1-.11.1s-.25-.05-.25-.1Zm207.16,2.51c-.08-.09,0-.18.21-.21s.29-.09.22-.14a5.42,5.42,0,0,1,1.88.15c.16.08.07.08-.31,0-.68-.09-1.45,0-1.45.18s-.39.17-.55,0Zm-51.76-.7c.35,0,.5-.08.42-.16s.05-.14.36-.14.45,0,.1.16a1,1,0,0,0-.39.23s-.23.05-.51,0l-.52-.07.54,0Zm-1.64.09a3.23,3.23,0,0,1,.69,0c.22,0,.09.05-.29.05s-.56,0-.4-.06Zm47.77.53a.92.92,0,0,1,.45,0c.18,0,.12.06-.15.06s-.38,0-.3-.05Zm-34.11-.45a2.18,2.18,0,0,1,.57,0c.15,0,0,.05-.29.05s-.44,0-.28-.06Zm-8.83-.29c.08-.32.16-.35.58-.23s.27.09-.06.09-.35.05-.27.19,0,.2-.1.2-.19-.11-.15-.25ZM41.32,353.4c0-.11.47-.16,1.33-.13a.57.57,0,0,0,.42-.18c.13-.17.18-.17.51,0s.4.14.56,0,.19-.09.19,0-.29.18-1,.21a5.82,5.82,0,0,0-1.15.13c-.19.13-.82.07-.82-.07Zm-3.58,0c-.07-.06,0-.1.1-.1s.25.05.24.1a.09.09,0,0,1-.1.1.65.65,0,0,1-.24-.1Zm169.31,2.07c-.07-.05,0-.1.23-.1s.31.05.23.1a.31.31,0,0,1-.46,0Zm-9.32-.08a.94.94,0,0,1,.45,0c.18,0,.12.06-.14.06s-.39,0-.31-.05Zm-.55-.17c.17-.07.26-.08.26,0s-.28.24-.43.17,0-.1.17-.16Zm-10.48,0c-.08-.06,0-.1.1-.1s.24.05.24.1a.1.1,0,0,1-.1.1.59.59,0,0,1-.24-.1Zm-10.42-.14a2.15,2.15,0,0,1,.77-.08l.63,0-.7.07-.77.08s0,0,.07-.09Zm-3.12,0c0-.06.08-.1.18-.1l.75-.05.58-.05-.58.15c-.69.17-.93.18-.93.05ZM45,353.32c.15-.22.55-.25,1-.06.23.1.27.1.14,0s0-.1.2-.06.32,0,.22-.09,0-.16.22-.16c.54,0,.18.39-.41.44l-.95.07-.51.05s0-.08.08-.19Zm194.24,2.5c-.08-.06,0-.08.23,0,.4.07.47.15.13.14a.69.69,0,0,1-.36-.1Zm-3.7-.15a.56.56,0,0,1,.39,0c.16,0,.13.09-.07.14-.35.09-.52,0-.32-.11Zm-39.83-.37a1.09,1.09,0,0,1,.45,0c.17,0,.11.06-.15.06s-.38,0-.3-.05Zm-5.62-.16c0-.09.05-.15.1-.15a.36.36,0,0,1,.23.15c.07.08,0,.15-.1.15s-.23-.07-.23-.15Zm-25-.27a.1.1,0,0,1,.11-.1.5.5,0,0,1,.25.1c.07.05,0,.1-.11.1s-.25-.05-.25-.1Zm62.81.7c-.07-.05,0-.1.24-.1s.3,0,.23.11a.66.66,0,0,1-.24.09.48.48,0,0,1-.23-.1Zm-60.25-1c0-.05.11-.1.25-.1s.17.05.09.1a.51.51,0,0,1-.24.1.09.09,0,0,1-.1-.1ZM58.07,353.14a.83.83,0,0,0-.52-.13,2.7,2.7,0,0,1-.66-.06c-.19-.05-.23,0-.14.08s0,.15-.37.15-.45-.05-.33-.13.06-.09-.21,0a1.92,1.92,0,0,1-.79.06c-.35-.06-.36-.08-.06-.16s.23-.09.07-.09a.83.83,0,0,0-.4.08,3.42,3.42,0,0,1-1.41.1,17.14,17.14,0,0,1,3.7-.41c.7,0,.7,0,.06,0s-.6.08-.22.18,1.43.05,1.43-.09-.11,0-.26,0-.2,0-.1,0,.28-.08.63,0c.54.16.55.24,0,.32-.33,0-.34.07-.06.15s.25.1,0,.1a.7.7,0,0,1-.43-.16ZM50.41,353c-.06-.12,0-.12.16,0s.24.11.24,0,.27-.12.6-.11.53,0,.46.1a.87.87,0,0,1-.48,0c-.19,0-.34,0-.34.06s-.53.06-.64-.12Zm-2.67.1a2.34,2.34,0,0,1,.59,0c.17,0,0,0-.29,0s-.46,0-.3-.05ZM38.39,353a1.24,1.24,0,0,1,.44,0c.18,0,.12.06-.14.06s-.38,0-.3,0Zm189.89,2.24a1,1,0,0,1,.45,0c.18,0,.12,0-.14,0s-.39,0-.31,0Zm-34.87-.57a.82.82,0,0,1,.4-.1c.16,0,.14.06,0,.15s-.61.11-.36-.05Zm-24.57-.25a.76.76,0,0,1,.49-.13c.35,0,.35,0,0,0s-.33.06-.07.13.23.1-.1.09-.38,0-.33-.12ZM61.26,352.88c.74-.3,1.32-.27.78,0a1.91,1.91,0,0,1-.88.21c-.48,0-.48,0,.1-.25Zm171.31,2.29a2.18,2.18,0,0,1,.57,0c.15,0,0,.05-.29.05s-.44,0-.28-.06Zm-3.29-.17a.66.66,0,0,0-.49-.2c-.2,0-.29-.05-.2-.11s.27-.07.51,0a2,2,0,0,0,1.05.08c.82-.09,1.23-.23.47-.16-.29,0-.53,0-.53,0s.26-.09.57-.09.55.06.52.2a.17.17,0,0,1-.2.15,2.88,2.88,0,0,0-.8.06l-.63.11.55.08c.55.07.55.07-.07.08-.42,0-.66-.06-.75-.2ZM97.71,353.44a2.34,2.34,0,0,1,.59,0c.16,0,0,.05-.29.05s-.46,0-.3-.06ZM70,353c-.44,0-.55-.11-.17-.2.13,0,.22,0,.22,0s.26.07.57.05.57,0,.57.05-.29.22-.55.13A2,2,0,0,0,70,353Zm-10.77-.16c-.05-.08.14-.12.49-.12.62,0,.95.13.67.25a1.83,1.83,0,0,1-1.16-.13Zm-14.63-.06s.1-.07.23-.1.24,0,.23.05-.11.1-.23.1-.23,0-.23-.05ZM228.28,355a1.16,1.16,0,0,1,.46,0c.18,0,.12.06-.15.06s-.38,0-.31-.06ZM65.76,352.9c-.06,0,0-.1.19-.13.34,0,.6,0,.6.15s-.63.1-.79,0Zm-17.32-.36c-.2,0-.2,0,0-.06a.94.94,0,0,1,.75,0c.27.08.42.18.34.21a.87.87,0,0,1-.48-.09,1.05,1.05,0,0,0-.61-.09ZM246.68,355c.42,0,.71-.06.63-.11s0-.09.09-.09a.38.38,0,0,1,.32.18c.08.14,0,.16-.85.11s-.91-.06-.19-.09ZM180,354.17a2,2,0,0,1,.64,0c.3.08,1.34-.06,1.2-.16s0-.09.09-.09a.69.69,0,0,1,.39.12c.17.11-.37.28-.65.2-.11,0-.18,0-.18,0a3.13,3.13,0,0,1-1,0c-.75,0-.87-.07-.51-.12ZM159.83,354c-.27,0-.33,0-.17,0a2.78,2.78,0,0,1,1.81.05c.1.12,0,.12-.55,0a4.76,4.76,0,0,0-1.09-.05Zm47.7.58a.79.79,0,0,1,.48,0c.48.08.42.13-.13.13-.27,0-.42-.05-.35-.1Zm-12.38-.11a1,1,0,0,1,.33-.15c.25-.08.38-.08.51,0s.07.09-.1,0-.28,0-.28,0-.11.11-.23.1-.23,0-.23,0Zm-1.49-.08a1.19,1.19,0,0,1,.49-.09c.2,0,.28.05.2.1a1,1,0,0,1-.49.1c-.2,0-.28-.05-.2-.11Zm-1.92-.09a2.56,2.56,0,0,0-.79-.13c-.27,0-.43,0-.36-.06a5.61,5.61,0,0,1,2.12.23c.15.18-.52.15-1,0Zm-4.67,0s.17-.13.4-.2.38-.12.2,0-.16.12.11,0a2.75,2.75,0,0,1,.9-.11c.57,0,.58,0,.13.12s-.29.12.92.19,1.17.08-.64.05a18.66,18.66,0,0,1-2-.09Zm-1.46,0a2.81,2.81,0,0,1,.58,0c.17,0,.05.05-.28,0s-.46,0-.3-.05Zm-8.61-.13a3.35,3.35,0,0,0-.68-.15c-.25,0,.22,0,1.06,0a12.93,12.93,0,0,0,1.75,0c.13,0,.23,0,.23.08s-.26.11-.89.08a2.2,2.2,0,0,0-.9,0c0,.12-.3.13-.57,0Zm-6.82-.07a1.81,1.81,0,0,0,.47-.12.56.56,0,0,1,.41.07c.25.11.18.13-.46.12-.42,0-.61-.05-.42-.07Zm-1.16,0a.92.92,0,0,1,.35-.09c.2,0,.34,0,.34,0s-.15.09-.35.09a.78.78,0,0,1-.34,0Zm-1.19-.2c.45-.19,1-.15.95.06s-.32.12-.69.12c-.69,0-.69,0-.26-.18Zm-3.32,0a.7.7,0,0,1,.42.07c.22.1.19.11-.14.06s-.35-.1-.28-.13Zm-8.68,0s.1-.06.23-.1.23,0,.23.05-.11.1-.23.1-.23,0-.23,0Zm-57.46-.85c.69-.13.69-.13.07-.09s-.6,0-.5-.09a.49.49,0,0,1,.4-.11l.9.11c.35,0,.62.11.62.16s-.16.07-.33,0a2.44,2.44,0,0,0-.75,0,4.42,4.42,0,0,1-.76.1c-.19,0,0-.07.35-.15Zm-22.92-.22a1.17,1.17,0,0,1,.6,0c.63.07.57.13-.14.12-.33,0-.53-.05-.46-.09Zm159.48,1.94a2.87,2.87,0,0,1,.71-.08c.24,0,.2,0-.11.08-.64.11-1,.11-.6,0Zm-3.33,0c-.08-.05,0-.1.23-.1s.31.05.23.1a.31.31,0,0,1-.46,0Zm-48.11-.62a.46.46,0,0,1,.35-.05c.12,0,.21,0,.21-.05s.06-.1.14-.06-.12.27-.49.26c-.2,0-.29-.05-.21-.1Zm-9.23-.14a.77.77,0,0,1,.33-.07c.13,0,.21,0,.21.08s-.16.08-.33.08-.28-.05-.21-.09Zm-17-.26a1.64,1.64,0,0,1,.47,0c.26,0,.46,0,.46.1s-.2.06-.47,0a1.73,1.73,0,0,1-.46-.1Zm-13.72-.16a.79.79,0,0,1,.52-.15c.33,0,.34,0,0-.1s-.18-.09.33,0c.85.09,1,.15.46.15a3.91,3.91,0,0,0-.89.13c-.58.18-.62.18-.46,0Zm-19.74-.27c-.05-.07.13-.09.5-.06s.52.1.44.15a1.17,1.17,0,0,1-.94-.09Zm-1.54.08c-.2,0-.37-.16-.36-.28s.06-.17.18,0a1.45,1.45,0,0,0,.79.15c.51,0,.58,0,.37.11a1.28,1.28,0,0,1-1,.07Zm-1.76-.12a.68.68,0,0,1,.34,0c.2,0,.34,0,.34.09s-.15.07-.34,0a.94.94,0,0,1-.34-.1ZM102.64,353a.92.92,0,0,1,.35,0c.2,0,.35,0,.35.1s-.16.06-.35,0a.83.83,0,0,1-.35-.1Zm-15.15-.22a.79.79,0,0,1,.41.08c.23.1.21.11-.12.05s-.35-.1-.29-.13Zm-8.77,0c-.06-.05,0-.08.22-.08s.27,0,.2.08a.46.46,0,0,1-.21.09.5.5,0,0,1-.21-.09Zm166.39,2.08a3.49,3.49,0,0,1,.69-.07c.37,0,.62,0,.56.05a3.78,3.78,0,0,1-1.25,0Zm-5.25-.09a.84.84,0,0,1,.45,0c.18,0,.12.05-.14.05s-.39,0-.31-.05Zm-1.22,0c0-.1.7-.14.83-.05s-.09.09-.35.09a1.57,1.57,0,0,1-.48,0Zm-12.41-.26c-.08,0,.09-.06.35-.06s.49,0,.49.1-.58.08-.84,0Zm-19.15-.21a.89.89,0,0,1,.38-.09c.13,0,.17,0,.09.1a.89.89,0,0,1-.38.09c-.13,0-.17,0-.09-.1ZM197,354.16c0-.05.2-.06.46,0s.46,0,.46,0,.19-.08.41-.08.29,0,.12.06-.24.08-.19.12-.21.07-.58.06-.69-.05-.68-.1Zm-11.81-.11a1.79,1.79,0,0,1,.65,0c.17,0,.29,0,.25,0s0-.09.12-.11c.35,0,.61,0,.61.09s-.11.08-.23,0-.23,0-.23,0-.34.1-.76.09-.65,0-.41-.09Zm-5.53,0s.1-.06.23-.1.23,0,.23.05-.11.1-.23.1-.23,0-.23-.05Zm-16.31-.34a.68.68,0,0,1,.41.07c.23.1.2.11-.13.05s-.35-.09-.28-.12Zm-4,0c0-.08.1-.12.2-.09s.15.09.06.15-.26.1-.26-.06Zm-14.16-.13c.44-.12.75-.12.57,0a1.09,1.09,0,0,1-.54.09c-.33,0-.34,0,0-.09Zm-8.67-.1c-.06,0,0-.08.21-.07s.27,0,.21.08a.46.46,0,0,1-.21.08.53.53,0,0,1-.21-.09Zm-19.1-.3c-.24-.13-.22-.16.11-.15s.33,0,.22.11,0,.1.43.06a1.75,1.75,0,0,1,.75,0c.22.16-1.2.1-1.51-.06Zm-3.71,0s.2-.08.46-.07.47,0,.46.08-.2.07-.46.07-.46,0-.46-.08Zm-7-.14a2.27,2.27,0,0,1,1.21,0c.2,0,0,.07-.51.06s-.76-.05-.7-.09Zm-12.54-.15c-.07,0,.14-.08.45-.1s.53,0,.46.08a1.21,1.21,0,0,1-.91,0Zm158.61,1.8c.07,0,.2,0,.28.12s.09.16-.13.06-.22-.15-.15-.18Zm-86.55-1c0-.05.14-.07.34,0s.34.08.34.11a.78.78,0,0,1-.34,0c-.2,0-.34-.05-.34-.11Zm-31.16-.36a1.06,1.06,0,0,1,.44,0c.18,0,.12.05-.15.06s-.37,0-.29-.06Zm-8.27-.14a1.76,1.76,0,0,1,.91,0c.06,0-.15.07-.46.06s-.51,0-.45-.05Zm-61.11-.84a1.46,1.46,0,0,1,.78-.07c.37.07.35.08-.16.14-.91.09-1,.08-.62-.07Zm110.72,1.37c0-.11.85-.11,1,0s-.14.08-.44.08-.55,0-.55-.07Zm-2.66,0a.77.77,0,0,1,.38-.1c.13,0,.17,0,.08.1a.7.7,0,0,1-.37.1c-.13,0-.17-.05-.09-.1Zm-47.88-.62a.92.92,0,0,1,.41-.09c.18,0,.15,0-.07.09-.45.12-.53.12-.34,0Zm-52.16-.67c0-.05.12-.1.25-.09s.17,0,.09.1a.55.55,0,0,1-.24.09.09.09,0,0,1-.1-.1Zm106.52,1.28c-.08-.06,0-.1.1-.1s.24.05.24.1a.09.09,0,0,1-.1.1.59.59,0,0,1-.24-.1Zm-1.21,0a1.23,1.23,0,0,1,.44,0c.18,0,.12.06-.15.06s-.37,0-.29-.05ZM67.27,352.29s.1-.08.23-.11.23,0,.23.05-.11.11-.23.11-.23,0-.23,0ZM61,352.15a.11.11,0,0,1,.12-.09.5.5,0,0,1,.25.1c.07,0,0,.1-.12.1s-.25-.05-.25-.11Zm110.18,1.2c.07-.08.13-.05.14.06s-.05.17-.12.13-.09-.12,0-.19Zm-9.43-.06c-.24-.07-.34-.14-.23-.14a3,3,0,0,1,.67.15c.24.09.35.15.23.15a3.86,3.86,0,0,1-.67-.16Zm87.47,1a.4.4,0,0,1,.22-.14c.05,0,.09.06.08.15s-.1.15-.22.14-.16-.06-.08-.15Zm-18.78-.19a.81.81,0,0,1,.37-.09c.13,0,.17,0,.09.1a.89.89,0,0,1-.38.09c-.13,0-.17,0-.08-.1Zm-132-1.69c0-.05.12-.1.25-.1s.19.05.11.1a.5.5,0,0,1-.25.1.1.1,0,0,1-.11-.1ZM247,354.29c0-.09.46-.13.56-.05s0,.08-.22.08a1.15,1.15,0,0,1-.34,0Zm-8.55-.22c0-.08.11-.12.24-.08s.17.1.09.15-.33.11-.33-.07Zm-38.61-.43c-.26-.08-.28-.1,0-.1s.23-.05.15-.1,0-.07.22,0,.36.13.36.2-.2.17-.68,0Zm-2.34,0a1.27,1.27,0,0,1,.37-.1c.2,0,.3,0,.22,0s-.59.14-.59.06Zm-10.43-.17c.27,0,.27-.06,0-.13s-.17-.08.19-.07.43.06.25.15a1.17,1.17,0,0,1-.51.11c-.15,0-.12,0,.05-.06Zm-9.39-.18c.35-.05.64-.13.64-.18s.16,0,.33.05c.39.16.15.22-.84.22H177l.64-.09Zm-3.17,0c-.24,0-.34-.1-.22-.13a1.54,1.54,0,0,1,.66.08c.47.16.28.18-.44.05Zm24,.21c-.07-.06,0-.1.24-.1s.3.05.22.1a.48.48,0,0,1-.23.1.61.61,0,0,1-.23-.1Zm-1.85,0c-.24-.17,0-.21.36,0s.19.15,0,.15a.86.86,0,0,1-.4-.11Zm-4.62-.06c-.08-.05,0-.09.1-.09s.24,0,.24.1a.11.11,0,0,1-.1.1.63.63,0,0,1-.24-.11Zm-56.26-.68a1,1,0,0,1,.45,0c.18,0,.12.05-.15.05s-.38,0-.3-.05Zm73.88.76c-.08-.1-.05-.14.08-.1s.22.1.22.16-.16.11-.3-.06Zm-6.68,0a2.18,2.18,0,0,1,.57,0c.15,0,0,.05-.29.05s-.44,0-.28-.06Zm-55.47-.8a.79.79,0,0,1,.36,0c.19,0,.35,0,.34.09s-.15.07-.35,0a1,1,0,0,1-.35-.1ZM126,352.45c-.08-.09,0-.12.33-.08s.38.09.31.14a.53.53,0,0,1-.64-.06ZM92.19,352c.08-.09.19-.13.25-.1s0,.09,0,.15c-.25.15-.38.12-.21-.05Zm17.24.21a1.16,1.16,0,0,1,.46,0c.18,0,.12.06-.15.06s-.38,0-.31-.06Z"/><path class="cls-2" d="M246.62,369.7a1.07,1.07,0,0,0-.44,0c-.08,0,0,.06.29.05s.33,0,.15-.05Z"/><path class="cls-2" d="M7.44,365.42c.22-.06.25-.1.08-.1a1,1,0,0,0-.42.09c-.18.12-.1.12.34,0Z"/><path class="cls-2" d="M250.76,368.35c0-.06-.07-.11-.18-.15s-.19,0-.19.09a.16.16,0,0,0,.18.15c.12,0,.19,0,.19-.09Z"/><path class="cls-2" d="M10.33,364.91c.05-.06-.11-.17-.35-.24s-.38-.16-.31-.21-.09-.06-.37,0-.46,0-.34-.06,0-.1-.16-.07-.3.15-.27.27.06.28.07.34a3.27,3.27,0,0,0,1.73,0Z"/><path class="cls-2" d="M7.09,364.85c.28-.12.13-.22-.25-.16s-.32,0-.22-.05a2.84,2.84,0,0,1,.85-.16c1-.08.91-.32-.15-.28-.82,0-1.47.16-1.46.29a2.62,2.62,0,0,0,1.23.36Z"/><path class="cls-2" d="M252.43,367.2c0-.06-.1-.13-.23-.16s-.23,0-.23,0,.09.13.22.16.23,0,.24,0Z"/><path class="cls-2" d="M249.76,363c0-.08-.17-.16-.37-.16s-.32,0-.09.15a1.19,1.19,0,0,0,.37.15c.05,0,.09-.06.09-.14Z"/><path class="cls-2" d="M19.88,359.29c0-.06-.1-.1-.23-.1s-.23,0-.23.09.09.1.23.11.23,0,.23-.1Z"/><path class="cls-2" d="M251.58,361.8c.16,0,.29-.08.29-.13s-.6-.12-.92,0-.24.14,0,.14a4,4,0,0,0,.61-.05Z"/><path class="cls-2" d="M33,354.39c0-.12-.07-.14-.15-.07s-.06.16,0,.2.14,0,.13-.13Z"/><path class="cls-2" d="M256,355.39c.31-.15.23-.17-.32-.09-.2,0-.38.1-.38.14s.38.11.7-.05Z"/><path class="cls-2" d="M53.45,352a2.33,2.33,0,0,0-.59,0c-.16,0,0,0,.3,0s.46,0,.29,0Z"/><path class="cls-2" d="M58.7,351.87c0-.11-.06-.14-.13-.06s-.07.15,0,.18.13,0,.13-.12Z"/><path class="cls-2" d="M186,353.3c.25-.1.21-.23-.08-.23-.13,0-.18,0-.11.09s0,.11-.17.13-.18,0-.05.06a1.58,1.58,0,0,0,.41-.05Z"/><path class="cls-2" d="M182.69,353.21s-.2-.09-.46-.09a1.3,1.3,0,0,0-.47,0,1.53,1.53,0,0,0,.46.09c.27,0,.47,0,.47,0Z"/><path class="cls-2" d="M226.41,353.68c0-.06-.1-.08-.23-.05s-.23.08-.23.1.1,0,.23,0,.23,0,.23-.1Z"/><path class="cls-2" d="M223,353.67a1,1,0,0,0-.44,0c-.08,0,0,.05.29.05s.33,0,.15-.06Z"/><path class="cls-2" d="M217.27,353.58c.17-.11-.21-.23-.43-.14s-.19.22.08.23a.72.72,0,0,0,.35-.09Z"/><path class="cls-2" d="M90.92,352a1.11,1.11,0,0,0-.45,0c-.08,0,.06.06.31.06s.32,0,.14-.06Z"/><path class="cls-2" d="M89.84,351.93c.07-.05-.08-.09-.35-.1-.55,0-.61.05-.13.13a.79.79,0,0,0,.48,0Z"/><path class="cls-2" d="M85.16,351.78c.08-.11.09-.2,0-.2a.9.9,0,0,0-.33.19c-.15.11-.16.2,0,.2a.42.42,0,0,0,.33-.19Z"/><path class="cls-2" d="M175.75,353a.93.93,0,0,0-.35-.11c-.2,0-.29,0-.22,0s.57.15.57.08Z"/><path class="cls-2" d="M154.13,352.66a.47.47,0,0,0-.24-.1.1.1,0,0,0-.1.09c0,.06.11.1.24.1s.18,0,.1-.09Z"/><path class="cls-2" d="M103,351.73c.14-.13.11-.15-.12-.05s-.23.14-.17.17a.31.31,0,0,0,.29-.12Z"/><path class="cls-2" d="M87.46,351.63a1,1,0,0,0-.44,0c-.08,0,0,.05.29.05s.33,0,.15-.06Z"/><rect class="cls-3" x="6.62" width="243.38" height="170.52" rx="10.21"/><rect class="cls-4" x="186.12" y="26.49" width="34.92" height="19.53"/><rect class="cls-5" x="149.03" y="130.68" width="38.74" height="1"/><rect class="cls-5" x="191.47" y="130.68" width="32.6" height="1"/><rect class="cls-5" x="185.33" y="136.15" width="38.74" height="1"/><rect class="cls-5" x="205.35" y="141.15" width="18.72" height="1"/><rect class="cls-5" x="162.15" y="141.15" width="40.73" height="1"/><rect class="cls-5" x="149.03" y="136.15" width="32.6" height="1"/><rect class="cls-5" x="149.03" y="141.15" width="10.74" height="1"/><rect class="cls-5" x="149.03" y="146.7" width="38.74" height="1"/><rect class="cls-5" x="191.47" y="146.7" width="32.6" height="1"/><rect class="cls-5" x="185.33" y="152.17" width="38.74" height="1"/><rect class="cls-5" x="205.35" y="157.16" width="18.72" height="1"/><rect class="cls-5" x="162.15" y="157.16" width="40.73" height="1"/><rect class="cls-5" x="149.03" y="152.17" width="32.6" height="1"/><rect class="cls-5" x="149.03" y="157.16" width="10.74" height="1"/><path class="cls-6" d="M159.42,80.07A32.05,32.05,0,0,0,130.27,66l-7.65,1.58A32,32,0,0,0,101,101H111.3a21.77,21.77,0,0,1,39.63-15.2c.26.4.51.81.76,1.23a21.67,21.67,0,0,1,2.69,14h10.29a32.15,32.15,0,0,0-5.24-20.89Z"/><path class="cls-7" d="M95.54,87.32l6.4,1.83,10,2.84c.14-.47.29-.93.45-1.4a22,22,0,0,1,11.8-12.67l-7-15.57A39.09,39.09,0,0,0,95.54,87.32Z"/><path class="cls-4" d="M119.62,67.75l4.54,10.17a21.8,21.8,0,0,1,11.67-1.6l1.38-11a33.37,33.37,0,0,0-4.39-.29A32.83,32.83,0,0,0,119.62,67.75Z"/><path class="cls-8" d="M151.86,87.29a23.23,23.23,0,0,1,2.67,12.38h17c0-.57,0-1.15,0-1.73A38.56,38.56,0,0,0,168,81.72Z"/><path class="cls-5" d="M161.28,100.47H152a22.42,22.42,0,0,0,.09-4.33c0-.22,0-.44-.07-.66a21.57,21.57,0,0,0-2.39-7.89l-.16-.31a1.29,1.29,0,0,1-.06-.12c-.08-.14-.15-.28-.23-.41-.25-.43-.51-.85-.78-1.25A22.22,22.22,0,0,0,133,75.83a21.88,21.88,0,0,0-5.94,0c-.49.07-1,.14-1.47.24l-.52.11a22.71,22.71,0,0,0-3.57,1.12l-.45.19-.5.24a18.75,18.75,0,0,0-1.73.89,22.06,22.06,0,0,0-10.3,13.26,22.59,22.59,0,0,0-.69,8.62H98.5a31.15,31.15,0,0,1,1.07-11.16l-1-.27a32.27,32.27,0,0,0-1.07,12l0,.45H109l-.08-.57a21.27,21.27,0,0,1,10.42-21.44c.53-.31,1.08-.59,1.65-.86l.5-.23.41-.17a21.07,21.07,0,0,1,3.41-1.08l.49-.1c.47-.09.94-.17,1.41-.23a20.7,20.7,0,0,1,5.67,0,21.25,21.25,0,0,1,14.75,9.23c.26.39.51.79.75,1.21l.21.37.21.42A20.74,20.74,0,0,1,151,95.6l.06.62a21.61,21.61,0,0,1-.15,4.68l-.08.57h11.32l0-.45c.05-.44.08-.88.1-1.32l-1,0Z"/><path class="cls-5" d="M156.9,79.79a32.57,32.57,0,0,0-22.66-14.14l-.13,1A31.55,31.55,0,0,1,156,80.23l.09.13a31.67,31.67,0,0,1,2.16,3.78l.9-.43A31.45,31.45,0,0,0,157,79.94Z"/><polygon class="cls-5" points="117.05 69.06 117.05 69.06 117.05 68.06 117.05 69.06"/><path class="cls-5" d="M114.07,61.89a39.44,39.44,0,0,0-21.94,25.3l-.14.48,17.34,4.94.13-.48c.13-.46.28-.92.44-1.37a21.42,21.42,0,0,1,11.54-12.39l.45-.2-7.37-16.48ZM109,90.42c-.11.32-.22.64-.32,1L93.23,87A38.45,38.45,0,0,1,114,63l6.55,14.66A22.36,22.36,0,0,0,109,90.42Z"/><path class="cls-5" d="M129.89,64.5a33.24,33.24,0,0,0-13.4,2.79l-.46.2,5,11.09.46-.21a21.4,21.4,0,0,1,11.4-1.55l.49.06,1.51-12-.49-.07A34.8,34.8,0,0,0,129.89,64.5Zm2.57,11.27a22.45,22.45,0,0,0-11,1.49L117.35,68a32.16,32.16,0,0,1,12.54-2.51,32.83,32.83,0,0,1,3.84.22Z"/><path class="cls-5" d="M165.35,81.1,148.2,87l.28.52a22.49,22.49,0,0,1,2.62,12.09l-.06.55h18l0-.47c0-.58,0-1.17,0-1.76a38.81,38.81,0,0,0-3.6-16.43Zm2.77,18.07h-16a23.53,23.53,0,0,0-2.51-11.59l15.19-5.24a37.75,37.75,0,0,1,3.32,15.6C168.14,98.35,168.14,98.76,168.12,99.17Z"/><path class="cls-5" d="M247.21,6.93H24.26A10.72,10.72,0,0,0,13.55,17.64V167.73a10.72,10.72,0,0,0,10.71,10.72h223a10.72,10.72,0,0,0,10.71-10.72V17.64A10.72,10.72,0,0,0,247.21,6.93Zm9.71,160.8a9.72,9.72,0,0,1-9.71,9.72H24.26a9.72,9.72,0,0,1-9.71-9.72V17.64a9.71,9.71,0,0,1,9.71-9.71h223a9.71,9.71,0,0,1,9.71,9.71Z"/><path class="cls-6" d="M54.37,25.7A10.55,10.55,0,0,0,43.82,36.25c0,10.25,10.55,21.92,10.55,21.92s10.56-12,10.56-21.92A10.55,10.55,0,0,0,54.37,25.7Z"/><path class="cls-5" d="M54.37,30a6.27,6.27,0,1,0,6.27,6.27A6.28,6.28,0,0,0,54.37,30Zm0,11.54a5.27,5.27,0,1,1,5.27-5.27A5.27,5.27,0,0,1,54.37,41.52Z"/><rect class="cls-5" x="78.31" y="33.98" width="26.55" height="1"/><rect class="cls-5" x="78.31" y="40.28" width="39.15" height="1"/><rect class="cls-5" x="78.31" y="46.57" width="54.13" height="1"/><rect class="cls-4" x="39.74" y="100.86" width="12.02" height="56.8"/><rect class="cls-6" x="57.07" y="108.49" width="12.02" height="49.17"/><rect class="cls-8" x="74.39" y="117.18" width="12.02" height="40.48"/><rect class="cls-7" x="91.72" y="125.02" width="12.02" height="32.65"/><path class="cls-5" d="M41,158.16h13v-57.8H41Zm1-56.8h11v55.8H42Z"/><path class="cls-5" d="M58.36,158.16h13V108h-13Zm1-49.17h11v48.17h-11Z"/><path class="cls-5" d="M75.69,158.16h13V116.68h-13Zm1-40.48h11v39.48h-11Z"/><path class="cls-5" d="M93,158.16h13V124.52H93Zm1-32.64h11v31.64H94Z"/><rect x="36.82" y="157.16" width="74.21" height="1"/><rect x="113.05" y="157.16" width="7.29" height="1"/><rect class="cls-9" x="188.33" y="69.96" width="34.92" height="19.53"/><path class="cls-5" d="M191.8,94h35.92V73.42H191.8Zm1-19.53h33.92V93H192.8Z"/><path class="cls-10" d="M199.57,143.46s-2,7.53-5.8,12.71l9,3.1a31.35,31.35,0,0,1,3-13Z"/><path class="cls-5" d="M193.77,156.17l1.33.46a24.06,24.06,0,0,1,9.39-10.92l-4.92-2.25S197.57,151,193.77,156.17Z"/><path class="cls-5" d="M203.66,114.92s12.39,2.66,12.39,15.24c0,0-3.19-20.25-24.59-12-2.06.79-2.29,4.56-2.93,8.82-.38,2.6-7.71,6.2-5.38,14.13s15.71,8.14,21-1.36c0,0,8.32-.25,11.95-4.59C220.16,130.28,218.62,116.75,203.66,114.92Z"/><path class="cls-4" d="M212.35,353.59l-18.26-8.46s-3.5-42.75-3.31-60.51c.05-4.35.16-14.85.16-14.85l-38.38,2.85,2.1,7.34a213,213,0,0,0,17.17,70.37L169.77,362h9.72l.71-3.95,9,3.95h33.86L223,362A29.63,29.63,0,0,0,212.35,353.59Z"/><path class="cls-5" d="M154.66,280a185.44,185.44,0,0,0,3.24,25.13c.17-13.9,13.22-24.16,26.42-24.16a22.93,22.93,0,0,1,6.49.93c.05-4.94.13-12.09.13-12.09l-38.38,2.85Z"/><path class="cls-7" d="M212.35,353.59l-18.26-8.46s-1-11.77-1.85-25.53a182.15,182.15,0,0,1-29.72,4.93,198.72,198.72,0,0,0,9.31,25.8L169.77,362h9.72l.71-3.95,9,3.95h33.86L223,362A29.63,29.63,0,0,0,212.35,353.59Z"/><path class="cls-5" d="M212.56,353.14l-18-8.34c-.16-1.9-1-12.82-1.83-25.23l0-.59-.58.14A181,181,0,0,1,162.49,324l-.62,0,.17.59a197.5,197.5,0,0,0,9.27,25.73l-2.13,12.13h10.73l.67-3.74,8.52,3.74h34l1-.06-.65-.82A30.31,30.31,0,0,0,212.56,353.14Zm-23.25,8.38-9.49-4.16-.75,4.16h-8.7l2-11.25-.06-.14A196.75,196.75,0,0,1,163.18,325a181.55,181.55,0,0,0,28.6-4.75c.87,13.35,1.81,24.82,1.81,24.94l0,.29,18.52,8.59a29.31,29.31,0,0,1,9.85,7.47Z"/><path class="cls-11" d="M212.37,353.61l-1.09-.51a12.64,12.64,0,0,0-8.71-.68,40.32,40.32,0,0,1-10.76,1.49A34.36,34.36,0,0,1,170,346.14c.58,1.39,1.17,2.79,1.79,4.19L169.77,362h9.72l.71-3.95,9,3.95h33.86L223,362A29.42,29.42,0,0,0,212.37,353.61Z"/><path class="cls-4" d="M114.69,237.5A213,213,0,0,0,79.75,301l-9.41,7.22,7.15,6.57,3.2-2.43,4,9,24.94,22.89v-.08a29.57,29.57,0,0,0-2.2-13.37l-7.73-18.58s26.32-33.86,38.48-46.81l10.15-10.84-30.2-23.85Z"/><path class="cls-5" d="M114.69,237.5a184,184,0,0,0-14.61,20.71c9.52-10.14,26.08-8.87,35.81.06a22.91,22.91,0,0,1,4.14,5.07c3.39-3.6,8.27-8.82,8.27-8.82l-30.2-23.85Z"/><path class="cls-7" d="M90.35,275.65A197.19,197.19,0,0,0,79.75,301l-9.41,7.22,7.15,6.57,3.2-2.43,4,9,24.94,22.89v-.08a29.59,29.59,0,0,0-2.2-13.37l-7.73-18.58s7.25-9.32,15.9-20.06A180.55,180.55,0,0,1,90.35,275.65Z"/><path class="cls-5" d="M90.66,275.26l-.49-.39-.27.55a197.72,197.72,0,0,0-10.57,25.23l-9.77,7.49,7.9,7.25,3-2.3,3.75,8.52,25,23,.77.63.07-1a30.3,30.3,0,0,0-2.24-13.6l-7.61-18.31c1.17-1.5,7.91-10.14,15.71-19.82l.37-.47-.52-.29A179.73,179.73,0,0,1,90.66,275.26Zm8.62,36.61-.18.23,7.84,18.84a29.49,29.49,0,0,1,2.21,12.17L85.07,321l-4.18-9.48-3.37,2.56-6.41-5.88,9.07-7,0-.14a196,196,0,0,1,10.29-24.69,181,181,0,0,0,24.29,15.84C106.42,302.68,99.35,311.78,99.28,311.87Z"/><path class="cls-11" d="M107,329.67a12.63,12.63,0,0,0-6-6.39,40.17,40.17,0,0,1-8.94-6.18,34.32,34.32,0,0,1-10.78-20.45c-.52,1.42-1,2.85-1.52,4.3l-9.41,7.22,7.15,6.57,3.2-2.43,4,9,24.94,22.89v-.08a29.57,29.57,0,0,0-2.19-13.34Z"/><path class="cls-5" d="M182.38,113.19c-19.62-3.53-18.12,23.22-4.82,18.45,8-2.86,11-.44,11-.44l3.88-11.56S191.69,114.87,182.38,113.19Z"/><path class="cls-7" d="M191.16,139.29c-4.18-4.59-3.08-12.87-3.07-13l.12-.87-.81.34c-13.29,5.61-17.92-4.28-18.11-4.7l-.92.41c0,.11,5,10.8,18.64,5.53-.18,2.32-.32,8.83,3.41,12.92,2.05,2.25,4.93,3.39,8.59,3.39.27,0,.54,0,.82,0l0-1C196.06,142.5,193.15,141.48,191.16,139.29Z"/><path class="cls-4" d="M143.47,93.91c-.16,2.61-4.57-11.16-7.61-15s-4.75,10-5.85,5.65-4.92,6.9.07,17.44,10.95,7.46,14.51,13.48l14.42-1c2.49-16.71-1.35-10.86-12.57-27.66C142.84,81.46,143.63,91.29,143.47,93.91Z"/><path class="cls-4" d="M285.21,149.62c4.46-.24-5.83-6.16-17.13-3.3s-9.43,9.31-16,11.64l12.31,11s14.58-1.73,18.07-5.28c2.74-2.77-8.6-2.33-8.6-2.33,1.6-2,11.46-2.69,15.79-4.94S280.74,149.86,285.21,149.62Z"/><path class="cls-8" d="M251.17,148.33c-17.64,26.26-47,12.24-47,12.24,1.21-3.86,3.27-4.09,3.27-4.09a19.62,19.62,0,0,1-13.75-4.92c-.14,5.94-6.68,6.24-13-.77S166,113.63,166,113.63c-17.54-2.29-29.85,2.1-29.85,2.1.66,30.92,20,64.14,20,64.14L91.88,228.59s43.32,40.46,58.9,46.3,50.53,10.24,50.53,10.24l3.8-89.83c46.15,4.64,64.22-18.75,64.22-18.75C267.79,157.58,251.17,148.33,251.17,148.33Z"/><path class="cls-7" d="M208.83,354.87l-.11.38s4.57,1.34,6.4,4.49l.35-.2C213.56,356.25,209,354.92,208.83,354.87Z"/><path class="cls-10" d="M203,140.05s-3.36-2.46-5.75,0,.9,5,.9,5c13.32,11,15.55,2.48,15.94-1.24a34.92,34.92,0,0,0-.82-9.12C210.19,129.2,203,140.05,203,140.05Z"/><path class="cls-7" d="M191.43,120.67c-1.54-1.66-9.5-9.3-19.87-3.15l.51.86c10.77-6.39,18.53,2.83,18.86,3.22l.26.32.36-.19c5.41-2.93,14.66,1.11,17.1,4.41s1.62,5.64,1.58,5.74l.48.16-.47-.16.47.16.47.17c0-.12,1-3-1.73-6.67C206.92,122.13,197.49,117.75,191.43,120.67Z"/><path class="cls-7" d="M190.38,123.44l-.17-.27-.32,0s-4.42.55-10.5-3l-.5.86c5.52,3.22,9.66,3.23,10.82,3.15A14.63,14.63,0,0,0,195,129l.43-.9A13.8,13.8,0,0,1,190.38,123.44Z"/><path class="cls-5" d="M200.78,132.8c1.8,1.12,5.57,1.55,5.73,1.57l.11-1s-3.7-.42-5.31-1.42Z"/><g class="cls-12"><rect class="cls-13" x="170.44" y="207.59" width="172.01" height="3.37" transform="translate(11.67 432.08) rotate(-81.53)"/><rect class="cls-13" x="151.49" y="204.77" width="172.01" height="3.37" transform="translate(-1.7 410.93) rotate(-81.53)"/><rect class="cls-13" x="132.54" y="201.95" width="172.01" height="3.37" transform="translate(-15.06 389.79) rotate(-81.53)"/><rect class="cls-13" x="113.59" y="199.12" width="172.01" height="3.37" transform="translate(-28.43 368.64) rotate(-81.53)"/><rect class="cls-13" x="94.64" y="196.3" width="172.01" height="3.37" transform="translate(-41.8 347.49) rotate(-81.53)"/><rect class="cls-13" x="75.69" y="193.48" width="172.01" height="3.37" transform="translate(-55.16 326.35) rotate(-81.53)"/><rect class="cls-13" x="56.74" y="190.66" width="172.01" height="3.37" transform="translate(-68.5 305.25) rotate(-81.54)"/><rect class="cls-13" x="37.79" y="187.84" width="172.01" height="3.37" transform="translate(-81.9 284.05) rotate(-81.53)"/><rect class="cls-13" x="18.84" y="185.02" width="172.01" height="3.37" transform="translate(-95.27 262.9) rotate(-81.53)"/></g><path class="cls-5" d="M193.71,192.42l-.29,1a76.8,76.8,0,0,0,22.43,3.1,91.7,91.7,0,0,0,17.46-1.59l-.22-1C232.89,194,212.62,198.27,193.71,192.42Z"/><path class="cls-5" d="M186.5,215.42l.48.88c7.69-4.12,18.1-20.05,18.54-20.72l-.83-.55C204.58,195.2,194,211.42,186.5,215.42Z"/><path class="cls-5" d="M140,268l4.79-43.36-16.55,35.51.91.42,14-30L139,268.44l.19.17a40.59,40.59,0,0,0,13,7.31A202.33,202.33,0,0,0,172.46,281l.19-1a202.69,202.69,0,0,1-20.13-5A40.81,40.81,0,0,1,140,268Z"/><polygon class="cls-5" points="155.7 179.57 143.36 188.93 143.96 189.73 156.58 180.16 159.16 170.6 158.19 170.34 155.7 179.57"/><path class="cls-5" d="M251.45,147.91l-.43-.28-.27.44c-.07.1-6.33,10-14,12.54l.31.95c7.16-2.34,12.92-10.51,14.25-12.53,2,1.39,10.31,7.6,14.25,15.68l.9-.44C261.88,154.88,251.55,148,251.45,147.91Z"/><path class="cls-5" d="M193.23,151.58s.11,2.46-1.46,3.49c-1.27.83-3.4.55-6.16-.82l-.17-.05c-.26,0-6.31-.6-13.82,3.1l.45.9a27.29,27.29,0,0,1,13.18-3c3.1,1.52,5.48,1.76,7.07.72,2-1.34,1.92-4.25,1.91-4.38Z"/><path class="cls-5" d="M171.93,151.85a36.51,36.51,0,0,1,13.23,3.3l.45-.9a36.93,36.93,0,0,0-13.65-3.4Z"/><rect class="cls-5" x="151.01" y="361.52" width="80.87" height="1"/><rect class="cls-5" x="86.23" y="361.52" width="27.9" height="1"/><rect class="cls-5" x="142.12" y="361.52" width="6.18" height="1"/></g></g></svg>