<svg xmlns="http://www.w3.org/2000/svg" xmlns:xlink="http://www.w3.org/1999/xlink" viewBox="0 0 217.88 318.09"><defs><style>.cls-1{fill:none;}.cls-2{fill:#ff7f24;}.cls-3{fill:#280c96;}.cls-4{fill:#38d6d6;}.cls-5{fill:#fff;}.cls-6{fill:#3a18cd;}.cls-7{fill:#fc2d65;}.cls-8{fill:#733aef;}.cls-9{fill:#000102;}.cls-10{fill:#99a2fc;}.cls-11{clip-path:url(#clip-path);}.cls-12{fill:#806cff;}</style><clipPath id="clip-path"><path class="cls-1" d="M107.75,25.39s-2.45,8.68.17,17.16c0,0-11.43,6.87-13.19-.28,0,0,3.71-6,4.71-16.88S107.75,25.39,107.75,25.39Z"/></clipPath></defs><g id="Layer_2" data-name="Layer 2"><g id="Layer_1-2" data-name="Layer 1"><path class="cls-2" d="M63,202.71c-1.71-5.07-.4-10.46-.86-15.68-.2-2.27-1.14-5-3.84-5.07a2.88,2.88,0,0,0-2.63,1.56,7,7,0,0,0-.6,3.16c-.11,2.85-.17,5.71-.19,8.56,0,1.32,0,2.64,0,3.95,0,.62-.1,1.63-.67,2-.79.54-1.48-.67-1.63-1.28a17,17,0,0,1-.13-3.91c0-2.78,0-5.55,0-8.33,0-2.08-.55-4.8-3-5.34-2.69-.6-3.68,2.4-4.06,4.45a60.08,60.08,0,0,0-.6,7.93,25.34,25.34,0,0,1-.45,3.88,7.38,7.38,0,0,1-.42,1.53c-.13.28-.43.92-.8,1-1.1.18-.82-5.09-.82-5.7,0-2.81.16-5.63-.1-8.43-.18-1.89-.69-4.92-3.23-4.82a3,3,0,0,0-2.59,2,10.65,10.65,0,0,0-.37,3.82L36,196.49a13,13,0,0,1-.25,3.58c-.23.72-.91,1.62-1.57.75a3.18,3.18,0,0,1-.48-1.59c-.09-.73-.15-1.47-.22-2.21-.12-1.41-.21-2.82-.28-4.23s-.11-2.83-.12-4.25a21.53,21.53,0,0,0-.16-3.59,3.81,3.81,0,0,0-1.66-2.67,2,2,0,0,0-2.81,1A16.71,16.71,0,0,0,27.3,187a36.65,36.65,0,0,0-.69,4,34.41,34.41,0,0,0-.22,4.06c0,1.1.07,2.2,0,3.3a5.07,5.07,0,0,1-.76,2.64,2.62,2.62,0,0,1-.46.48c-.11.09-.2.11-.21.13a1.83,1.83,0,0,1-.21-.84,74.63,74.63,0,0,1,.22-8.32c0-1.4,0-2.8-.06-4.19a13.42,13.42,0,0,0-.63-3.89A4,4,0,0,0,21.85,182a2.86,2.86,0,0,0-3,.81c-1.57,1.75-1.19,4.75-1,6.89a73.3,73.3,0,0,1,.71,8.23c0,1,0,2.36-1,3s-1.46-.26-1.58-1.08a21.89,21.89,0,0,1,.13-4c.05-1.41,0-2.82,0-4.22s-.16-2.81-.32-4.21a10.29,10.29,0,0,0-.72-3.47,2.47,2.47,0,0,0-2.6-1.46A3.63,3.63,0,0,0,10,184.8c-1,2.38-.75,5.21-.78,7.74l-.05,4.27a20.8,20.8,0,0,1-.1,3.53c-.1.55-.37,1.47-1.07,1-.93-.62-.7-2.28-.72-3.23,0-2.83-.13-5.65-.28-8.47-.07-1.3-.09-2.63-.29-3.93a4.46,4.46,0,0,0-1.19-2.63,2.69,2.69,0,0,0-3.11-.36,4,4,0,0,0-1.89,3A49.75,49.75,0,0,0,0,194.21a70.74,70.74,0,0,0,.5,8.23,1.12,1.12,0,0,0,1.09,1.08,1.09,1.09,0,0,0,1.08-1.08,68.83,68.83,0,0,1-.5-8.36c0-1.42,0-2.84.13-4.26a24.71,24.71,0,0,1,.41-3.93c.12-.53.8-2,1.47-1.12a4.81,4.81,0,0,1,.55,2.62q.27,4.1.37,8.19c0,1.38,0,2.77.08,4.14A4.37,4.37,0,0,0,6.6,203a2.73,2.73,0,0,0,3.06.35,3.4,3.4,0,0,0,1.51-2.3,18.14,18.14,0,0,0,.19-3.53c0-1.43,0-2.85.05-4.27s0-2.69,0-4a9.42,9.42,0,0,1,.51-3.41c.14-.36.4-1,.79-1.15.21-.09.33.1.45.38a11.38,11.38,0,0,1,.53,3.43,59,59,0,0,1,.19,8.3c-.11,2.2-.53,5.32,2.08,6.3a3.2,3.2,0,0,0,3.2-.71,4.84,4.84,0,0,0,1.44-3.13,33.51,33.51,0,0,0-.46-8,37.5,37.5,0,0,1-.3-4.11,4.84,4.84,0,0,1,.48-2.76c.55-.75,1.41-.09,1.74.53a9.39,9.39,0,0,1,.65,3.72c.16,2.75,0,5.52-.13,8.27a36.66,36.66,0,0,0,0,4.06,3.34,3.34,0,0,0,1.24,2.63c2.14,1.38,4.05-1.54,4.47-3.29.53-2.21.2-4.54.3-6.79a33.22,33.22,0,0,1,1.31-7.84c.09-.32.19-.65.3-1,0,0,.07-.16.13-.29a2.63,2.63,0,0,1,.31.48,8.87,8.87,0,0,1,.24,3q0,4.25.35,8.48c.18,2.18,0,5.52,2.29,6.69a2.74,2.74,0,0,0,3.2-.52,5.14,5.14,0,0,0,1.33-3.21c.13-1.24.08-2.51.09-3.76l0-4.26c0-1.37,0-2.75,0-4.12,0-.73-.2-2.5.72-2.82,1.3-.45,1.27,4.8,1.28,5.38.05,2.77-.11,5.54,0,8.31.07,1.9.19,5.14,2.81,5.22,2.46.08,3.28-2.92,3.6-4.82a73,73,0,0,0,.56-7.82,24.91,24.91,0,0,1,.44-3.75c.14-.63.34-2.19,1.12-2.43s1.3,1.1,1.42,1.69a16.25,16.25,0,0,1,.12,3.27c0,2.78,0,5.55,0,8.32,0,2.22.34,5.21,3,5.7,2.37.43,3.49-1.82,3.69-3.8.13-1.23,0-2.49,0-3.72,0-1.38,0-2.76.05-4.15s.06-2.85.11-4.28a6.5,6.5,0,0,1,.38-2.94c.43-.75,1.33-.35,1.75.22A6,6,0,0,1,60,188c.13,2.57-.09,5.14-.11,7.72a22.93,22.93,0,0,0,1,7.55C61.36,204.6,63.45,204,63,202.71Z"/><path class="cls-3" d="M55.29,93.94s-9.87,39.51-13.22,41.92c-5.11,3.7-8.24,2.89-11.75,7.55-1.45,1.93-15.24,24.06-11.61,24.17,4.89.14,8.71-6.7,10.41-10.37.57-1.38,1-2.26,1-2.26s-.34.92-1,2.26c-2,4.79-6.1,15.65-3.44,16.74,3.4,1.39,12.22-18.64,12.22-18.64s-2.8,10.27-1.37,13.26c1.35,2.82,5.75-3,5.6-7.06S46,153.39,46,153.39c6.82-1.19,9.33-3.21,14.45-10.1,8.26-11.11,23.21-45.83,23.21-45.83S75,89.77,68.49,89.31A17.87,17.87,0,0,0,55.29,93.94Z"/><path class="cls-3" d="M29.12,157.21c.62-1.34,1-2.26,1-2.26S29.69,155.83,29.12,157.21Z"/><path class="cls-3" d="M55.29,93.94s-.4,1.9-1,4.88c.8.14,1.61.31,2.42.53,8.34,2.28,14.68,8.36,18.9,15.79,4.37-9.59,8.08-17.68,8.08-17.68S75,89.77,68.49,89.31A17.87,17.87,0,0,0,55.29,93.94Z"/><path class="cls-4" d="M67,47.34C57,55.94,58.84,73.66,54.16,97.11l28.66,9.59S90.07,93.9,93,70C96.3,42.86,73.83,41.37,67,47.34Z"/><path class="cls-5" d="M61,74.7c.06.13,6.27,12.44,5.13,22.63l.44,0c1.16-10.32-5.11-22.75-5.18-22.88Z"/><path class="cls-5" d="M64.88,71.17c.28.41,6.93,10,8.92,11.86l.31-.32c-2-1.85-8.8-11.69-8.86-11.79Z"/><path class="cls-6" d="M62.54,307.65l24.19,2.86s6.11-18.84,6.64-29.39l-28.45-6.69S65.45,300.78,62.54,307.65Z"/><path d="M64.89,285.92a28.92,28.92,0,0,0,26.24,8.73,80.18,80.18,0,0,0,2.24-13.53l-28.45-6.69S65,279.58,64.89,285.92Z"/><path class="cls-7" d="M83.79,303.66A35.4,35.4,0,0,1,70.16,301a5.87,5.87,0,0,0-6.71,1.57,13.38,13.38,0,0,1-1.5,1.51s-17.39-2.7-25.9,6.8a11.07,11.07,0,0,0-2.41,4.63,1.64,1.64,0,0,0,1.59,2.06H91s3.3-3.86-.77-9.59C90.26,308,88.13,303.66,83.79,303.66Z"/><path class="cls-8" d="M72.69,114.1c-22.95,5.08-20.42,136.15,1.66,145.23,16.88,6.94,29-7.86,43.22-72.12C132.21,120.94,93.63,109.46,72.69,114.1Z"/><path d="M72.69,114.1c-7.14,1.58-11.81,15.33-14.19,33.8,1-.1,2-.16,3.07-.16a37.47,37.47,0,0,1,29.19,14.37h30C121.57,118,90.64,110.12,72.69,114.1Z"/><path class="cls-8" d="M59.77,281s26.57,10.76,41.48,6.76l3.92-56L61,230.65C61.69,244.31,61.3,268.25,59.77,281Z"/><rect class="cls-9" x="33.59" y="316.98" width="58.67" height="1.11"/><path class="cls-6" d="M201.59,255.52s-4.11-6.07-13.09-11.63l-19.61,21.65s23.33,12.29,27.94,18.16c0,0-3.23,17.3,6,26.1a11.26,11.26,0,0,0,4.55,2.54,1.63,1.63,0,0,0,2.11-1.52l1.7-55.77S207.44,251.63,201.59,255.52Z"/><path d="M188.5,243.89l-19.61,21.65s4.56,2.41,10,5.59a28.67,28.67,0,0,0,20.29-18.49A45.77,45.77,0,0,0,188.5,243.89Z"/><path class="cls-7" d="M201.59,255.52s-4.35,2-4.49,6.34A35.35,35.35,0,0,1,194,275.4a5.89,5.89,0,0,0,1.36,6.76,12.8,12.8,0,0,1,1.47,1.54s-3.23,17.3,6,26.1a11.26,11.26,0,0,0,4.55,2.54,1.64,1.64,0,0,0,2.11-1.52l1.7-55.77S207.44,251.63,201.59,255.52Z"/><rect class="cls-9" x="197.5" y="283.39" width="1.11" height="4.63" transform="translate(-93.55 474.98) rotate(-88.26)"/><rect class="cls-9" x="197.39" y="286.84" width="1.11" height="4.63" transform="translate(-97.09 478.21) rotate(-88.26)"/><rect class="cls-9" x="197.29" y="290.29" width="1.11" height="4.63" transform="translate(-100.65 481.44) rotate(-88.25)"/><rect class="cls-9" x="59.05" y="301.98" width="1.11" height="4.63" transform="translate(-21.16 4.92) rotate(-4.01)"/><rect class="cls-9" x="55.61" y="302.23" width="1.11" height="4.63" transform="translate(-21.19 4.68) rotate(-4.02)"/><rect class="cls-9" x="52.17" y="302.47" width="1.11" height="4.63" transform="translate(-21.21 4.44) rotate(-4.01)"/><path class="cls-10" d="M94,115.61c-20.17,12.06,23.5,137.84,47.37,137.3,14.39-.32,25.06-16.61,18.28-82.06C152.61,103.34,112.37,104.61,94,115.61Z"/><path d="M94,115.61c-5.77,3.45-6.3,16.25-3.57,32.72,12.53,6.07,53.91-4.71,67,7.85C146.42,103.6,110.93,105.47,94,115.61Z"/><path class="cls-10" d="M133,249.2c5.68,5.1,28.71,16.53,39.16,24.05,0,0,22.26-18.05,26-33L160.5,220.7S121.76,239.08,133,249.2Z"/><rect class="cls-9" x="181" y="282.58" width="58.67" height="1.11" transform="translate(-79.22 484.54) rotate(-88.21)"/><path class="cls-5" d="M141.11,134.76c-10.34-15.63-24-17.27-33.67-15.9a51.33,51.33,0,0,0-18.62,6.78l.24.37a50.84,50.84,0,0,1,18.45-6.71c9.53-1.35,23,.28,33.23,15.7,19.63,29.65,12.25,88.58,12.17,89.17l0,.15,42.32,23.05.22-.39-42.06-22.91C153.78,220.71,160.34,163.81,141.11,134.76Z"/><path class="cls-5" d="M138.47,141c-4.74-8.91-11.27-14.45-19.41-16.47-16.25-4-33.6,7.49-33.77,7.61l.25.36c.17-.11,17.35-11.54,33.42-7.54,8,2,14.44,7.46,19.12,16.25,15.53,29.13,10,85.59,9.91,86.16l0,.15,45.11,23.78.21-.39-44.85-23.64C148.75,224,153.67,169.55,138.47,141Z"/><path class="cls-4" d="M127.78,46.4c-4.62-5.07-45.62-4.85-54.33-1.59-4.09,1.52-15.09,79.39-17.74,97.46,0,0,44.41,8.37,73.49,0,0,0,5.78-11.84,4.9-19.33,0,0,7,7.87,10.08,13.6,0,0,6.6-2.42,10.13-4.85,0,0-18.28-48.45-20.49-59.69S132.41,51.46,127.78,46.4Z"/><path d="M143.06,108.89c-13.21,14.88-30.15,25.11-49,31.25a123.68,123.68,0,0,1-20.48,4.57c15.57,1.59,38.32,2.54,55.63-2.44,0,0,5.78-11.84,4.9-19.33,0,0,7,7.87,10.08,13.6,0,0,6.6-2.42,10.13-4.85,0,0-4.48-11.88-9.28-25.24C144.41,107.28,143.76,108.1,143.06,108.89Z"/><path class="cls-6" d="M107.75,25.39s-7.3-10.88-8.31,0-4.71,16.88-4.71,16.88c1.76,7.15,13.19.28,13.19.28C105.3,34.07,107.75,25.39,107.75,25.39Z"/><g class="cls-11"><polygon points="97.14 24.23 97.5 24.56 98.74 23.16 98.38 22.84 97.14 24.23"/><path d="M95.71,32.16l-.15.46a6.49,6.49,0,0,0,1.9.29,6.62,6.62,0,0,0,1.41-.15l-.11-.48A6.07,6.07,0,0,1,95.71,32.16Z"/><path d="M93.3,27.15l0,.49.43,0a4.22,4.22,0,0,0,1.41-.24L94.93,27A3.91,3.91,0,0,1,93.3,27.15Z"/><path d="M100.4,29.67a13.14,13.14,0,0,0,2.56.56l.05-.48a12.31,12.31,0,0,1-2.46-.55Z"/><path d="M98.22,28.51a8.68,8.68,0,0,1-.13-1.25,1,1,0,0,1,.1-.58l-.39-.29a1.37,1.37,0,0,0-.2.88,8.33,8.33,0,0,0,.14,1.33l0,.07a3.41,3.41,0,0,1,0,.42.53.53,0,0,1-.13.33l.33.36a.92.92,0,0,0,.28-.67,2.27,2.27,0,0,0-.05-.53Z"/><path d="M91.93,31.84a3.93,3.93,0,0,0-1.12.75l.36.34a3.35,3.35,0,0,1,1-.65q.81-.41,1.62-.78l-.21-.45Z"/><path d="M90.3,28.32l.47.13a3.12,3.12,0,0,1,.45-1l-.4-.28A3.52,3.52,0,0,0,90.3,28.32Z"/><path d="M92.2,25.42l.46.19a18,18,0,0,0,.74-2.18l-.47-.13A16.55,16.55,0,0,1,92.2,25.42Z"/><path d="M101.36,27l.25.42a8.76,8.76,0,0,0,3.79-4.77l-.47-.15A8.27,8.27,0,0,1,101.36,27Z"/><path d="M108.63,29.13l.16.46A35.52,35.52,0,0,0,112.73,28l-.22-.44A33.72,33.72,0,0,1,108.63,29.13Z"/><path d="M101.09,34.43l-.26.41a6.71,6.71,0,0,0,3.59,1h.35l0-.48A6.27,6.27,0,0,1,101.09,34.43Z"/><path d="M106.75,31.86c.1,1.3.19,2.58.24,3.82l.49,0c-.06-1.24-.14-2.53-.24-3.83Z"/><rect x="97.03" y="34.37" width="0.49" height="6.37" transform="translate(17.69 104.93) rotate(-61.36)"/><path d="M98.29,17.34a19.62,19.62,0,0,1,2.52,5.31l.47-.15a20.45,20.45,0,0,0-2.59-5.44Z"/><path d="M94.67,21.18l.47.12c.17-.67.32-1.33.44-2l-.49-.08Q94.93,20.19,94.67,21.18Z"/><path d="M105.46,28.24l0,.07a4,4,0,0,0-.32.8l.48.12a3,3,0,0,1,.28-.71l0-.06a22.78,22.78,0,0,0,1.33-3.34l-.47-.14A22.78,22.78,0,0,1,105.46,28.24Z"/><path d="M108.79,32.15a15.29,15.29,0,0,0,2.12,1.54l.25-.42a14.1,14.1,0,0,1-2-1.49Z"/><rect x="97.53" y="33.93" width="0.49" height="3.4" transform="translate(15.79 99.72) rotate(-58.04)"/><path d="M100.47,32.65a.58.58,0,0,1,.11-.15l-.38-.31a2,2,0,0,0-.38.72l-.12.39,2.7-.56-.1-.48Z"/><path d="M103.83,32.57l.47.15a21.49,21.49,0,0,1,.77-2l-.44-.2A19.23,19.23,0,0,0,103.83,32.57Z"/><path d="M109,24.73l-.48-.1a3.6,3.6,0,0,0,.13,1.95l.46-.17A3.1,3.1,0,0,1,109,24.73Z"/><path d="M107.56,28.83l-.4-.28a1.74,1.74,0,0,0,.12,2.07l.37-.32A1.26,1.26,0,0,1,107.56,28.83Z"/><path d="M99.24,24.52l-.1.47a5.83,5.83,0,0,0,1.25.13,5.9,5.9,0,0,0,.83-.06l-.06-.48A6.17,6.17,0,0,1,99.24,24.52Z"/><path d="M103.1,20.93l-.46-.17a3.48,3.48,0,0,0,0,2.38l.46-.18A3,3,0,0,1,103.1,20.93Z"/><path d="M95.14,29.66l.36.33a2.22,2.22,0,0,0,.59-1.59l-.49,0A1.73,1.73,0,0,1,95.14,29.66Z"/><path d="M100.89,36.79a6.86,6.86,0,0,1,.32,1.18l.48-.1a7.58,7.58,0,0,0-.34-1.24Z"/><path d="M91.7,34.93a.55.55,0,0,1-.12.08l-.16.47.14,0a.72.72,0,0,0,.43-.18L93.77,34l-.29-.39Z"/><path d="M94.92,25.79h.49a6.86,6.86,0,0,1,.9-3.4l-.43-.24A7.61,7.61,0,0,0,94.92,25.79Z"/><path d="M98.57,20.72h-.18a.11.11,0,0,1,0-.1,5,5,0,0,1-.78-.09l-.1.48a4.28,4.28,0,0,0,.87.09h0a.45.45,0,0,0,.42-.26.31.31,0,0,0-.09-.34Z"/><path d="M99,27.13a6.41,6.41,0,0,0,.46,1.36l.44-.2A5.65,5.65,0,0,1,99.43,27Z"/><polygon points="91.9 29.79 92.3 30.07 92.62 29.61 92.22 29.33 91.9 29.79"/><polygon points="98.88 31.16 99.02 31.63 100.09 31.31 99.95 30.84 98.88 31.16"/><polygon points="97.17 31.18 97.31 31.65 98.01 31.45 97.87 30.98 97.17 31.18"/><polygon points="94.72 31.49 94.99 31.9 95.51 31.56 95.25 31.15 94.72 31.49"/><path d="M93.33,36.36l-.44-.23a.77.77,0,0,0,.06.8l.39-.29A.28.28,0,0,1,93.33,36.36Z"/><polygon points="102.57 37.53 102.64 38.02 103.69 37.86 103.61 37.38 102.57 37.53"/><path d="M102.89,28.26c.26.42.54.85.83,1.26l.4-.28c-.29-.41-.56-.82-.82-1.24Z"/><path d="M104.35,27l.48.13a6.22,6.22,0,0,0,.19-1.21l-.49,0A5.16,5.16,0,0,1,104.35,27Z"/><rect x="105.77" y="22.93" width="1.24" height="0.49" transform="translate(19.05 88.2) rotate(-48.96)"/><path d="M105,34.05l-.49-.33-.28.4.5.34a.49.49,0,0,0,.29.11l.13,0a.49.49,0,0,0,.23-.22l.32-.58-.42-.24Z"/><polygon points="104.29 21 104.62 21.36 106.01 20.11 105.69 19.75 104.29 21"/><path d="M102,28.71l-.2.45a6.43,6.43,0,0,0,2.59.54,5.07,5.07,0,0,0,.68,0l0-.48A5.93,5.93,0,0,1,102,28.71Z"/><path d="M100.15,23.46l-.1.48a4,4,0,0,0,.91.1,4.24,4.24,0,0,0,.94-.11l-.11-.47A3.78,3.78,0,0,1,100.15,23.46Z"/><path d="M106.92,26.77a12.71,12.71,0,0,0,2.48.84l.11-.47a11.75,11.75,0,0,1-2.38-.82Z"/><path d="M105.07,23.55l-.36-.33a1.38,1.38,0,0,0-.3.85,8.18,8.18,0,0,0,0,1.4,2.06,2.06,0,0,1,0,.43.46.46,0,0,1-.16.31l.28.4a.91.91,0,0,0,.36-.63,2.48,2.48,0,0,0,0-.61,7.58,7.58,0,0,1,0-1.26A1,1,0,0,1,105.07,23.55Z"/><path d="M98.27,28a4,4,0,0,0-1.21.62l.32.37a3.45,3.45,0,0,1,1.05-.53c.56-.21,1.13-.41,1.7-.59l-.15-.47Q99.11,27.65,98.27,28Z"/><path d="M97,24.29l.45.18a3,3,0,0,1,.56-.9l-.36-.33A3.48,3.48,0,0,0,97,24.29Z"/><path d="M99.26,21.63l.43.23a17.92,17.92,0,0,0,1-2.08l-.46-.18A17.79,17.79,0,0,1,99.26,21.63Z"/><path d="M108.18,24.2l.21.44a8.74,8.74,0,0,0,4.29-4.31l-.44-.2A8.29,8.29,0,0,1,108.18,24.2Z"/><path d="M115.16,27.16l.1.48a35.81,35.81,0,0,0,4.11-1.18L119.2,26A34.6,34.6,0,0,1,115.16,27.16Z"/><path d="M106.76,32a6.7,6.7,0,0,0,3.8,1.49l0-.49a6.21,6.21,0,0,1-3.52-1.38Z"/><path d="M112.8,33.48l.49,0c.08-1.27.14-2.56.18-3.83H113C112.94,30.93,112.88,32.22,112.8,33.48Z"/><polygon points="100.18 32.62 105.39 36.28 105.67 35.88 100.46 32.22 100.18 32.62"/><path d="M106.21,14.28a19.29,19.29,0,0,1,1.91,5.56l.48-.09a19.83,19.83,0,0,0-1.95-5.7Z"/><path d="M102.19,17.68l.46.18c.23-.62.45-1.27.65-1.93l-.47-.14C102.64,16.44,102.42,17.07,102.19,17.68Z"/><path d="M112.11,25.92l0,.06a3.55,3.55,0,0,0-.41.77l.46.16a2.85,2.85,0,0,1,.36-.66l0-.07A23.36,23.36,0,0,0,114.21,23l-.45-.2A22.43,22.43,0,0,1,112.11,25.92Z"/><path d="M115.34,29.85l-.36.33A14.82,14.82,0,0,0,116.92,32l.29-.39A14.43,14.43,0,0,1,115.34,29.85Z"/><rect x="103.4" y="30.69" width="0.49" height="3.4" transform="translate(13.82 93.4) rotate(-51.54)"/><path d="M106.66,29.73l.12-.13-.34-.35a1.86,1.86,0,0,0-.46.68l-.16.37,2.75-.25,0-.49Z"/><path d="M110,30l.44.2a17.48,17.48,0,0,1,1-1.92l-.42-.25A18.36,18.36,0,0,0,110,30Z"/><path d="M115.55,22.68a3.59,3.59,0,0,0-.09,1.95l.48-.11a3,3,0,0,1,.07-1.69Z"/><path d="M113.76,26.42a1.76,1.76,0,0,0-.11,2.07l.4-.28a1.26,1.26,0,0,1,.08-1.47Z"/><path d="M106.35,21.51l-.15.47a6.45,6.45,0,0,0,2,.3h.11V21.8A6.44,6.44,0,0,1,106.35,21.51Z"/><path d="M110.15,18.17a3.44,3.44,0,0,0-.25,2.36l.47-.12a2.94,2.94,0,0,1,.22-2Z"/><path d="M101.7,26.17l.32.37a2.24,2.24,0,0,0,.76-1.52l-.49,0A1.75,1.75,0,0,1,101.7,26.17Z"/><path d="M106.61,33.9a8.08,8.08,0,0,1,.18,1.2l.49,0a7.64,7.64,0,0,0-.2-1.27Z"/><path d="M97.68,31a.5.5,0,0,1-.13.07l-.2.44a.45.45,0,0,0,.19.05.81.81,0,0,0,.39-.13l1.92-1.14-.25-.42Z"/><path d="M101.92,22.3l.48.05a7,7,0,0,1,1.28-3.28l-.4-.29A7.61,7.61,0,0,0,101.92,22.3Z"/><path d="M106.12,17.67l-.18,0a.17.17,0,0,1,0-.1,4.15,4.15,0,0,1-.76-.17l-.15.46a4.89,4.89,0,0,0,.86.2h0a.46.46,0,0,0,.4-.22.3.3,0,0,0,0-.35Z"/><path d="M105.77,24.08a6.81,6.81,0,0,0,.3,1.41l.46-.16a5.67,5.67,0,0,1-.27-1.3Z"/><polygon points="98.46 25.93 98.83 26.25 99.2 25.83 98.83 25.51 98.46 25.93"/><polygon points="105.24 28.08 105.33 28.56 106.43 28.37 106.34 27.89 105.24 28.08"/><polygon points="103.55 27.91 103.63 28.39 104.34 28.26 104.26 27.78 103.55 27.91"/><rect x="101.16" y="27.77" width="0.62" height="0.49" transform="translate(-1.77 48.56) rotate(-26.69)"/><path d="M98.74,32.34a.79.79,0,0,0,0,.81l.43-.25a.26.26,0,0,1,0-.28Z"/><rect x="108.2" y="34.81" width="1.06" height="0.49" transform="matrix(1, -0.04, 0.04, 1, -1.18, 3.88)"/><path d="M109.55,25.65c.22.46.45.91.69,1.34l.43-.23c-.24-.43-.47-.87-.68-1.32Z"/><path d="M111.15,24.56l.46.18a5.8,5.8,0,0,0,.33-1.17l-.48-.08A5.49,5.49,0,0,1,111.15,24.56Z"/><rect x="112.99" y="20.75" width="1.24" height="0.49" transform="translate(15.64 82.22) rotate(-42.47)"/><path d="M111,31.64l-.45-.39-.32.37.45.39a.48.48,0,0,0,.32.15h.09a.48.48,0,0,0,.25-.19l.39-.54-.39-.29Z"/><polygon points="94.91 26.75 95.4 28.56 95.87 28.43 95.38 26.62 94.91 26.75"/><path d="M101.26,34.08l.31.37a6.47,6.47,0,0,0,1.92-2.69l-.46-.17A6,6,0,0,1,101.26,34.08Z"/><path d="M95.75,33.36l.38.31A4.31,4.31,0,0,0,97,32l-.47-.12A3.83,3.83,0,0,1,95.75,33.36Z"/><path d="M101.43,28.41l.31.38A13,13,0,0,0,103.61,27l-.38-.31A12.55,12.55,0,0,1,101.43,28.41Z"/><path d="M99.58,30a8.43,8.43,0,0,1-1.12-.57A.94.94,0,0,1,98,29l-.46.16a1.33,1.33,0,0,0,.63.65,8.58,8.58,0,0,0,1.25.64,2,2,0,0,1,.39.19.44.44,0,0,1,.2.28l.49-.08a.93.93,0,0,0-.41-.6A2.47,2.47,0,0,0,99.58,30Z"/><path d="M99.65,35.34l-.48-.07q-.14.9-.24,1.8a3.82,3.82,0,0,0,0,1.35l.48-.12a3.32,3.32,0,0,1,0-1.18C99.48,36.53,99.56,35.93,99.65,35.34Z"/><path d="M94.45,35.47a3.79,3.79,0,0,0,.64,1.05l.37-.33a3,3,0,0,1-.56-.9Z"/><path d="M92.33,31.57a18.25,18.25,0,0,1,1.38,1.77l.4-.28a17.66,17.66,0,0,0-1.42-1.81Z"/><path d="M98.18,21.06A8.3,8.3,0,0,1,100,26.51l.48,0a8.68,8.68,0,0,0-1.93-5.77Z"/><path d="M105.78,21.6l.48.12a36.81,36.81,0,0,0,.78-4.19l-.49-.06A33.76,33.76,0,0,1,105.78,21.6Z"/><path d="M106.1,30.81l.2.45a6.71,6.71,0,0,0,3-2.74l-.42-.24A6.16,6.16,0,0,1,106.1,30.81Z"/><path d="M107,24.67c1.1.59,2.22,1.23,3.33,1.87l.25-.42c-1.12-.65-2.24-1.28-3.34-1.88Z"/><polygon points="103.72 37.01 103.95 37.44 109.56 34.42 109.33 33.99 103.72 37.01"/><path d="M90.25,23.82a19.77,19.77,0,0,1,5.83.79l.14-.47a19.84,19.84,0,0,0-6-.8Z"/><path d="M90.09,27.53c.48.45,1,.93,1.41,1.42l.36-.33c-.47-.5-1-1-1.43-1.45Z"/><path d="M103.72,23.52a22.81,22.81,0,0,0-2.07-2.93l-.37.31a22.51,22.51,0,0,1,2,2.87l0,.07a4.81,4.81,0,0,0,.5.71l.36-.34a3.26,3.26,0,0,1-.44-.62Z"/><path d="M108.26,22.65l.14.47a15.47,15.47,0,0,0,2.45-.94l-.22-.44A14.7,14.7,0,0,1,108.26,22.65Z"/><rect x="103.59" y="34" width="3.4" height="0.49" transform="translate(-4.62 47.63) rotate(-24.96)"/><path d="M104.27,30.36a1.27,1.27,0,0,1-.06-.18l-.47.15a2,2,0,0,0,.4.72l.26.31,1-2.57-.46-.18Z"/><path d="M104.74,25.7a19.22,19.22,0,0,0,1.31,1.8l.37-.31c-.45-.56-.88-1.15-1.27-1.75Z"/><path d="M102,19.24a3.56,3.56,0,0,0,1.7,1l.11-.48a3.12,3.12,0,0,1-1.47-.82Z"/><path d="M105,22.33l-.45.19a1.73,1.73,0,0,0,1.57,1h.22l-.07-.49A1.25,1.25,0,0,1,105,22.33Z"/><path d="M96.79,27l.34.34a6.54,6.54,0,0,0,1.2-1.7l-.44-.21A5.93,5.93,0,0,1,96.79,27Z"/><path d="M95.89,21.75l-.39.3a3.44,3.44,0,0,0,2,1.28l.1-.47A2.94,2.94,0,0,1,95.89,21.75Z"/><path d="M98.32,31.71l-.25.42a1.73,1.73,0,0,1,.79,1.06l.48-.12A2.26,2.26,0,0,0,98.32,31.71Z"/><path d="M108,32.27a7.7,7.7,0,0,1,1.15.37l.18-.45a7.23,7.23,0,0,0-1.22-.39Z"/><path d="M101.73,36.69l-.49,0,.15,2.22a.48.48,0,0,1,0,.15l.31.38a.62.62,0,0,0,.18-.56Z"/><path d="M93.4,28.24l-.43.23a7.46,7.46,0,0,0,2.53,2.79l.27-.41A6.92,6.92,0,0,1,93.4,28.24Z"/><path d="M93.16,25.15l.09.28-.11.15a.14.14,0,0,1-.07-.1,3.64,3.64,0,0,1-.49.61l.35.34a4.09,4.09,0,0,0,.55-.68.45.45,0,0,0,0-.5A.3.3,0,0,0,93.16,25.15Z"/><path d="M98.82,28.61a6.21,6.21,0,0,0,1.39.37l.07-.49A5.6,5.6,0,0,1,99,28.16Z"/><polygon points="96.99 35.46 97.2 35.98 97.65 35.79 97.44 35.27 96.99 35.46"/><rect x="101.99" y="30.17" width="1.12" height="0.49" transform="translate(43.88 119.85) rotate(-73.26)"/><rect x="101.22" y="31.8" width="0.72" height="0.49" transform="translate(41.62 120.08) rotate(-73.25)"/><rect x="100.17" y="33.92" width="0.49" height="0.62" transform="matrix(1, -0.01, 0.01, 1, -0.18, 0.52)"/><path d="M103.48,38.37l-.43.24a.79.79,0,0,0,.67.39h0l0-.49A.24.24,0,0,1,103.48,38.37Z"/><rect x="109.42" y="30.65" width="1.06" height="0.49" transform="translate(36.04 117.96) rotate(-65.37)"/><path d="M101.93,25.45v.49h.5c.34,0,.68,0,1,0l0-.48C102.93,25.46,102.43,25.46,101.93,25.45Z"/><path d="M100.83,23.26a5.51,5.51,0,0,1,.83.76l.37-.32a6.47,6.47,0,0,0-.9-.83Z"/><rect x="99.33" y="19.61" width="0.49" height="1.24" transform="translate(-1.74 28) rotate(-15.87)"/><path d="M108,26.6l-.44.22.31.54-.55.22.18.45.56-.22a.46.46,0,0,0,.3-.31.44.44,0,0,0-.06-.31Z"/><polygon points="99.5 26.01 99.99 26.05 100.13 24.18 99.64 24.15 99.5 26.01"/><path d="M103.16,33.18l.17.46a6.49,6.49,0,0,0,2.71-1.9l-.37-.31A6,6,0,0,1,103.16,33.18Z"/><path d="M98.22,30.66l.25.41a4.28,4.28,0,0,0,1.33-1.28l-.41-.27A4,4,0,0,1,98.22,30.66Z"/><path d="M105.23,27.89l.16.47a12.47,12.47,0,0,0,2.37-1.11l-.25-.41A12.06,12.06,0,0,1,105.23,27.89Z"/><path d="M103,28.76a7.57,7.57,0,0,1-.87-.92.92.92,0,0,1-.26-.52h-.49a1.35,1.35,0,0,0,.37.83,9.78,9.78,0,0,0,1,1,2.41,2.41,0,0,1,.32.32.46.46,0,0,1,.09.34l.48.09a1,1,0,0,0-.17-.71A3.39,3.39,0,0,0,103,28.76Z"/><path d="M100,35.22a3.93,3.93,0,0,0-.44,1.27l.49.06a3.41,3.41,0,0,1,.39-1.12c.26-.54.53-1.07.81-1.6l-.43-.23C100.51,34.14,100.23,34.67,100,35.22Z"/><path d="M96.28,32.21a3.59,3.59,0,0,0,.26,1.2l.45-.19a3,3,0,0,1-.22-1Z"/><path d="M95.59,27.83A17,17,0,0,1,96.3,30l.47-.13A18.59,18.59,0,0,0,96,27.64Z"/><path d="M104.63,19.89a8.27,8.27,0,0,1-.11,5.74l.45.18a8.74,8.74,0,0,0,.12-6.09Z"/><path d="M111.61,22.94l.4.28a36,36,0,0,0,2.15-3.7l-.44-.22A35.52,35.52,0,0,1,111.61,22.94Z"/><path d="M108.82,31.72l0,.49a6.64,6.64,0,0,0,3.77-1.56l-.32-.37A6.14,6.14,0,0,1,108.82,31.72Z"/><path d="M111.77,26.26c.85.94,1.69,1.91,2.5,2.88l.38-.32c-.82-1-1.67-1.95-2.52-2.89Z"/><rect x="104.5" y="36.28" width="6.37" height="0.49" transform="translate(-4.27 16.64) rotate(-8.67)"/><path d="M96.23,19.83a19.5,19.5,0,0,1,5.23,2.69l.28-.39a19.55,19.55,0,0,0-5.35-2.76Z"/><path d="M94.84,23.27c.3.59.59,1.2.85,1.8l.44-.19c-.26-.61-.55-1.23-.85-1.84Z"/><path d="M108.06,20.61l-.46.16a23.31,23.31,0,0,1,1,3.45,3.84,3.84,0,0,0,.23.85l.45-.2a4.24,4.24,0,0,1-.22-.81A22.92,22.92,0,0,0,108.06,20.61Z"/><path d="M113.6,24.76l0,.48c.32,0,.64,0,1,0a15.56,15.56,0,0,0,1.66-.1l-.06-.48A14.26,14.26,0,0,1,113.6,24.76Z"/><rect x="105.21" y="34.44" width="3.4" height="0.49" transform="translate(-2.77 10.13) rotate(-5.35)"/><path d="M107.25,30.68a.54.54,0,0,1,0-.18l-.49,0a2,2,0,0,0,.13.81l.15.38,1.81-2.08-.37-.32Z"/><path d="M109.26,26.45a17.47,17.47,0,0,0,.62,2.14l.46-.17a18.23,18.23,0,0,1-.61-2.07Z"/><path d="M109.23,19.23l-.44.21a3.54,3.54,0,0,0,1.28,1.46l.27-.41A3.07,3.07,0,0,1,109.23,19.23Z"/><path d="M110.58,23.35l-.49,0a1.72,1.72,0,0,0,1.34,1.57l.1-.47A1.25,1.25,0,0,1,110.58,23.35Z"/><path d="M101.34,25l.21.44a6.31,6.31,0,0,0,1.7-1.2l-.35-.35A5.54,5.54,0,0,1,101.34,25Z"/><path d="M102.24,19.77l-.47.14a3.51,3.51,0,0,0,1.45,1.89l.26-.42A2.93,2.93,0,0,1,102.24,19.77Z"/><path d="M100.81,30.28a1.74,1.74,0,0,1,.4,1.26l.48,0a2.22,2.22,0,0,0-.5-1.62Z"/><path d="M110.1,33.73a8.66,8.66,0,0,1,1,.73l.33-.36a7.74,7.74,0,0,0-1-.78Z"/><path d="M101.66,37.82a1,1,0,0,1,0,.14l.16.46a.67.67,0,0,0,.36-.47l.6-2.15-.47-.13Z"/><path d="M97.24,25.11a7.4,7.4,0,0,0,1.44,3.48l.39-.29a7,7,0,0,1-1.35-3.25Z"/><path d="M98.53,22.05l0,.3-.15.1a.22.22,0,0,1,0-.11,3.71,3.71,0,0,1-.67.4l.22.44a4.81,4.81,0,0,0,.75-.45.47.47,0,0,0,.18-.47A.3.3,0,0,0,98.53,22.05Z"/><path d="M102.7,27.21a5.68,5.68,0,0,0,1.19.81l.22-.43a5.86,5.86,0,0,1-1.09-.75Z"/><polygon points="98.68 33.05 98.7 33.61 99.19 33.59 99.16 33.02 98.68 33.05"/><polygon points="105.08 30.46 105.48 30.75 106.14 29.85 105.74 29.57 105.08 30.46"/><polygon points="103.74 31.52 104.13 31.8 104.56 31.22 104.17 30.93 103.74 31.52"/><polygon points="101.98 33.25 102.44 33.41 102.65 32.82 102.19 32.66 101.98 33.25"/><path d="M103.82,38l-.48.08a.74.74,0,0,0,.53.6l.13-.47A.26.26,0,0,1,103.82,38Z"/><rect x="111.89" y="32.85" width="1.06" height="0.49" transform="translate(10.42 90.8) rotate(-45.9)"/><path d="M106.51,25.73c.47.18.95.35,1.43.49l.15-.46c-.47-.15-.94-.31-1.4-.48Z"/><path d="M106.39,22.85a5.55,5.55,0,0,1,.53,1l.45-.18a6.18,6.18,0,0,0-.57-1.08Z"/><polygon points="105.94 20.17 106.42 20.2 106.5 18.96 106.02 18.93 105.94 20.17"/><path d="M112.06,28.41l-.49.06.11.61-.59,0,0,.49.6,0a.41.41,0,0,0,.44-.51Z"/><polygon points="99.07 25.41 99.48 25.67 100.49 24.09 100.08 23.83 99.07 25.41"/><path d="M98.9,33.46l-.07.48a7,7,0,0,0,.91.07,6.5,6.5,0,0,0,2.38-.46l-.18-.45A6,6,0,0,1,98.9,33.46Z"/><path d="M95.74,28.89l0,.49a4.3,4.3,0,0,0,1.78-.51l-.23-.43A3.83,3.83,0,0,1,95.74,28.89Z"/><path d="M103.23,29.78l-.08.48a11.66,11.66,0,0,0,2,.17h.56l0-.49A11.69,11.69,0,0,1,103.23,29.78Z"/><path d="M100.49,28.25a.89.89,0,0,1,0-.59l-.43-.23a1.36,1.36,0,0,0-.06.91,9.24,9.24,0,0,0,.36,1.34,1.5,1.5,0,0,1,.12.42.45.45,0,0,1-.07.34l.38.31a.92.92,0,0,0,.18-.7,2.35,2.35,0,0,0-.17-.58A8.77,8.77,0,0,1,100.49,28.25Z"/><path d="M95.12,33.73a4,4,0,0,0-1,.92l.41.28a3.23,3.23,0,0,1,.87-.8q.72-.52,1.47-1l-.27-.41C96.11,33,95.61,33.38,95.12,33.73Z"/><path d="M93,30.52l.48.05a3,3,0,0,1,.3-1l-.44-.21A3.48,3.48,0,0,0,93,30.52Z"/><path d="M94.39,27.36l.47.11a17.66,17.66,0,0,0,.39-2.27l-.48-.05A19.28,19.28,0,0,1,94.39,27.36Z"/><path d="M103.67,27.45l.32.38a8.83,8.83,0,0,0,3-5.31l-.49-.07A8.17,8.17,0,0,1,103.67,27.45Z"/><path d="M111.19,28.45l.23.43a33.7,33.7,0,0,0,3.63-2.24l-.28-.4A34.4,34.4,0,0,1,111.19,28.45Z"/><path d="M104.57,34.86l-.2.44a6.75,6.75,0,0,0,2.69.56,6.31,6.31,0,0,0,1.37-.14l-.1-.48A6.22,6.22,0,0,1,104.57,34.86Z"/><path d="M109.76,31.44c.3,1.23.58,2.49.84,3.73l.48-.1c-.26-1.25-.54-2.51-.85-3.75Z"/><polygon points="98.21 37.7 104.21 39.84 104.38 39.38 98.37 37.24 98.21 37.7"/><path d="M99.13,18.42a19.82,19.82,0,0,1,3.32,4.84l.44-.21a19.87,19.87,0,0,0-3.41-5Z"/><path d="M96.16,22.77l.48.05c.07-.67.1-1.35.12-2h-.49C96.26,21.44,96.22,22.12,96.16,22.77Z"/><path d="M107.9,28.12a4,4,0,0,0-.2.86l.49,0a3.59,3.59,0,0,1,.19-.81,23.16,23.16,0,0,0,.79-3.51l-.49-.06A22.25,22.25,0,0,1,107.9,28.12Z"/><path d="M111.82,31.4a13.55,13.55,0,0,0,2.34,1.19l.18-.46A13.29,13.29,0,0,1,112.08,31Z"/><rect x="101.24" y="34.86" width="0.49" height="3.4" transform="translate(28.22 115.73) rotate(-67.03)"/><path d="M103.68,33.19a1.29,1.29,0,0,1,.09-.16l-.43-.25a2,2,0,0,0-.26.78l0,.41,2.58-1-.18-.46Z"/><path d="M107,32.6l.48.07a19.5,19.5,0,0,1,.45-2.12l-.47-.13A18.38,18.38,0,0,0,107,32.6Z"/><path d="M110.37,24a3.5,3.5,0,0,0,.43,1.9l.43-.23a3.12,3.12,0,0,1-.38-1.64Z"/><path d="M110.09,28.31l-.44-.2a1.72,1.72,0,0,0,.44,2l.31-.37A1.24,1.24,0,0,1,110.09,28.31Z"/><path d="M101.19,25.36l0,.49h.25a6.55,6.55,0,0,0,1.81-.26l-.14-.47A6.12,6.12,0,0,1,101.19,25.36Z"/><path d="M104.44,21.21l-.48-.1a3.49,3.49,0,0,0,.39,2.35l.42-.24A3,3,0,0,1,104.44,21.21Z"/><path d="M98.21,29.79A1.74,1.74,0,0,1,98,31.08l.41.27a2.21,2.21,0,0,0,.33-1.66Z"/><path d="M104.74,37.23a7.32,7.32,0,0,1,.51,1.1l.46-.17a8.27,8.27,0,0,0-.54-1.17Z"/><path d="M95.37,36.83a.39.39,0,0,1-.11.09l-.07.49h.07a.64.64,0,0,0,.46-.25l1.56-1.6-.36-.34Z"/><path d="M97.5,23.54a7.48,7.48,0,0,0-.37,3.75l.48-.07A7.1,7.1,0,0,1,98,23.71Z"/><path d="M99.94,21.72l-.18,0a.14.14,0,0,1,0-.12,3.43,3.43,0,0,1-.78,0l0,.49h.21a3.85,3.85,0,0,0,.67,0,.46.46,0,0,0,.38-.33.29.29,0,0,0-.15-.31Z"/><path d="M101.32,28a6.2,6.2,0,0,0,.66,1.28l.41-.27a6.34,6.34,0,0,1-.62-1.18Z"/><polygon points="94.77 31.72 95.21 31.93 95.45 31.42 95.01 31.21 94.77 31.72"/><polygon points="101.88 31.98 102.09 32.42 103.09 31.94 102.89 31.5 101.88 31.98"/><polygon points="100.2 32.26 100.4 32.7 101.06 32.4 100.85 31.95 100.2 32.26"/><polygon points="97.83 32.95 98.15 33.32 98.61 32.9 98.29 32.54 97.83 32.95"/><path d="M97.21,38l-.46-.17a.75.75,0,0,0,.18.79l.34-.35A.25.25,0,0,1,97.21,38Z"/><rect x="106.56" y="37.52" width="1.06" height="0.49" transform="translate(-6.4 34.05) rotate(-17.55)"/><path d="M105.38,28.49q.5.57,1,1.11l.35-.34c-.34-.35-.68-.72-1-1.09Z"/><path d="M106.64,25.89a6,6,0,0,1,0,1.12l.49.06a6.32,6.32,0,0,0,0-1.23Z"/><polygon points="107.51 23.31 107.92 23.57 108.58 22.52 108.17 22.26 107.51 23.31"/><path d="M108.34,33.88l-.53-.26-.21.44.54.27a.74.74,0,0,0,.25.06.39.39,0,0,0,.18,0,.44.44,0,0,0,.19-.26l.23-.62-.45-.17Z"/><rect x="101.25" y="22.79" width="1.87" height="0.49" transform="translate(37.01 105.04) rotate(-64.23)"/><path d="M102.35,31.78v.49h.14a6.44,6.44,0,0,0,3.07-.77l-.23-.43A6,6,0,0,1,102.35,31.78Z"/><path d="M98.66,27.63l.09.48a4.44,4.44,0,0,0,1.71-.71l-.28-.41A3.86,3.86,0,0,1,98.66,27.63Z"/><path d="M106.2,27.62l0,.49h.56a12.79,12.79,0,0,0,2.05-.17l-.08-.48A11.76,11.76,0,0,1,106.2,27.62Z"/><path d="M103.77,27.59a8.65,8.65,0,0,1-.47-1.17.92.92,0,0,1-.06-.58l-.45-.17a1.33,1.33,0,0,0,0,.9,8.67,8.67,0,0,0,.53,1.28,3.27,3.27,0,0,1,.17.41.49.49,0,0,1,0,.35l.41.26a.92.92,0,0,0,.09-.72A2.55,2.55,0,0,0,103.77,27.59Z"/><path d="M98.63,32.51a3.86,3.86,0,0,0-.88,1l.44.23a3.36,3.36,0,0,1,.77-.9c.44-.41.89-.8,1.34-1.19l-.32-.37Q99.29,31.9,98.63,32.51Z"/><path d="M96.1,29.57h.48a3.13,3.13,0,0,1,.18-1.05l-.46-.16A3.34,3.34,0,0,0,96.1,29.57Z"/><path d="M97.14,26.26l.48.06a17.63,17.63,0,0,0,.12-2.3h-.49A18.4,18.4,0,0,1,97.14,26.26Z"/><path d="M106.37,25.25l.36.34A8.79,8.79,0,0,0,109.06,20l-.49,0A8.18,8.18,0,0,1,106.37,25.25Z"/><path d="M114,25.35l.28.4a34.47,34.47,0,0,0,3.34-2.66l-.32-.36A36.48,36.48,0,0,1,114,25.35Z"/><path d="M108.14,32.5,108,33a6.68,6.68,0,0,0,1.93.28,6.56,6.56,0,0,0,2.15-.36l-.16-.46A6.18,6.18,0,0,1,108.14,32.5Z"/><path d="M112.89,28.49c.44,1.17.87,2.39,1.27,3.6l.47-.16c-.41-1.22-.84-2.43-1.29-3.61Z"/><rect x="105.08" y="33.36" width="0.49" height="6.37" transform="translate(46.36 131.17) rotate(-77.2)"/><path d="M101.09,16.45l-.31.37a19.43,19.43,0,0,1,3.87,4.42l.42-.26A19.79,19.79,0,0,0,101.09,16.45Z"/><path d="M98.23,19.51c.06.67.1,1.34.12,2h.49c0-.67-.06-1.35-.13-2Z"/><path d="M110.64,25.41a4.24,4.24,0,0,0-.09.88l.49,0a3.87,3.87,0,0,1,.1-.83,23.86,23.86,0,0,0,.36-3.57H111A23,23,0,0,1,110.64,25.41Z"/><path d="M114.93,28.2a13.69,13.69,0,0,0,2.46.9l.13-.47a13.67,13.67,0,0,1-2.39-.87Z"/><polygon points="103.58 34.32 106.84 35.26 106.98 34.79 103.72 33.85 103.58 34.32"/><path d="M107.06,31a1.22,1.22,0,0,1,.07-.17l-.45-.2a2.1,2.1,0,0,0-.17.81v.41L109,30.52l-.23-.44Z"/><path d="M110.28,30h.49a17.33,17.33,0,0,1,.19-2.16l-.49-.07A18.3,18.3,0,0,0,110.28,30Z"/><path d="M112.61,21.05a3.52,3.52,0,0,0,.65,1.83l.4-.28a3.12,3.12,0,0,1-.57-1.59Z"/><path d="M112.84,25.35l-.46-.16a1.73,1.73,0,0,0,.67,1.95l.27-.41A1.25,1.25,0,0,1,112.84,25.35Z"/><path d="M103.65,23.47l0,.49a6.39,6.39,0,0,0,2-.51l-.19-.44A6,6,0,0,1,103.65,23.47Z"/><path d="M105.9,18.92a3.47,3.47,0,0,0,.66,2.29l.4-.29a3,3,0,0,1-.57-2Z"/><path d="M101.22,28.22a1.73,1.73,0,0,1-.1,1.32l.44.22a2.21,2.21,0,0,0,.12-1.69Z"/><path d="M108.6,34.83a8.46,8.46,0,0,1,.63,1l.43-.22a6.88,6.88,0,0,0-.67-1.1Z"/><path d="M99.25,35.55a.57.57,0,0,1-.1.11l0,.49h0a.61.61,0,0,0,.48-.31L101,34.07l-.39-.3Z"/><path d="M100.25,22.22l-.47-.11a7.48,7.48,0,0,0,.07,3.76l.47-.13A7.11,7.11,0,0,1,100.25,22.22Z"/><path d="M102.1,19.73,102,20l-.18,0a.14.14,0,0,1,0-.11,4.88,4.88,0,0,1-.78.13l0,.49a6.08,6.08,0,0,0,.87-.15.45.45,0,0,0,.33-.37A.3.3,0,0,0,102.1,19.73Z"/><path d="M104.1,26.06a6,6,0,0,0,.8,1.19l.37-.32a5.89,5.89,0,0,1-.74-1.1Z"/><rect x="98.08" y="30.12" width="0.56" height="0.49" transform="translate(37.76 113.57) rotate(-71.09)"/><rect x="105.17" y="29.62" width="1.12" height="0.49" transform="translate(0.31 60.82) rotate(-32.14)"/><rect x="103.56" y="30.21" width="0.72" height="0.49" transform="translate(-0.28 59.95) rotate(-32.14)"/><polygon points="101.22 31.41 101.59 31.73 102 31.26 101.63 30.94 101.22 31.41"/><path d="M100.73,36.38a.76.76,0,0,0,.27.75l.3-.39a.25.25,0,0,1-.1-.26Z"/><rect x="110.47" y="34.84" width="1.06" height="0.49" transform="translate(-4.58 48.98) rotate(-24.4)"/><path d="M108.19,26.08c.37.33.75.66,1.15,1l.3-.38c-.38-.31-.76-.63-1.12-1Z"/><path d="M109.13,23.35a6,6,0,0,1,.13,1.12h.48a5.57,5.57,0,0,0-.14-1.22Z"/><rect x="109.55" y="19.99" width="1.24" height="0.49" transform="translate(44.95 111.3) rotate(-64.8)"/><path d="M111.77,31.08l-.56-.19-.16.46.57.19a.49.49,0,0,0,.21.05.33.33,0,0,0,.22-.08.39.39,0,0,0,.16-.27l.16-.65-.48-.11Z"/><rect x="100.84" y="24.47" width="1.87" height="0.49" transform="translate(34.47 104.96) rotate(-63.66)"/><path d="M101.85,33.46V34h.21a6.48,6.48,0,0,0,3-.75l-.23-.43A6,6,0,0,1,101.85,33.46Z"/><path d="M98.21,29.27l.08.48a4.47,4.47,0,0,0,1.72-.7l-.28-.4A4,4,0,0,1,98.21,29.27Z"/><path d="M105.75,29.33l0,.49.69,0a12.45,12.45,0,0,0,1.93-.15l-.08-.49A12.36,12.36,0,0,1,105.75,29.33Z"/><path d="M103.35,29.34l0-.06a8.35,8.35,0,0,1-.46-1.17,1,1,0,0,1,0-.59l-.46-.18a1.42,1.42,0,0,0,0,.91,9.4,9.4,0,0,0,.49,1.24l0,.06a1.85,1.85,0,0,1,.16.4.45.45,0,0,1,0,.35l.41.26a.88.88,0,0,0,.1-.72A2.72,2.72,0,0,0,103.35,29.34Z"/><path d="M98.13,34.15a3.82,3.82,0,0,0-.88,1l.43.23a3.51,3.51,0,0,1,.78-.89q.66-.6,1.35-1.17L99.49,33C99,33.35,98.58,33.75,98.13,34.15Z"/><path d="M95.62,31.19h.49a2.82,2.82,0,0,1,.19-1L95.84,30A3.55,3.55,0,0,0,95.62,31.19Z"/><path d="M96.7,27.89l.48.06a17.64,17.64,0,0,0,.14-2.3h-.49A16.68,16.68,0,0,1,96.7,27.89Z"/><path d="M105.94,27l.35.33a8.74,8.74,0,0,0,2.39-5.6l-.49,0A8.24,8.24,0,0,1,105.94,27Z"/><path d="M113.52,27.13l.27.4a34.15,34.15,0,0,0,3.37-2.62l-.32-.36A36,36,0,0,1,113.52,27.13Z"/><path d="M107.65,34.23l-.15.46a6.35,6.35,0,0,0,2,.31,6.84,6.84,0,0,0,2.1-.34l-.16-.46A6.22,6.22,0,0,1,107.65,34.23Z"/><path d="M112.42,30.26c.44,1.19.86,2.41,1.25,3.61l.46-.15c-.39-1.21-.81-2.43-1.25-3.63Z"/><rect x="104.55" y="35.07" width="0.49" height="6.37" transform="translate(43.41 131.4) rotate(-76.67)"/><path d="M100.75,18.11l-.32.37a19.42,19.42,0,0,1,3.83,4.46l.42-.26A20.45,20.45,0,0,0,100.75,18.11Z"/><path d="M97.85,21.15c.06.66.09,1.33.11,2h.48c0-.67,0-1.35-.1-2Z"/><path d="M110.22,27.11v.07a4.07,4.07,0,0,0-.1.87l.49,0a3.35,3.35,0,0,1,.09-.76V27.2a23.64,23.64,0,0,0,.4-3.57h-.49A22.73,22.73,0,0,1,110.22,27.11Z"/><path d="M114.47,30a14.48,14.48,0,0,0,2.45.92l.13-.47a13.55,13.55,0,0,1-2.37-.89Z"/><polygon points="103.06 36.01 106.32 36.98 106.46 36.51 103.2 35.54 103.06 36.01"/><path d="M106.58,32.67l.06-.17-.44-.2a1.88,1.88,0,0,0-.18.81v.4l2.46-1.25-.22-.44Z"/><path d="M109.8,31.72h.49a19.55,19.55,0,0,1,.21-2.15L110,29.5A18.34,18.34,0,0,0,109.8,31.72Z"/><path d="M112.21,22.82a3.59,3.59,0,0,0,.65,1.84l.4-.28a3.15,3.15,0,0,1-.56-1.59Z"/><path d="M112.41,27.12,112,27a1.73,1.73,0,0,0,.66,2l.27-.41A1.24,1.24,0,0,1,112.41,27.12Z"/><path d="M103.24,25.16l0,.48a6.47,6.47,0,0,0,2-.48l-.19-.45A6.09,6.09,0,0,1,103.24,25.16Z"/><path d="M105.53,20.63a3.45,3.45,0,0,0,.64,2.29l.4-.28a3,3,0,0,1-.55-2Z"/><path d="M100.76,29.89a1.71,1.71,0,0,1-.11,1.31l.44.23a2.21,2.21,0,0,0,.14-1.69Z"/><path d="M108.08,36.56a9.32,9.32,0,0,1,.62,1l.43-.22a8.92,8.92,0,0,0-.65-1.11Z"/><path d="M98.72,37.19a.57.57,0,0,1-.1.11l0,.49h0a.69.69,0,0,0,.49-.3l1.36-1.76-.39-.3Z"/><path d="M99.85,23.88l-.47-.12a7.41,7.41,0,0,0,0,3.77l.47-.13A7,7,0,0,1,99.85,23.88Z"/><path d="M101.72,21.4l-.12.27-.18,0a.14.14,0,0,1,0-.11,4.21,4.21,0,0,1-.78.12l0,.49a5,5,0,0,0,.86-.14.45.45,0,0,0,.34-.37A.3.3,0,0,0,101.72,21.4Z"/><path d="M103.66,27.75a6.43,6.43,0,0,0,.8,1.2l.37-.32a6.41,6.41,0,0,1-.74-1.1Z"/><polygon points="97.56 32.18 98.02 32.35 98.2 31.81 97.74 31.65 97.56 32.18"/><polygon points="104.65 31.66 104.91 32.08 105.86 31.49 105.6 31.07 104.65 31.66"/><polygon points="103.01 32.13 103.27 32.55 103.88 32.17 103.63 31.75 103.01 32.13"/><polygon points="100.73 33.08 101.1 33.4 101.51 32.93 101.14 32.61 100.73 33.08"/><path d="M100.19,38a.75.75,0,0,0,.27.75l.3-.38a.28.28,0,0,1-.09-.26Z"/><rect x="109.94" y="36.6" width="1.06" height="0.49" transform="translate(-5.47 47.78) rotate(-23.83)"/><path d="M107.75,27.81q.54.5,1.14,1l.31-.38c-.39-.32-.77-.65-1.12-1Z"/><path d="M108.71,25.09a5.19,5.19,0,0,1,.12,1.12h.49a5.47,5.47,0,0,0-.13-1.21Z"/><rect x="109.17" y="21.73" width="1.24" height="0.49" transform="translate(42.27 111.29) rotate(-64.23)"/><path d="M111.29,32.84l-.56-.19-.16.46.56.2a.78.78,0,0,0,.21,0,.38.38,0,0,0,.22-.07.39.39,0,0,0,.16-.27l.17-.65-.48-.12Z"/><polygon points="99.4 24.39 99.67 26.25 100.16 26.17 99.89 24.32 99.4 24.39"/><path d="M104.81,32.44l.26.41a6.46,6.46,0,0,0,2.23-2.44l-.43-.22A6,6,0,0,1,104.81,32.44Z"/><path d="M99.43,31.06l.34.35a4.45,4.45,0,0,0,1-1.55l-.46-.17A4,4,0,0,1,99.43,31.06Z"/><path d="M105.67,26.83l.26.42A12.73,12.73,0,0,0,108,25.66l-.34-.35A11.85,11.85,0,0,1,105.67,26.83Z"/><path d="M103.7,28.2l-.06,0a7.89,7.89,0,0,1-1-.7.91.91,0,0,1-.37-.45l-.48.1a1.32,1.32,0,0,0,.54.73,9.83,9.83,0,0,0,1.11.75l.06,0a1.88,1.88,0,0,1,.36.24.49.49,0,0,1,.17.3l.48,0a.88.88,0,0,0-.32-.64A2.58,2.58,0,0,0,103.7,28.2Z"/><path d="M102.13,35.12a3.92,3.92,0,0,0-.15,1.35l.49-.06a3.5,3.5,0,0,1,.14-1.17c.14-.58.28-1.16.44-1.74l-.47-.13C102.42,34,102.27,34.54,102.13,35.12Z"/><path d="M97.88,33a3.44,3.44,0,0,0,.51,1.12l.4-.28a3.21,3.21,0,0,1-.44-1Z"/><path d="M96.25,28.86a18.74,18.74,0,0,1,1.15,1.92l.43-.22a17.1,17.1,0,0,0-1.18-2Z"/><path d="M103.35,19.15a8.29,8.29,0,0,1,1.14,5.63l.48.08a8.75,8.75,0,0,0-1.21-6Z"/><path d="M110.82,20.62l.46.17a35.64,35.64,0,0,0,1.29-4.07l-.47-.11A34,34,0,0,1,110.82,20.62Z"/><path d="M110,29.79l.15.47a6.75,6.75,0,0,0,3.34-2.34l-.39-.3A6.08,6.08,0,0,1,110,29.79Z"/><path d="M111.7,23.81c1,.76,2.09,1.52,3.07,2.27l.3-.38c-1-.76-2-1.53-3.09-2.28Z"/><polygon points="106.89 35.65 107.06 36.11 113 33.8 112.83 33.35 106.89 35.65"/><path d="M95.14,20.92a19.53,19.53,0,0,1,5.68,1.49L101,22a20.33,20.33,0,0,0-5.83-1.53Z"/><path d="M94.53,24.57c.43.53.84,1.06,1.22,1.59l.39-.29c-.38-.54-.8-1.08-1.23-1.61Z"/><path d="M106.85,19.11l-.41.26a22.46,22.46,0,0,1,1.68,3.15,4.21,4.21,0,0,0,.42.78l.39-.29a4.19,4.19,0,0,1-.39-.74A23.36,23.36,0,0,0,106.85,19.11Z"/><path d="M113.16,22l.07.48a15.08,15.08,0,0,0,2.55-.63l-.16-.47A14.07,14.07,0,0,1,113.16,22Z"/><rect x="107.09" y="32.86" width="3.4" height="0.49" transform="translate(-4.91 34.99) rotate(-17.88)"/><path d="M108.25,29.12a1.16,1.16,0,0,1,0-.18l-.48.08a1.93,1.93,0,0,0,.31.77l.22.34,1.31-2.43-.43-.23Z"/><path d="M109.29,24.55a20.47,20.47,0,0,0,1.07,1.95l.42-.26a17.59,17.59,0,0,1-1-1.9Z"/><path d="M107.31,17.81A3.67,3.67,0,0,0,108.88,19l.17-.46a3.12,3.12,0,0,1-1.36-1Z"/><path d="M111.07,22.12a1.25,1.25,0,0,1-1.16-.88l-.47.13a1.73,1.73,0,0,0,1.63,1.24h0v-.49Z"/><path d="M101.24,24.82l.3.38a6.23,6.23,0,0,0,1.4-1.54l-.41-.27A5.88,5.88,0,0,1,101.24,24.82Z"/><path d="M101,19.55l-.43.25a3.51,3.51,0,0,0,1.83,1.52l.16-.46A3,3,0,0,1,101,19.55Z"/><path d="M102.18,29.73l-.3.39a1.74,1.74,0,0,1,.66,1.15l.48-.06A2.24,2.24,0,0,0,102.18,29.73Z"/><path d="M111.69,31.47a7.92,7.92,0,0,1,1.11.51l.23-.43a8.27,8.27,0,0,0-1.17-.54Z"/><path d="M104.34,37.3c0,.11,0,.14,0,.14l.25.42a.64.64,0,0,0,.25-.54L105,35.1l-.48,0Z"/><path d="M97.72,25.69l-.45.17a7.42,7.42,0,0,0,2.16,3.08l.32-.37A7.05,7.05,0,0,1,97.72,25.69Z"/><path d="M97.86,22.59l0,.29-.12.14c-.05-.05-.06-.1-.05-.11a3.64,3.64,0,0,1-.57.54l.3.39a5.29,5.29,0,0,0,.64-.61.47.47,0,0,0,.07-.5A.3.3,0,0,0,97.86,22.59Z"/><path d="M103.06,26.72a6,6,0,0,0,1.33.53l.13-.47a5.74,5.74,0,0,1-1.23-.49Z"/><polygon points="100.4 33.28 100.54 33.83 101.02 33.7 100.87 33.16 100.4 33.28"/><rect x="105.98" y="28.72" width="1.12" height="0.49" transform="translate(36.99 114.71) rotate(-66.16)"/><rect x="105.01" y="30.22" width="0.72" height="0.49" transform="translate(34.92 114.54) rotate(-66.16)"/><polygon points="103.67 32.77 104.15 32.83 104.22 32.21 103.74 32.15 103.67 32.77"/><path d="M106.49,37l-.46.18a.78.78,0,0,0,.65.47l0-.49A.25.25,0,0,1,106.49,37Z"/><rect x="113.29" y="30.1" width="1.06" height="0.49" transform="translate(28.37 111.42) rotate(-58.42)"/><path d="M106.46,24.45c.49.07,1,.12,1.5.17l0-.49c-.49,0-1-.1-1.47-.17Z"/><path d="M105.71,21.66a5.86,5.86,0,0,1,.73.85l.4-.28a6.29,6.29,0,0,0-.79-.92Z"/><rect x="104.58" y="17.87" width="0.49" height="1.24" transform="translate(-1.6 16.37) rotate(-8.86)"/><path d="M112.45,25.85,112,26l.17.46.06.11-.56.15.12.47.58-.15a.47.47,0,0,0,.34-.26.49.49,0,0,0,0-.33Z"/><rect x="99.92" y="30.47" width="1.87" height="0.49" transform="translate(1.97 67.27) rotate(-37.22)"/><path d="M97,38.58,96.8,39a6.39,6.39,0,0,0,3,.77H100l0-.49A6,6,0,0,1,97,38.58Z"/><path d="M95.64,33.2l-.14.47a4.4,4.4,0,0,0,1.25.19,3.81,3.81,0,0,0,.59,0l-.07-.48A3.9,3.9,0,0,1,95.64,33.2Z"/><path d="M102.12,37.05a12.84,12.84,0,0,0,2.4,1.05l.14-.47a11.48,11.48,0,0,1-2.3-1Z"/><path d="M99.83,34.16a8.52,8.52,0,0,0-.11,1.33v.07a1.89,1.89,0,0,1,0,.42.47.47,0,0,1-.18.3l.25.42a1,1,0,0,0,.41-.6,2.55,2.55,0,0,0,0-.54V35.5a9,9,0,0,1,.12-1.26.86.86,0,0,1,.21-.54l-.33-.37A1.37,1.37,0,0,0,99.83,34.16Z"/><path d="M93.39,37.54a3.85,3.85,0,0,0-1.25.52l.29.4A3.37,3.37,0,0,1,93.52,38c.58-.16,1.15-.31,1.74-.45l-.12-.48Z"/><path d="M92.47,33.77l.43.22a2.94,2.94,0,0,1,.63-.85l-.33-.36A3.53,3.53,0,0,0,92.47,33.77Z"/><path d="M94.9,31.3l.4.27a16.54,16.54,0,0,0,1.15-2L96,29.36A19.86,19.86,0,0,1,94.9,31.3Z"/><path d="M103.58,34.59l.17.46a8.76,8.76,0,0,0,4.63-3.95l-.43-.23A8.24,8.24,0,0,1,103.58,34.59Z"/><path d="M110.29,38.11l.07.49a37.26,37.26,0,0,0,4.18-.84l-.12-.48A33.92,33.92,0,0,1,110.29,38.11Z"/><path d="M101.53,42.2A6.67,6.67,0,0,0,105.2,44l.07-.48a6.18,6.18,0,0,1-3.4-1.66Z"/><path d="M107.42,44.22l.49.07c.18-1.27.35-2.55.5-3.8l-.49-.06C107.78,41.68,107.61,43,107.42,44.22Z"/><rect x="97.28" y="41" width="0.49" height="6.37" transform="translate(1.15 90.82) rotate(-50.2)"/><path d="M102.43,24.54a19.67,19.67,0,0,1,1.45,5.7l.48,0a19.68,19.68,0,0,0-1.48-5.84Z"/><path d="M98.14,27.61l.44.21q.44-.91.81-1.86l-.46-.18C98.69,26.4,98.42,27,98.14,27.61Z"/><path d="M107.32,36.67a3.88,3.88,0,0,0-.49.75l.45.2a3.58,3.58,0,0,1,.42-.65l0,0a23.82,23.82,0,0,0,2-3l-.43-.24A23.19,23.19,0,0,1,107.32,36.67Z"/><path d="M110.25,40.8l-.38.3A14.76,14.76,0,0,0,111.65,43l.33-.37A13.86,13.86,0,0,1,110.25,40.8Z"/><polygon points="96.98 41.4 99.46 43.72 99.79 43.37 97.31 41.04 96.98 41.4"/><path d="M101.61,40l.13-.12-.3-.38a1.88,1.88,0,0,0-.52.64l-.19.36,2.76,0V40Z"/><path d="M104.92,40.56l.43.24A17.64,17.64,0,0,1,106.5,39l-.39-.28A18.56,18.56,0,0,0,104.92,40.56Z"/><path d="M111.05,33.68a3.55,3.55,0,0,0-.25,1.93l.48-.07a3.07,3.07,0,0,1,.22-1.67Z"/><path d="M109,37.26a1.74,1.74,0,0,0-.28,2.05l.42-.24a1.26,1.26,0,0,1,.21-1.46Z"/><path d="M101.78,32.22a6.46,6.46,0,0,0,2,.47l0-.49a6.06,6.06,0,0,1-1.87-.43Z"/><path d="M106,28.74a3.48,3.48,0,0,0-.45,2.34l.48-.08a3,3,0,0,1,.39-2Z"/><path d="M97,36l.29.39A2.22,2.22,0,0,0,98.13,35l-.48-.07A1.8,1.8,0,0,1,97,36Z"/><path d="M101.22,44.13a8.21,8.21,0,0,1,.09,1.21h.49a9.1,9.1,0,0,0-.1-1.29Z"/><path d="M92.56,40.53a.38.38,0,0,1-.14,0l-.24.43a.53.53,0,0,0,.23.06.87.87,0,0,0,.36-.1l2-1-.21-.44Z"/><path d="M97.49,32.18l.48.1a7.12,7.12,0,0,1,1.54-3.17l-.37-.31A7.44,7.44,0,0,0,97.49,32.18Z"/><path d="M102.06,27.92l-.18-.05c0-.06.05-.09.07-.09a4.15,4.15,0,0,1-.76-.23L101,28a4.81,4.81,0,0,0,.84.26h.09a.47.47,0,0,0,.38-.19.32.32,0,0,0,0-.35Z"/><path d="M101.19,34.28a6.73,6.73,0,0,0,.18,1.42l.48-.11a5.37,5.37,0,0,1-.17-1.32Z"/><rect x="93.84" y="35.26" width="0.56" height="0.49" transform="translate(1.83 75.52) rotate(-44.11)"/><polygon points="100.34 38.22 100.38 38.7 101.49 38.6 101.45 38.12 100.34 38.22"/><rect x="98.68" y="37.87" width="0.72" height="0.49" transform="translate(-3 8.97) rotate(-5.11)"/><polygon points="96.19 37.74 96.38 38.19 96.96 37.96 96.77 37.51 96.19 37.74"/><path d="M93.5,41.94a.76.76,0,0,0-.1.79l.44-.2a.28.28,0,0,1,0-.28Z"/><polygon points="102.7 45.67 103.75 45.72 103.78 45.23 102.72 45.18 102.7 45.67"/><path d="M104.83,36.15c.17.45.36.92.58,1.4l.44-.2c-.21-.47-.4-.93-.57-1.37Z"/><path d="M106.51,35.2l.44.21a5.77,5.77,0,0,0,.42-1.14l-.47-.12A5.12,5.12,0,0,1,106.51,35.2Z"/><rect x="108.63" y="31.6" width="1.24" height="0.49" transform="translate(3.4 73.62) rotate(-37.79)"/><path d="M105.75,42.23l-.41-.42-.35.34.41.43a.5.5,0,0,0,.34.18h.06a.44.44,0,0,0,.27-.17l.43-.51-.37-.32Z"/></g><path class="cls-6" d="M93.87,13.41A14.85,14.85,0,0,0,91.15,22c.16,4.79-.91,7,7.1,6.44s9.5-3.05,9.5-3.05S101.72,7.13,93.87,13.41Z"/><path d="M116.67,9.61s2.73-6.69-2-8.92a6.42,6.42,0,0,0-7.77,1.65S105-1.29,99.44.77A5.23,5.23,0,0,0,96,7.88s-4.43.38-1.75,5.24c0,0,6.79,10,13.48,12.27l5.68-3.8s7.12.93,6-5.92C119.4,15.67,122.62,10,116.67,9.61Z"/><path class="cls-9" d="M60.64,105.21l1.1.17c.06-.35,5.54-35,6.68-39.88l-1.08-.26C66.19,70.17,60.87,103.78,60.64,105.21Z"/><path class="cls-12" d="M86.76,102.51a.73.73,0,0,0-.41-.12H15.08a.74.74,0,0,0-.41,1.36l22.09,14.58a.72.72,0,0,0,.4.12l71.52,1.84c.74,0,1.74-2,.17-3.2Z"/><rect x="12.61" y="45.41" width="73.97" height="58.85" rx="2.31"/><path d="M108.85,119,86.76,104.38a.73.73,0,0,0-.41-.12H15.08a.74.74,0,0,0-.41,1.36L36.76,120.2a.73.73,0,0,0,.4.13h71.28A.75.75,0,0,0,108.85,119Z"/><rect class="cls-7" x="41.7" y="62.3" width="15.78" height="4.03" rx="1.83"/><rect class="cls-9" x="21.53" y="316.98" width="102.73" height="1.11"/><rect class="cls-9" x="181.32" y="316.98" width="36.55" height="1.11"/><path class="cls-4" d="M120.43,45c-16,2.66-30.43,19.43-16,38.67s23.36,29.44,23.36,29.44l30.53-6.18C148.13,68.9,136.34,42.36,120.43,45Z"/><path class="cls-3" d="M105.67,107.23c-6.2-1.19-8.29-3.18-14.08-2.54-2.41.27-32.6,1.42-27.36,5.54S80,112.31,80,112.31s-17.22,6.42-14.9,9.3,21.34-3,21.34-3-10.61,4.25-10.14,8.46,6.15,2.1,9-.77S94,124.06,94,124.06c6.63,3.81,7.47,1.44,16,.44,13.75-1.62,17.81-.1,23.65-.23,24.28-.52,25.57-13.59,23.84-19.86C151,80.92,111.87,108.42,105.67,107.23Z"/><path class="cls-5" d="M105.71,107a45.42,45.42,0,0,1-5.36-1.41,18.91,18.91,0,0,0-8.79-1.13c-.33,0-1.23.09-2.47.17-11.53.72-24.86,1.86-25.65,4.39-.15.46.07.92.65,1.38,3.93,3.09,10.66,2.79,14,2.41-3.9,1.56-12.68,5.33-13.37,7.86a1.14,1.14,0,0,0,.21,1.07c1.84,2.29,13.23-.53,18.7-2-3.16,1.59-7.87,4.48-7.54,7.43l.45,0c-.45-4,9.89-8.18,10-8.22l-.14-.42c-5.26,1.61-19.28,5.3-21.11,3a.67.67,0,0,1-.13-.67c.65-2.39,10.05-6.46,14.94-8.28l-.13-.42c-.1,0-10.48,2-15.58-2-.41-.33-.58-.63-.5-.89.8-2.57,19.21-3.71,25.26-4.09,1.25-.07,2.15-.13,2.49-.17a18.36,18.36,0,0,1,8.61,1.12,47.49,47.49,0,0,0,5.41,1.41c1.68.33,5.3-1.2,11.07-3.76l-.18-.4C111.82,105.36,107.37,107.33,105.71,107Z"/><rect class="cls-9" x="111.44" y="84.11" width="1.11" height="18.84" transform="translate(-33.81 87.92) rotate(-37.66)"/><path class="cls-7" d="M130.62,27.21c.24-1.36-1.83-1.94-2.08-.57a13.49,13.49,0,0,0,0,4.7c.24,1.36,2.32.78,2.08-.58A10.08,10.08,0,0,1,130.62,27.21Z"/><path class="cls-7" d="M131,41a8.89,8.89,0,0,1,0-3.37c.26-1.36-1.82-1.94-2.08-.58a12.05,12.05,0,0,0,0,4.52C129.16,42.92,131.24,42.35,131,41Z"/><path class="cls-7" d="M131.06,52.69a8.3,8.3,0,0,1-.21-3.9c.24-1.36-1.83-1.94-2.08-.58a11.09,11.09,0,0,0,.21,5.06A1.08,1.08,0,0,0,131.06,52.69Z"/><path class="cls-7" d="M127.6,60.16v5.21a1.08,1.08,0,0,0,2.16,0V60.16A1.08,1.08,0,0,0,127.6,60.16Z"/><path class="cls-7" d="M135.27,33.28a4.75,4.75,0,0,1-.17-2.84,1.08,1.08,0,0,0-2.08-.57,6.84,6.84,0,0,0,.17,4C133.66,35.15,135.74,34.59,135.27,33.28Z"/><path class="cls-7" d="M133.23,40.38,133,46.66c-.05,1.39,2.1,1.39,2.16,0l.24-6.28C135.44,39,133.29,39,133.23,40.38Z"/><path class="cls-7" d="M133,53.38a13.49,13.49,0,0,0,0,4.7c.22,1.37,2.29.79,2.07-.57a10.38,10.38,0,0,1,.05-3.56C135.36,52.59,133.29,52,133,53.38Z"/><path class="cls-7" d="M135,69.34a6.89,6.89,0,0,1-.13-3c.25-1.36-1.83-1.94-2.08-.57a9.63,9.63,0,0,0,.13,4.17A1.08,1.08,0,0,0,135,69.34Z"/><path class="cls-7" d="M140.47,28.67l-.1-.85c0-.11,0-.18,0-.24a1.13,1.13,0,0,0-.72-1.91,1.49,1.49,0,0,0-1.46,1.64,26.62,26.62,0,0,0,.39,3.2,1.11,1.11,0,0,0,1.07,1.08,1.09,1.09,0,0,0,1.08-1.08C140.62,29.9,140.55,29.28,140.47,28.67Z"/><path class="cls-7" d="M141.58,36.61c-.13-1.36-2.28-1.38-2.15,0s.24,2.64.37,4,2.28,1.38,2.15,0S141.7,37.93,141.58,36.61Z"/><path class="cls-7" d="M141,47.55c.12-1.38-2-1.37-2.15,0a29.08,29.08,0,0,0-.06,4c.07,1.38,2.22,1.38,2.15,0A29.08,29.08,0,0,1,141,47.55Z"/><path class="cls-7" d="M138.87,56.59a17.92,17.92,0,0,0-.29,5.32c.13,1.37,2.29,1.38,2.15,0a16.45,16.45,0,0,1,.21-4.75C141.21,55.81,139.14,55.23,138.87,56.59Z"/><path class="cls-7" d="M141.19,72.76a7.17,7.17,0,0,1-.3-3,1.07,1.07,0,0,0-1.08-1.07,1.1,1.1,0,0,0-1.07,1.07,8.74,8.74,0,0,0,.37,3.52C139.52,74.65,141.6,74.09,141.19,72.76Z"/><path class="cls-7" d="M147.87,32.73a9,9,0,0,1-.45-3.84c.13-1.38-2-1.37-2.15,0a10.34,10.34,0,0,0,.53,4.41C146.25,34.6,148.33,34,147.87,32.73Z"/><path class="cls-7" d="M145.55,40.38v4.13a1.08,1.08,0,0,0,2.15,0V40.38A1.08,1.08,0,0,0,145.55,40.38Z"/><path class="cls-7" d="M147.61,51.5c.12-1.38-2-1.37-2.16,0a28.94,28.94,0,0,0-.07,4c.08,1.38,2.23,1.39,2.16,0A27.42,27.42,0,0,1,147.61,51.5Z"/><path class="cls-7" d="M147.49,67.19a18.91,18.91,0,0,1-.44-4.92c0-1.39-2.11-1.38-2.16,0a22,22,0,0,0,.52,5.49C145.71,69.12,147.79,68.54,147.49,67.19Z"/><path class="cls-7" d="M152.72,29.32a9.12,9.12,0,0,1-.28-3.12c.11-1.39-2-1.38-2.15,0a10.93,10.93,0,0,0,.35,3.69A1.08,1.08,0,0,0,152.72,29.32Z"/><path class="cls-7" d="M153.44,39.19a7.9,7.9,0,0,1-.3-3.38,1.12,1.12,0,0,0-.75-1.33,1.08,1.08,0,0,0-1.32.76,10,10,0,0,0,.3,4.52C151.77,41.08,153.85,40.52,153.44,39.19Z"/><path class="cls-7" d="M151.34,46.2a10.59,10.59,0,0,0,0,4.16c.26,1.36,2.33.79,2.08-.57a7.87,7.87,0,0,1,0-3C153.69,45.42,151.62,44.84,151.34,46.2Z"/><path class="cls-7" d="M151.65,57a14.18,14.18,0,0,0-.34,4.77c.14,1.37,2.29,1.38,2.15,0a12.37,12.37,0,0,1,.27-4.2C154.06,56.18,152,55.61,151.65,57Z"/><path class="cls-7" d="M150.93,68.38v3.94a1.08,1.08,0,0,0,2.16,0V68.38A1.08,1.08,0,0,0,150.93,68.38Z"/><path class="cls-7" d="M159.16,32.43a10.64,10.64,0,0,1-.46-3.84c.08-1.38-2.08-1.38-2.15,0a12.4,12.4,0,0,0,.53,4.41C157.49,34.32,159.57,33.76,159.16,32.43Z"/><path class="cls-7" d="M159.31,44.41a20.39,20.39,0,0,1-.32-4.93c.06-1.38-2.09-1.38-2.16,0a23.6,23.6,0,0,0,.4,5.5C157.48,46.34,159.56,45.76,159.31,44.41Z"/><path class="cls-7" d="M159.31,55.71a23.27,23.27,0,0,1-.48-5.46,1.08,1.08,0,0,0-2.16,0,27.09,27.09,0,0,0,.56,6C157.51,57.64,159.59,57.07,159.31,55.71Z"/><path class="cls-7" d="M159.16,67.55a15.58,15.58,0,0,1-.45-4.56c.07-1.39-2.09-1.39-2.15,0a17.73,17.73,0,0,0,.52,5.13A1.08,1.08,0,0,0,159.16,67.55Z"/></g></g></svg>