<svg xmlns="http://www.w3.org/2000/svg" viewBox="0 0 293.93 426.07"><defs><style>.cls-1{fill:#8565ff;}.cls-2{fill:#445cd5;}.cls-3{fill:#38d6d6;}.cls-4{fill:#000102;}.cls-5{fill:#c2ff75;}.cls-6{fill:#6e59fa;}.cls-7{fill:#99a2fc;}.cls-8{fill:#efeefc;}.cls-9{fill:#fff;}.cls-10{fill:#001621;}.cls-11{fill:#fc2d65;}.cls-12{fill:#1fdd94;}</style></defs><g id="Layer_2" data-name="Layer 2"><g id="Layer_1-2" data-name="Layer 1"><path class="cls-1" d="M242.08,99.89c1.64-2.92,1.81-6.89,4.42-9,2.36-3,5.08-6.44,8.73-8.35,4.14-2.17,11.88-.84,16.47-1.36a1.34,1.34,0,0,1,1.56,1.53c-1.36,5.21-7.65,4.22-11.92,6.5a30.6,30.6,0,0,1,6.4,2.1,20.18,20.18,0,0,0,9.3-3.67c3.29-2.26,5.78-4.18,10.37-4.45a1.55,1.55,0,0,1,1.51.8c.57,1.26-.89,2.2-1.91,3.14-.67.62-1.36,1.26-2.06,1.89a14.63,14.63,0,0,1,7.34-2.42,1.52,1.52,0,0,1,1.51.8c.57,1.26-.88,2.19-1.91,3.14l-.47.43c.17,0,.32,0,.49-.06a1.54,1.54,0,0,1,1.51.81c.57,1.26-.88,2.19-1.91,3.14-1.36,1.25-2.79,2.58-4.3,3.85a14.86,14.86,0,0,1,2.57,0,1.3,1.3,0,0,1,1.23,1c.19,1.33-1.48,2-2.75,2.79a64.19,64.19,0,0,1-11.13,5.85c-6.08,2.22-15.85,2-21.8-.06C254,111.86,238.23,106.74,242.08,99.89Z"/><path class="cls-1" d="M166.49,383.65s-2,14.71,4,19.57,22.63,13.47,22.63,13.47-24,3.33-33.18,0-30.13-4.58-31.37-8.75,0-22.9,0-22.9Z"/><path class="cls-2" d="M89.3,219.07c-.4,18.17,5.21,41.53,9.77,60.28,2.89,11.73,5.37,21.66,5.72,27.43,1.18,19,9.13,65.17,12.58,81.71.61,2.88,1.06,4.86,1.33,5.66,10.08,3.89,40.26-4.78,53.17-9.47,5.54-20.45-4.16-171.88-3.94-173C169.86,201.75,89.4,214.08,89.3,219.07Z"/><path class="cls-3" d="M201.3,422.21c-2.17-4.09-8.08-6.39-12.16-7.86-3.1-1.11-5.47-.78-8.69-.66a65.42,65.42,0,0,1-11.61-.93c-13.63-1.9-29.1-5-40.81-12.71a27,27,0,0,0-4.84,8.73,30.69,30.69,0,0,0-.14,15.32.87.87,0,0,0,.81.61c2.82.31,5.65.54,8.49.6,2.1,0,5.17.49,7.19-.15,2.47-.79,2.59-4.68,2.9-7.31,4.07,2.49,6.66,6.84,11.7,7.65,6.86,1.1,14.51.27,21.45.3,7.28,0,14.6.27,21.88,0C199.88,425.74,202.87,425.18,201.3,422.21Z"/><path class="cls-4" d="M99.07,279.35c2.89,11.73,5.37,21.66,5.72,27.43,1.18,19,9.13,65.17,12.58,81.71,3.29-24.59.78-48.93-1.53-73.52-2.58-27.27,5.42-53.94,13.67-79.81.92-2.83-1.48-4.66-3.81-4.59a4.22,4.22,0,0,0-1.06-.4c-.45-3.26-6-4.16-7.44-.27C111.38,245.76,103.11,262.36,99.07,279.35Z"/><path class="cls-1" d="M56,383.65s-1.94,14.71,4,19.57,22.63,13.47,22.63,13.47-24,3.33-33.18,0-30.13-4.58-31.38-8.75,0-22.9,0-22.9Z"/><path class="cls-3" d="M90.83,422.21c-2.16-4.09-8.07-6.39-12.15-7.86-3.1-1.11-5.48-.78-8.7-.66a65.38,65.38,0,0,1-11.6-.93c-13.63-1.9-29.1-5-40.82-12.71a27.22,27.22,0,0,0-4.84,8.73,30.58,30.58,0,0,0-.13,15.32.85.85,0,0,0,.8.61c2.83.31,5.66.54,8.5.6,2.1,0,5.17.49,7.19-.15,2.46-.79,2.59-4.68,2.9-7.31,4.07,2.49,6.65,6.84,11.7,7.65,6.85,1.1,14.51.27,21.45.3,7.28,0,14.6.27,21.87,0C89.42,425.74,92.41,425.18,90.83,422.21Z"/><path class="cls-2" d="M111.31,216.8c-10.36-2.45-76.94-8-78.44-3.27C28.64,226.82,26.94,244,26,260c-.07,1.06-.12,2.13-.18,3.19-.92,16.64-1.16,31.59-2.81,38.86-5,21.75-11.54,82.1-11.29,87.75,8.57,6.56,40,6.76,53.67,5.91,11.09-18.07,49.6-155.1,50.94-165.19C117.07,224.72,118.08,218.42,111.31,216.8Z"/><path d="M42.76,232.76c-.39,4.64-.75,9.28-1.16,13.9-.21,2.36-.37,4.57-1.76,6.57A14.82,14.82,0,0,1,34,257.84c-2.84,1.14-4.66-.26-7.52-.62a.93.93,0,0,1-.4-.12c.06-.85.1-1.7.15-2.56h.25c2.15.27,3.58,1.07,5.75.62a8.27,8.27,0,0,0,6.44-6.5c1.21-5,.95-10.79,1.38-15.9C40.22,231.06,42.9,231.05,42.76,232.76Z"/><path class="cls-1" d="M207.3,155.22c-14.12,6.34-26.8-5.28-54.22-23.65S110.71,84.24,122.87,72s54.16,13.36,61.9,20.1S205,112.16,205,112.16s27-12.08,43.73-23.76l17.44,19.69S235.91,142.37,207.3,155.22Z"/><path class="cls-5" d="M175,81.88c-15.64-9.47-42.63-18.72-52.1-9.89-17,15.83,29.5,63.21,30.25,63.72C166.71,124.24,176.53,99.14,175,81.88Z"/><path class="cls-5" d="M166.9,161c-.14-1.62-.3-3.22-.47-4.84q-2.09-20.88-5.53-41.59c-.21-1.33-.45-2.68-.67-4q-.24-1.45-.51-2.91c-2.32-12.82-5.8-25.18-17.46-32.93-9.73-6.48-23.44-11.65-35.6-10a3.19,3.19,0,0,0-2,0c-13.25,3.76-26.81,8.57-36.85,18.42C56.9,93.83,52.19,108.84,48.75,123.34c-2.67,11.25-9.9,46.76-15.26,75-.31,1.56-.59,3.11-.87,4.61-2.36,12.6-4.25,23.28-5,29-.22,1.67,141.74,3.79,141.79,1.44A615.14,615.14,0,0,0,166.9,161Z"/><path class="cls-6" d="M113.87,63.4c-.15-2.12-.15-4.25-.22-6.36s.73-6.44-.6-8.41c-.71-1-2.75-1.69-3.74-2.26q-2.85-1.65-5.72-3.28a.77.77,0,0,0-1.08.28.76.76,0,0,0-.63.77,70.77,70.77,0,0,1-2.14,14.68c-.46,2-.93,4-1.39,6-.2.89-.86,2.36-.55,3.31.61,1.83,4,2.72,5.63,3.14a14,14,0,0,0,8.49-.21c1.07-.41,2.52-1,2.84-2.17S114,64.8,113.87,63.4Z"/><path class="cls-1" d="M125.57,33.72a31,31,0,0,0-.92-6.13c-.33-1.33-.64-4.26-1.76-5.23a2.12,2.12,0,0,0-.47-.26.86.86,0,0,0-.81-.76c-6.29-.24-16.06,1-20.88,5.88-.36.16-.73.3-1.09.48a.72.72,0,0,0-.29,1.09.91.91,0,0,0,0,.41c1.24,8.14,2.78,18,10.17,23,6.47,4.33,13.35,3.13,15.24-4.94A49.61,49.61,0,0,0,125.57,33.72Z"/><path class="cls-1" d="M85.28,206.65c-15.2-3-30.42-35.51-35.61-68.09s5.85-63.27,23.1-62.69,27.06,48.78,27.39,59-.44,37.63-.44,37.63,22.32.22,35.67-7.52l9.8,20.73S118.25,213.09,85.28,206.65Z"/><path class="cls-5" d="M80.34,140.35c6.77.16,21.7-2.14,21.67-3-.33-10.26-12-60.91-29.24-61.49C56.11,75.31,43.08,103.81,47,135.12,57.23,137.7,69.81,140.12,80.34,140.35Z"/><path class="cls-4" d="M169.4,234.17a.84.84,0,0,0,.84-.82c0-.15.17-14.84-1.19-52.18-1.39-38.42-7.56-67.88-11.25-85.49-4-18.93-22.88-26.32-23.07-26.39a.83.83,0,1,0-.59,1.56c.18.07,18.25,7.15,22,25.17,3.67,17.56,9.83,46.94,11.21,85.2,1.36,37.31,1.19,52,1.19,52.11a.82.82,0,0,0,.82.84Z"/><path class="cls-4" d="M65.36,396.56a.83.83,0,0,0,.78-.54C88.46,338.15,105.51,277,105.68,276.35a.84.84,0,0,0-.58-1,.85.85,0,0,0-1,.58c-.17.61-17.19,61.73-39.48,119.52a.83.83,0,0,0,.47,1.08A.8.8,0,0,0,65.36,396.56Z"/><path class="cls-1" d="M127.31,182.19a2.54,2.54,0,0,0,4.26.42c.23-.23.52-.41.77-.62a2.89,2.89,0,0,0,2.49,1.6c0,.07.09.16.13.23a2.78,2.78,0,0,0,3.44,2,5.19,5.19,0,0,0,.27.63c.53,2,3.31,0,7.88.93,9.93,1.92,19.76-.75,26.73-14.57a2.06,2.06,0,0,0-1.34-3.1,10.8,10.8,0,0,0-4.34,1.22c1.76-3.77,3.26-7.77,4.8-11.41,1.75-4.09-2.35-6.26-5.24-4.43.38-1.09.78-2.2,1.14-3.26,1.65-4.84-3.85-4.82-6.52-1-1.15-2.66-7.16-1.52-8.26,2.69a81.85,81.85,0,0,1-2.62,9.33,4,4,0,0,0-1.14,1l0,.05c.91-3.22,1.63-6.49,2.26-9.28,1-4.39-5.34-2.81-6.35,1.61-.79,3.46-1.9,4.61-3.07,8.15-.62,1.05-8.28-2-14.76,4.8C126.15,170.87,126.24,181.13,127.31,182.19Z"/><path class="cls-1" d="M104.63,43.09c-.44,3.21-5,5.1-6.58,1.65a5.4,5.4,0,0,1,.62-4.8c1-1.64,2.8-1.78,5-.45C104.41,40,104.78,42.05,104.63,43.09Z"/><path class="cls-7" d="M126.47,174.61h81l13-39.33a3.49,3.49,0,0,0-3.32-4.59H144.47a4.8,4.8,0,0,0-4.56,3.3Z"/><path class="cls-8" d="M128.55,174.61h81l13-39.33a3.49,3.49,0,0,0-3.31-4.59H146.56A4.8,4.8,0,0,0,142,134Z"/><path class="cls-8" d="M107.92,179.08h25.16v-4.47H103.45A4.47,4.47,0,0,0,107.92,179.08Z"/><path class="cls-7" d="M133,179.08h72.1a4.47,4.47,0,0,0,4.46-4.47h-81A4.47,4.47,0,0,0,133,179.08Z"/><path class="cls-9" d="M97.46,66.05c.6.44,7.2,4.3,9.18,4.53a1.43,1.43,0,0,1,.22.08c.2-.26,6.75-2.27,6.88-5,.07-1.27.42-1.55,1.13-.52,2.15,3.15,1.93,10-3.15,13-1.11-1.45-2.54-5.44-4.77-6.61-1.93.93-3,6.78-3.34,6.61C98.54,75.89,95.42,68.29,97.46,66.05Z"/><path class="cls-1" d="M145.19,180c.83-1.23,5.22-2.51,6.32-3.47a14.68,14.68,0,0,0,3.54-5.06c.68-1.43,2.6-2.36,3.86-.64s1,4.37.3,6.2c-2,5.41-7.92,6.82-13.06,7.5C144.56,184.72,144.33,181.26,145.19,180Z"/><path class="cls-10" d="M127.18,14.42c-2.74-5.2-10-5.18-15.43-3.42A22.35,22.35,0,0,0,97,17.92c-5.95,6.57-2.59,19.65,4.18,24.52a1.26,1.26,0,0,0,1.85-.75c.63-3.19,1.49-6.36,4.46-8.11a13.79,13.79,0,0,1,2.87-1.2,14.49,14.49,0,0,0-3.12,8.78,1.25,1.25,0,0,0,2.5,0c0-4.06,2.16-7.18,4.86-9.87.73-.16,1.45-.33,2.14-.53,3-.88,6.19-2,8.6-4.13C128.89,23.36,130,18.2,127.18,14.42Z"/><path class="cls-10" d="M94.53.19c-8.81-1.35-17,4.53-20,12.7-2.75,7.63.55,16.84,9.14,18.35,9,1.59,15.73-5.33,19.2-12.87a1.42,1.42,0,0,0,.87-.94C106.4,9.11,104,1.65,94.53.19Z"/><path class="cls-11" d="M103.62,11a42.12,42.12,0,0,1-10.38,17.9c-1.49,1.54,1.19,3.54,2.67,2a44.09,44.09,0,0,0,10.8-18.64C107.3,10.24,104.22,9,103.62,11Z"/><path class="cls-12" d="M74,379.23c1.86.55,1.41,2.29-.46,1.74q-8-2.39-16.06-4.61a1.92,1.92,0,0,1-1.12.07A499.8,499.8,0,0,1,1.2,362.59c-1.86-.58-1.44-2.14.46-1.74Q38.15,368.6,74,379.23Z"/><path class="cls-12" d="M61,351.9q8,2,16,3.68c1,.22,1.37.84,1.15,1.29L83,358.28c1.86.54,1.43,2.29-.45,1.74l-22-6.38c-17.17-4.18-34.16-9.11-50.85-14.74-1.79-.61-1.48-2.3.44-1.75Z"/><path class="cls-12" d="M87.12,339c.27.63-.34,1.28-1.59.94L16.3,321c-1.88-.52-1.43-2.23.46-1.74l69.89,18C88.17,337.64,88.17,338.84,87.12,339Z"/><path class="cls-12" d="M95.39,317.42c1.87.52,1.42,2.26-.46,1.74l-4.58-1.26a2.36,2.36,0,0,1-.5-.08L19.32,299.24c-1.89-.5-1.43-2.21.46-1.74Q57.7,307,95.39,317.42Z"/><path class="cls-12" d="M28.88,283.39,97.77,303.5c1.86.54,1.44,2.2-.46,1.74q-35.91-8.7-71.11-19.92c-1.84-.59-1.39-2.33.46-1.74l.62.2C27.44,283.38,28,283.13,28.88,283.39Z"/><path class="cls-12" d="M100.08,279.92c1.51.64.81,2.11-.84,1.6Q86.69,277.66,74,274.17l-12.17-3-37.55-9.38c-1.89-.47-1.43-2.21.46-1.74l17.87,4.46a2.15,2.15,0,0,1,1,0q15.5,3.67,30.85,7.93l7.79,1.94A117.31,117.31,0,0,1,100.08,279.92Z"/><path class="cls-12" d="M168.77,379.23c1.86.55,1.41,2.29-.46,1.74q-8-2.39-16.07-4.61a1.92,1.92,0,0,1-1.12.07,499.07,499.07,0,0,1-55.18-13.84c-1.87-.58-1.45-2.14.46-1.74Q132.88,368.6,168.77,379.23Z"/><path class="cls-12" d="M155.7,351.9q8,2,16,3.68c1,.22,1.37.84,1.16,1.29l4.87,1.41c1.87.54,1.43,2.29-.44,1.74l-22-6.38c-17.16-4.18-34.15-9.11-50.85-14.74-1.79-.61-1.47-2.3.44-1.75Z"/><path class="cls-12" d="M181.86,339c.27.63-.35,1.28-1.6.94L111,321c-1.88-.52-1.44-2.23.46-1.74l69.89,18C182.91,337.64,182.9,338.84,181.86,339Z"/><path class="cls-12" d="M190.12,317.42c1.88.52,1.42,2.26-.46,1.74l-4.58-1.26a2.46,2.46,0,0,1-.5-.08l-70.53-18.58c-1.89-.5-1.43-2.21.46-1.74Q152.45,307,190.12,317.42Z"/><path class="cls-12" d="M123.62,283.39,192.5,303.5c1.87.54,1.44,2.2-.46,1.74q-35.91-8.7-71.1-19.92c-1.84-.59-1.4-2.33.46-1.74l.61.2C122.17,283.38,122.73,283.13,123.62,283.39Z"/><path class="cls-12" d="M189.78,278.71c1.41.6.75,2-.79,1.5q-11.73-3.61-23.58-6.88L154,270.49l-35.1-8.76c-1.77-.45-1.34-2.07.43-1.63l16.71,4.17a2,2,0,0,1,.93,0q14.49,3.45,28.84,7.42l7.27,1.81A110.78,110.78,0,0,1,189.78,278.71Z"/><path class="cls-12" d="M184.46,252.65c1.06.45.57,1.47-.59,1.12q-8.77-2.7-17.64-5.14l-8.51-2.13-26.27-6.56c-1.32-.33-1-1.55.33-1.22l12.5,3.13a1.35,1.35,0,0,1,.69,0q10.85,2.58,21.58,5.55l5.44,1.36A80.9,80.9,0,0,1,184.46,252.65Z"/></g></g></svg>