<svg xmlns="http://www.w3.org/2000/svg" viewBox="0 0 287.66 420.09"><defs><style>.cls-1{fill:#8565ff;}.cls-2{fill:#445cd5;}.cls-3{fill:#000102;}.cls-4{fill:#99a2fc;}.cls-5{fill:#38d6d6;}.cls-6{fill:#f8f7f9;}.cls-7{fill:#6e59fa;}.cls-8{fill:#1d1542;}.cls-9{fill:#fc2d65;}.cls-10{fill:#fff;}</style></defs><g id="Layer_2" data-name="Layer 2"><g id="Layer_1-2" data-name="Layer 1"><path class="cls-1" d="M167,376.5a240.5,240.5,0,0,0,6.82,26.82.75.75,0,0,0,.68.52,96.13,96.13,0,0,0,16.71-.3c3.8-.51,8.38-1.3,11.57-3.61s2.8-6,2.68-9.55c-.19-5.94-.64-11.87-1.29-17.77a.6.6,0,0,0,0-.44c-1.78-5.24-9.56-2.5-13.45-1.83-7.83,1.37-15.58,3.15-23.23,5.29A.73.73,0,0,0,167,376.5Z"/><path class="cls-2" d="M171.18,413.05c.15,1.79.19,4,2,4.76a12.93,12.93,0,0,0,3.68.44c2.32.22,4.64.38,7,.5,4.19.23,8.38.33,12.58.42,17.22.35,34.89-.43,52.12-1.28a.72.72,0,0,0,.68-.89c-6.24-16.31-40-22.81-43.76-22.66-1.22,1.8-5.89,7-16.06,8.31a66.35,66.35,0,0,1-15.85,0C172.71,405.45,170.92,410.08,171.18,413.05Z"/><path class="cls-3" d="M205.34,420.09q-4.47,0-8.91-.09c-3.82-.08-8.26-.18-12.61-.41-2.33-.13-4.67-.29-7-.5-.3,0-.63,0-1-.06a8.45,8.45,0,0,1-3-.45.83.83,0,0,1-.43-1.1.84.84,0,0,1,1.09-.44,7.14,7.14,0,0,0,2.36.32c.37,0,.74,0,1.06.06,2.32.22,4.63.38,6.94.5,4.33.23,8.75.33,12.55.41,17,.35,34.28-.39,51.92-1.26-6.22-15.5-39.06-22.08-42.86-21.89h0a.84.84,0,0,1,0-1.67c4.08-.18,38.18,6.45,44.58,23.19a1.39,1.39,0,0,1-.15,1.28,1.63,1.63,0,0,1-1.27.75C234,419.45,219.57,420.09,205.34,420.09Z"/><path class="cls-4" d="M116.44,185.88c-.26,18,6.34,37.9,9.35,55.72,1.15,7,5.33,18.45,9.8,29.78v0c6.16,15.75,12.83,31.24,12.68,34.32-.1,2.23,1.78,19,3.31,37.4,1,12.38,1.88,25.49,1.88,35.52,0,2.33,48.48,5.51,65.57-7.85.1-34.29-5.46-74.62-6.92-89.16-3.1-31.31-10.3-77.48-15.91-108.48a.49.49,0,0,0-.1-.23.74.74,0,0,0-.7-1.23C171.78,178.33,116.44,185.48,116.44,185.88Z"/><path class="cls-3" d="M209.84,404.89a.84.84,0,0,1-.69-1.32c1.9-2.72,2.58-8.19,2.58-8.25a.84.84,0,0,1,.93-.73.83.83,0,0,1,.73.93c0,.24-.73,5.94-2.87,9A.84.84,0,0,1,209.84,404.89Z"/><path class="cls-3" d="M216.2,406.25a.85.85,0,0,1-.43-.12.83.83,0,0,1-.29-1.14,32.59,32.59,0,0,0,3-8,.83.83,0,1,1,1.63.36,34.25,34.25,0,0,1-3.2,8.53A.86.86,0,0,1,216.2,406.25Z"/><path class="cls-3" d="M135.59,271.38v0c6.16,15.75,12.83,31.24,12.68,34.32-.1,2.23,1.78,19,3.31,37.4a3.46,3.46,0,0,0,.7-1.56c4.64-24.81.08-49.3-.43-74.24-.55-26.7,1.74-54.27,5.44-80.69.68-4.74-6.56-6.77-7.24-2q-1.55,10.95-2.66,22a3.3,3.3,0,0,0-1.65,2.35C141.2,229.27,135.34,250.45,135.59,271.38Z"/><path class="cls-1" d="M237,157.81c-9.4,5.41-19-4.29-39.23-19.6s-32.55-39.59-24.9-50,38.52,11,44.33,16.58,15.36,16.78,15.36,16.78,17.95-10.32,28.84-20.24l14.83,20.79S256,146.85,237,157.81Z"/><path class="cls-5" d="M163.21,59.42c1.22,3.63.62,6.66-.5,10.18a109.57,109.57,0,0,0-4.46,19.09c-1.33,10.32-.17,22,7.81,29.53,4.31,4.08,14.38,14.71,26.26,19.32,11-18.8,20.81-31.15,25.08-37.08.28-.39-17.79-20.62-27.75-32.3-3.93-4.61-8.1-9.08-13.22-12.36a36.9,36.9,0,0,0-17.89-5.35C157.63,50.4,162.3,56.75,163.21,59.42Z"/><path class="cls-6" d="M201.36,123l-18.8-18.9c-2.28-2.29-5.82,1.25-3.54,3.54q9.76,9.84,19.55,19.66Q200,125.07,201.36,123Z"/><path class="cls-6" d="M172.6,65.05c-2.37-2.18-5.93,1.36-3.54,3.54,14.65,13.45,25.79,30.74,37.42,46.87,1.07-1.52,2.09-3,3.06-4.3C198.12,95.21,187,78.28,172.6,65.05Z"/><path class="cls-1" d="M35.08,325.2a240.1,240.1,0,0,0-21,18,.73.73,0,0,0-.16.84,97,97,0,0,0,7.68,14.84c2.14,3.18,4.89,6.94,8.37,8.77s6.6-.14,9.75-1.83C45,363,50.06,360,55.07,356.78a.61.61,0,0,0,.39-.18c3.9-3.93-2-9.69-4.33-12.87-4.7-6.41-9.74-12.56-15.05-18.47A.73.73,0,0,0,35.08,325.2Z"/><path class="cls-2" d="M4.19,345.19c-1.53.93-3.47,1.94-3.36,3.94a13.41,13.41,0,0,0,1.24,3.5c.84,2.17,1.73,4.32,2.65,6.46,1.66,3.86,3.42,7.66,5.21,11.46,7.33,15.59,15.87,31.08,24.27,46.14a.72.72,0,0,0,1.11.21c11.84-12.82,2.7-45.92.87-49.27-2.15-.3-8.84-2.18-14.56-10.7a66.21,66.21,0,0,1-7-14.2C11.69,343.19,6.74,343.64,4.19,345.19Z"/><path class="cls-3" d="M34.88,417.92H34.7a1.66,1.66,0,0,1-1.23-.81c-8.64-15.5-17-30.69-24.3-46.2-2-4.24-3.65-7.82-5.22-11.48-.92-2.15-1.82-4.31-2.66-6.49-.11-.28-.25-.59-.39-.9a8.78,8.78,0,0,1-.9-2.85.84.84,0,0,1,.79-.88.83.83,0,0,1,.88.79,7.53,7.53,0,0,0,.75,2.25c.16.35.31.68.43,1,.83,2.16,1.72,4.3,2.63,6.43,1.57,3.64,3.21,7.2,5.2,11.43,7.25,15.42,15.57,30.54,24.18,46,11.13-12.47,2.4-44.83.59-48.13a.84.84,0,0,1,.33-1.13.82.82,0,0,1,1.13.33c2,3.58,11.17,37.07-1,50.24A1.41,1.41,0,0,1,34.88,417.92Z"/><path class="cls-3" d="M30.76,376.77a9.75,9.75,0,0,1-1.46-.1.84.84,0,0,1-.71-.95.82.82,0,0,1,.95-.7c3.28.47,8.49-1.34,8.54-1.36a.84.84,0,0,1,.56,1.58A28,28,0,0,1,30.76,376.77Z"/><path class="cls-3" d="M32.38,383c-.48,0-1,0-1.42-.06a.82.82,0,0,1-.77-.89.81.81,0,0,1,.89-.77,33,33,0,0,0,8.54-.87.83.83,0,0,1,.4,1.62A35.6,35.6,0,0,1,32.38,383Z"/><path class="cls-4" d="M53.23,366.93c5.92-1.67,17.14-8.42,22.33-11.63a155.09,155.09,0,0,0,16-11.37c10.37-8.38,20.28-18.19,27.69-29.34,8.28-12.48,12.67-28.71,15.85-43,6.85-30.69,13.46-59.55,17.82-90.77a.65.65,0,0,0,0-.24.73.73,0,0,0-.29-1.37C128.16,178.14,73.34,167.6,73.22,168c-13.94,46.54-2.83,108.56-4.71,113.51C67.18,285,21,323.91,20.35,326.24S40.72,356.61,53.23,366.93Z"/><path class="cls-5" d="M59.41,175.62c-1.23,1.23,41.73,15.4,63.09,13.47,25.09-2.26,78.28-8,77.88-9.81-5.21-23.23-10.35-46.49-15.89-69.65-2.83-11.81-5.66-23.62-8.9-35.3-2.3-8.34-6-20.3-14.19-23.53-3-1.18-35.92.7-53.79,3.63-2.48.4-5.16.73-7.77,1.25-.75.15-1.48.31-2.18.51,0,0,0,0,0,0a18.65,18.65,0,0,0-9.25,4.91c-4,4.21-5.19,10.23-6,15.77C80.12,93.13,80.79,111,79,128.05a107.19,107.19,0,0,1-4.73,23.16A61.69,61.69,0,0,1,59.41,175.62Z"/><path class="cls-3" d="M81.34,291.2a.83.83,0,0,1-.76-.49c-.94-2-8.13-6.27-12.45-8.47a.84.84,0,0,1-.43-1,.83.83,0,0,1,.85-.62c.68,0,16.66.9,21.46,3.14a.83.83,0,1,1-.7,1.51c-3.14-1.46-11.89-2.33-17-2.72,3.59,2,8.77,5.23,9.79,7.42a.84.84,0,0,1-.41,1.11A.85.85,0,0,1,81.34,291.2Z"/><path class="cls-3" d="M114.29,322.3a.81.81,0,0,1-.56-.22.84.84,0,0,1-.06-1.18c11.42-12.56,17.44-36.59,20.68-49.5.09-.41,9.67-43.63,11.79-55a.83.83,0,1,1,1.64.3c-2.13,11.43-11.71,54.68-11.81,55.11-3.27,13.08-9.36,37.38-21.06,50.24A.82.82,0,0,1,114.29,322.3Z"/><path class="cls-6" d="M113.82,124.81c-.21,21.07.55,43.05-2.07,64.16,1.71.15,3.37.24,5,.27,2.4-20.17,1.82-41,2.07-61.13.32-25-.18-50-2.62-74.87-1.71.2-3.37.42-4.94.65A668.69,668.69,0,0,1,113.82,124.81Z"/><path class="cls-6" d="M88.48,185c.73-5.46.94-11.07,1.4-16.31,1.06-12.17,1.85-24.36,2.71-36.55q2.72-38,5.41-76a25.65,25.65,0,0,0-5.14,1.8q-2.4,33.87-4.81,67.74c-.8,11.23-1.56,22.46-2.42,33.68-.57,7.51-.48,16.4-1.7,24.58C85.42,184.29,86.94,184.66,88.48,185Z"/><path class="cls-6" d="M130.45,67.91a4.45,4.45,0,0,1-1.21,0,8.38,8.38,0,0,1-4-2c1.87,19.2,5.94,38.11,7.83,57.33,2.13,21.67.68,43.39-1.35,65l5.06-.5c2-21.45,3.42-43,1.3-64.51C136.25,104.68,132.4,86.41,130.45,67.91Z"/><path class="cls-6" d="M146.8,67.13a3.73,3.73,0,0,1-1.7-.64,27.33,27.33,0,0,1-4.87-4.16A668.19,668.19,0,0,1,163.51,184.9l5-.56A675.45,675.45,0,0,0,146.8,67.13Z"/><path class="cls-6" d="M157.25,50.46c-1.46,0-3.22,0-5.23,0,0,.06,0,.11,0,.17a668.89,668.89,0,0,1,29.13,132.1l4.93-.65A675.44,675.44,0,0,0,157.25,50.46Z"/><path class="cls-7" d="M141.85,54.53c-.14-2.11-.14-4.24-.22-6.36s.73-6.43-.6-8.4c-.7-1-2.74-1.69-3.74-2.26l-5.72-3.29a.79.79,0,0,0-1.08.28.77.77,0,0,0-.63.77A70.77,70.77,0,0,1,127.72,50l-1.38,6c-.21.9-.87,2.37-.55,3.32.6,1.83,4,2.72,5.62,3.14a14,14,0,0,0,8.49-.21c1.06-.42,2.52-1,2.84-2.18S141.94,55.94,141.85,54.53Z"/><path class="cls-1" d="M150.44,22.62a31.46,31.46,0,0,0-1.93-5.89c-.55-1.26-1.35-4.1-2.61-4.86a2.13,2.13,0,0,0-.5-.18.86.86,0,0,0-.93-.62c-6.24.81-15.67,3.63-19.61,9.27-.33.22-.67.42-1,.65a.72.72,0,0,0-.1,1.12.88.88,0,0,0,0,.42c2.57,7.82,5.74,17.3,13.84,20.94,7.1,3.19,13.68.87,14.21-7.41A49.92,49.92,0,0,0,150.44,22.62Z"/><path class="cls-1" d="M131.36,34.66c.1,3.25-4.12,5.87-6.22,2.72a5.37,5.37,0,0,1-.18-4.83c.76-1.79,3.06-2,4.74-1.81a1,1,0,0,1,.63,1.67A2.86,2.86,0,0,1,131.36,34.66Z"/><path class="cls-3" d="M122.33,13.62a5.34,5.34,0,0,1,1.18-.58,6.71,6.71,0,0,0-2.59-.94c-1.06-.15-.61-1.76.45-1.6a7.72,7.72,0,0,1,2.93,1.07,19.05,19.05,0,0,1,.42-4.11c.21-1,1.82-.6,1.61.45a17.82,17.82,0,0,0-.37,3.78,18.21,18.21,0,0,0,2.43-2.15A38.12,38.12,0,0,1,134,4.85,26.28,26.28,0,0,1,147.64,0c4-.1,5.16,2.53,5.62,6.31.37,3.05-.26,7.14-2.8,9.2-3.78,3.07-10.88,3.52-15.5,4.28-.84.14-3.9.18-4.45.77s-.47,2.58-.61,3.37a17.4,17.4,0,0,1-2.59,6.92.83.83,0,0,1-.78.36.84.84,0,0,1-.89.38C118.51,30.21,116.43,17.64,122.33,13.62Z"/><path class="cls-3" d="M146.12,68.51a.82.82,0,0,1-.49-.16l-7.16-5.16a.83.83,0,0,1-.32-.89.84.84,0,0,1,.72-.62,3.37,3.37,0,0,0,2.85-1.57,2.22,2.22,0,0,0,.15-1.8c-.59-1.05-.91-5.84-1-7.28a.83.83,0,0,1,.23-.62.84.84,0,0,1,.61-.27h3.44a.81.81,0,0,1,.49.17c2.94,2.15,4.58,4.75,4.88,7.71.54,5.41-3.61,10-3.78,10.22A.84.84,0,0,1,146.12,68.51Zm-5.2-5.62L146,66.54c1-1.32,3.26-4.7,2.89-8.36a9.19,9.19,0,0,0-4-6.37H142.6a31,31,0,0,0,.73,5.69,3.82,3.82,0,0,1-.13,3.38A4.24,4.24,0,0,1,140.92,62.89Z"/><path class="cls-3" d="M137.72,70.32h0c-7.62-.15-12.71-2.19-15.13-6.07-3.38-5.41-.26-12.24-.12-12.53a.83.83,0,0,1,.75-.48h4a.8.8,0,0,1,.67.34.82.82,0,0,1,.13.74c-.83,2.7-1.62,6-1.48,6.63,1.84,3.33,9.5,3.11,12.3,2.73a.85.85,0,0,1,.71.25.83.83,0,0,1,.22.73l-1.24,7A.84.84,0,0,1,137.72,70.32Zm-14-17.41c-.6,1.56-2.2,6.58.23,10.46,2,3.26,6.41,5,13,5.26l.92-5.18c-2.91.24-10.58.42-12.89-3.78-.4-.73,0-3,1.06-6.76Z"/><path class="cls-8" d="M78.22,141a10.64,10.64,0,1,0,3.85,14.55A10.64,10.64,0,0,0,78.22,141Zm-8.7,15a6.67,6.67,0,1,1,9.12-2.42A6.68,6.68,0,0,1,69.52,156Z"/><path class="cls-9" d="M45.53,134.71S21.1,171,4.42,188.86c0,0,35.46,19.7,48.79,40.25,0,0,31.29-25.44,45.8-62.81C99,166.3,74.49,145.54,45.53,134.71Z"/><path class="cls-10" d="M47,143.19S29.07,175.52,6.52,180.24c0,0,35.85,22.77,46.64,39.42,0,0,25.35-20.61,37.11-50.89C90.27,168.77,70.4,152,47,143.19Z"/><path class="cls-8" d="M46.9,153.81l.92-2.14c1,.42,23.82,10.3,34.41,21.85l-1.72,1.58C70.26,163.91,47.14,153.91,46.9,153.81Z"/><path class="cls-8" d="M42.33,161.67l.92-2.14c1,.42,23.82,10.3,34.41,21.85L75.94,183C65.69,171.77,42.56,161.77,42.33,161.67Z"/><path class="cls-8" d="M35.18,168l1.14-2c.89.5,21.89,12.31,31.31,24.32l-1.83,1.43C56.67,180.12,35.4,168.16,35.18,168Z"/><path class="cls-8" d="M28.55,176.56l1-2.08c.86.43,21.07,10.68,30.86,24l-1.88,1.37C49.12,187,28.75,176.66,28.55,176.56Z"/><path class="cls-8" d="M20.24,181.68l1.17-2c1,.58,24.24,14.19,33.89,27.73l-1.89,1.35C44.05,195.62,20.48,181.82,20.24,181.68Z"/><path class="cls-1" d="M12.39,163.77C6.58,152,66.35,59.42,90.68,88.12c22.61,26.67-47.46,75.13-47.46,75.13s11.32,15.17,23.41,20.19l-8.95,17.27S25,189.33,12.39,163.77Z"/><path class="cls-1" d="M85,197.24c-.71,2.15-1.93,3-3.35,3.09a4.5,4.5,0,0,1,.11,2.85c-.67,2.27-2.09,2.94-3.76,2.79a3.63,3.63,0,0,1-.72,3.55,3.81,3.81,0,0,1-3.33,1.65,2.89,2.89,0,0,1-1.59,3.8c-4.25,1.05-8.55-3.73-11.11-6.94-2.76-3.46-5.05-7.93-3.15-12.76,2.8-7.1,11.26-9.69,17.21-7h.11C78.49,189.48,86.78,191.79,85,197.24Z"/><path class="cls-1" d="M86.71,189.58c-3.77.44-6.23-1.58-9.83-1.57-3.85,0-7.89,1.64-11.8,2.18-1.46.2-4.36.59-4.39-1.07,0-.45,2.7-5.94,3.55-6.25,9.14-3.28,18.26-3.71,23.72,4.68C88.67,188.64,87.12,189.53,86.71,189.58Z"/><path class="cls-3" d="M78.1,206.81h-.17a.84.84,0,0,1-.81-.86.85.85,0,0,1,.84-.81h.14a2.36,2.36,0,0,0,1.87-.73c1-1.09.92-3.23.82-4a.83.83,0,0,1,.59-.92,4.29,4.29,0,0,0,2.83-2.35,3.58,3.58,0,0,0-.33-3.15c-1.3-2.32-7.44-4.61-9.7-5.3a.83.83,0,1,1,.48-1.59c.9.27,8.82,2.75,10.68,6.07a5.1,5.1,0,0,1,.41,4.6,5.86,5.86,0,0,1-3.25,3.1,6.77,6.77,0,0,1-1.29,4.61A4,4,0,0,1,78.1,206.81Z"/><path class="cls-5" d="M41.17,105.71c12.7,9.15,22.15,24.2,30,37.44a.72.72,0,0,0,1.22,0,59.26,59.26,0,0,1,8-9.53c2.7-2.57,6.1-4.37,8.75-6.9,1.67-1.59,8.13-23.8,8-27.86-.19-8.89,6-16.33,7.58-25.12,1.44-8.2-6.47-17.72-6.88-17.6C86,59.68,75.31,66.88,66.49,75.59c-9.91,9.78-19.34,17.82-25.58,29.15A.73.73,0,0,0,41.17,105.71Z"/><path class="cls-6" d="M92.68,117.43c.5-1.63,1-3.36,1.5-5.08a2,2,0,0,0-1.93-.13c-11.32,4.43-19.06,13.18-26,22.79q1.22,2,2.39,3.89a2.52,2.52,0,0,0,1.71-1.06C76.31,129.56,83.08,121.51,92.68,117.43Z"/><path class="cls-6" d="M103.33,64.63a2.35,2.35,0,0,0-1.07.17c-24.42,9.37-38.08,27.5-53,47.85,1.12,1.13,2.22,2.3,3.28,3.5a2.53,2.53,0,0,0,.9-.78c14.16-19.25,27.08-36.87,50.2-45.74a2.68,2.68,0,0,0,1-.72A22.08,22.08,0,0,0,103.33,64.63Z"/><path class="cls-6" d="M100.54,89.91c-.65-.33-3.5.66-4.33,1-7.36,3.2-12.88,9.37-19,14.37-6.8,5.53-13.59,10.86-19.08,17.74,1,1.37,2,2.77,3,4.18l.09-.09c5.05-6.49,11.25-11.61,17.62-16.75,6-4.82,13.49-11.12,20.41-14.59A37,37,0,0,1,100.54,89.91Z"/><path class="cls-3" d="M72.36,144a.82.82,0,0,1-.58-.24.84.84,0,0,1,0-1.18c.49-.51,12-12.52,16.82-16.49,3.65-3,8.44-24.3,11.29-37,.77-3.4,1.44-6.4,2-8.63a.83.83,0,0,1,1-.61.82.82,0,0,1,.61,1c-.54,2.23-1.21,5.22-2,8.61-4.09,18.21-8.08,34.82-11.86,37.94-4.73,3.9-16.56,16.23-16.68,16.36A.83.83,0,0,1,72.36,144Z"/><path class="cls-1" d="M265.14,126.57c2.85-1.24,6.37-.9,8.67-3.19,3.08-1.93,6.53-4.18,8.84-7.52,2.61-3.79,2.78-11.58,4-16,.28-1-.35-1.83-1.07-1.73-4.82.67-5,7-7.77,10.9a32.19,32.19,0,0,0-.75-6.57,22.41,22.41,0,0,1,4.83-8.69c2.56-2.93,4.67-5.13,5.7-9.62a1.52,1.52,0,0,0-.45-1.58c-1-.73-2.08.58-3.09,1.47-.66.58-1.34,1.17-2,1.79a16.29,16.29,0,0,0,3.4-6.91A1.53,1.53,0,0,0,285,77.3c-1-.73-2.08.58-3.09,1.47l-.45.41c0-.17.09-.31.13-.48a1.56,1.56,0,0,0-.45-1.59c-1-.72-2.08.59-3.09,1.48-1.34,1.18-2.75,2.41-4.13,3.73a15.73,15.73,0,0,0,.41-2.53,1.21,1.21,0,0,0-.7-1.34c-1.14-.36-2,1.2-2.93,2.34A70.92,70.92,0,0,0,263.65,91c-3,5.7-4.48,15.34-3.69,21.46C256.66,113.27,258.45,129.47,265.14,126.57Z"/></g></g></svg>