<svg id="Icon" xmlns="http://www.w3.org/2000/svg" width="17.693" height="17.709" viewBox="0 0 17.693 17.709">
  <g id="google">
    <path id="Shape" d="M8.666,1.811A9.981,9.981,0,0,0,8.5,0H0V3.425H4.858A4.071,4.071,0,0,1,3.057,6.1V8.319H5.974A8.554,8.554,0,0,0,8.666,1.811Z" transform="translate(9.027 7.245)" fill="#4285f4"/>
    <path id="Shape-2" data-name="Shape" d="M8.067,7.172a8.715,8.715,0,0,0,5.974-2.145L11.124,2.805a5.5,5.5,0,0,1-3.057.845A5.369,5.369,0,0,1,3.016,0H0V2.294A9.042,9.042,0,0,0,8.067,7.172Z" transform="translate(0.96 10.537)" fill="#34a853"/>
    <path id="Shape-3" data-name="Shape" d="M3.976,5.659a5.142,5.142,0,0,1,0-3.365V0H.96a8.716,8.716,0,0,0,0,7.954L3.976,5.659Z" transform="translate(0 4.878)" fill="#fbbc05"/>
    <path id="Shape-4" data-name="Shape" d="M8.067,3.522a4.93,4.93,0,0,1,3.451,1.324l2.589-2.54A8.771,8.771,0,0,0,8.067,0,9.043,9.043,0,0,0,0,4.878L3.016,7.172A5.369,5.369,0,0,1,8.067,3.522Z" transform="translate(0.96)" fill="#ea4335"/>
  </g>
</svg>
