<?xml version="1.0" standalone="no"?>
<!DOCTYPE svg PUBLIC "-//W3C//DTD SVG 20010904//EN"
 "http://www.w3.org/TR/2001/REC-SVG-20010904/DTD/svg10.dtd">
<svg version="1.0" xmlns="http://www.w3.org/2000/svg"
 width="971.000000pt" height="971.000000pt" viewBox="0 0 971.000000 971.000000"
 preserveAspectRatio="xMidYMid meet">
<metadata>
Created by potrace 1.11, written by Peter Selinger 2001-2013
</metadata>
<g transform="translate(0.000000,971.000000) scale(0.100000,-0.100000)"
fill="#000000" stroke="none">
<path d="M3801 6426 c-8 -10 -10 -427 -9 -1567 l3 -1554 240 0 240 0 0 1409 0
1409 -215 158 c-118 87 -222 159 -231 159 -9 0 -22 -6 -28 -14z"/>
<path d="M7113 6429 c-17 -17 -19 -2063 -3 -2204 33 -286 160 -527 367 -695
200 -161 417 -244 679 -257 333 -17 618 91 844 321 107 108 160 181 220 301
141 284 145 663 10 952 -107 230 -291 417 -515 528 -218 108 -475 140 -719 90
-108 -23 -270 -83 -337 -126 -33 -22 -62 -39 -64 -39 -3 0 -5 179 -5 399 l0
399 -212 168 c-117 92 -222 169 -233 171 -11 3 -26 -1 -32 -8z m1232 -1424
c181 -38 346 -165 423 -326 94 -196 94 -402 0 -598 -76 -159 -233 -284 -408
-325 -139 -33 -309 -12 -439 53 -76 39 -190 145 -235 220 -154 254 -116 602
88 806 150 150 363 214 571 170z"/>
<path d="M490 6411 c-7 -14 -9 -511 -8 -1563 l3 -1543 243 -3 242 -2 -2 1407
-3 1407 -215 158 c-118 87 -222 158 -232 158 -9 0 -22 -9 -28 -19z"/>
<path d="M2231 5479 c-232 -28 -438 -129 -616 -300 -189 -182 -294 -378 -330
-616 -54 -360 45 -692 281 -942 231 -245 536 -366 878 -348 276 14 500 109
698 296 106 101 173 187 232 301 91 175 122 329 113 559 -7 184 -30 280 -101
426 -157 319 -446 548 -776 611 -96 19 -284 25 -379 13z m352 -493 c273 -92
443 -353 424 -652 -12 -176 -76 -315 -201 -432 -124 -116 -279 -169 -460 -159
-234 13 -417 131 -517 332 -92 186 -93 412 -2 605 49 103 169 223 274 273 151
73 328 85 482 33z"/>
<path d="M5541 5479 c-242 -30 -467 -142 -641 -318 -198 -202 -303 -439 -317
-717 -17 -339 89 -623 315 -851 225 -227 515 -336 842 -320 189 10 413 77 536
161 l39 26 5 -77 5 -78 240 0 240 0 3 540 c2 326 -1 584 -8 652 -25 267 -109
465 -270 637 -157 168 -376 288 -604 331 -102 20 -288 27 -385 14z m354 -494
c192 -64 326 -200 392 -400 37 -112 39 -284 4 -395 -36 -116 -78 -187 -161
-270 -191 -192 -489 -236 -733 -108 -88 46 -215 174 -255 258 -161 332 -40
726 269 879 111 55 189 72 309 67 68 -3 117 -11 175 -31z"/>
</g>
</svg>
