<svg xmlns="http://www.w3.org/2000/svg" xmlns:xlink="http://www.w3.org/1999/xlink" width="100" height="35.83" viewBox="0 0 100 35.83"><defs><style>.a{fill:none;}.b{clip-path:url(#a);}.c{fill:#15110e;}</style><clipPath id="a"><rect class="a" width="100" height="35.83"/></clipPath></defs><g transform="translate(-895.189 -158.396)"><g transform="translate(945.189 176.311)"><g class="b" transform="translate(-50 -17.915)"><path class="c" d="M218.717,70.974a.373.373,0,0,1-.373-.373V69.016a8.862,8.862,0,0,1-.862.629,13.871,13.871,0,0,1-6.2,1.608,12.56,12.56,0,0,1-8.974-21.375,12.19,12.19,0,0,1,8.974-3.683,12.821,12.821,0,0,1,8.858,3.38c2.471,2.238,3.73,5.338,3.73,9.324V70.6a.373.373,0,0,1-.373.373Zm-7.436-5.012a7.252,7.252,0,1,0-7.063-7.249,7,7,0,0,0,7.063,7.249" transform="translate(-152.376 -35.426)"/><path class="c" d="M342.562,14.431a12.044,12.044,0,0,0-8.974-3.683,12.33,12.33,0,0,0-3.846.629,10.945,10.945,0,0,0-2.424,1.026,6.833,6.833,0,0,0-.816.583v-8.9a.466.466,0,0,0-.163-.35L321.722.072a.443.443,0,0,0-.723.35V6.529h0c.023,5.524,0,11.049,0,16.573a12.011,12.011,0,0,0,3.73,9.324,12.844,12.844,0,0,0,8.858,3.4,11.961,11.961,0,0,0,8.9-3.683,12.317,12.317,0,0,0,3.683-8.858,12.175,12.175,0,0,0-3.613-8.858m-8.974,16.084a6.96,6.96,0,0,1-7.063-7.249,7.065,7.065,0,1,1,14.126.023,6.982,6.982,0,0,1-7.063,7.226" transform="translate(-246.175 0.021)"/><path class="c" d="M0,35.729V.9A.443.443,0,0,1,.7.531L5.361,3.957a.42.42,0,0,1,.163.326V35.729a.163.163,0,0,1-.163.163H.163A.163.163,0,0,1,0,35.729" transform="translate(0.001 -0.344)"/><path class="c" d="M41.879,49.878a12.549,12.549,0,0,1,17.762,0,12.549,12.549,0,0,1,0,17.762,12.722,12.722,0,0,1-17.762,0,12.549,12.549,0,0,1,0-17.762m1.841,8.858a7.29,7.29,0,0,0,2,5.221,7.04,7.04,0,0,0,5.058,2,6.807,6.807,0,0,0,5.012-2,7.061,7.061,0,0,0,2.075-5.221,7.121,7.121,0,0,0-12.145-5.175,7.009,7.009,0,0,0-2,5.175" transform="translate(-29.292 -35.426)"/><path class="c" d="M160.5,35.305V.48a.443.443,0,0,1,.7-.35l4.662,3.427a.42.42,0,0,1,.163.326V35.305a.163.163,0,0,1-.163.163h-5.2a.163.163,0,0,1-.163-.163" transform="translate(-123.087 -0.037)"/></g></g></g></svg>